<svg width="119" height="163" viewBox="0 0 119 163" fill="none" xmlns="http://www.w3.org/2000/svg">
<path d="M27.5661 62.9706C14.1758 54.9701 9.80566 37.6307 17.8052 24.2421C25.8047 10.8535 43.1447 6.48566 56.535 14.4862C69.9253 22.4867 74.2953 39.826 66.2958 53.2146C58.2962 66.6033 40.9564 70.9712 27.5661 62.9706Z" fill="#F79F28"/>
<path d="M16.6996 113.986C8.00511 108.791 5.16761 97.5324 10.3618 88.839C15.5559 80.1457 26.8148 77.3095 35.5093 82.5044C44.2037 87.6992 47.0412 98.9578 41.8471 107.651C36.6529 116.344 25.394 119.181 16.6996 113.986Z" fill="#C83898"/>
<path d="M84.0446 152.834C75.3958 147.564 72.6566 136.281 77.9265 127.633C83.1963 118.985 94.4796 116.248 103.128 121.518C111.777 126.789 114.516 138.072 109.247 146.719C103.977 155.367 92.6934 158.105 84.0446 152.834Z" fill="#3778B8"/>
</svg>
