<svg width="308" height="236" viewBox="0 0 308 236" fill="none" xmlns="http://www.w3.org/2000/svg">
<g clip-path="url(#clip0_108_2)">
<path opacity="0.15" d="M193.741 118.982H85.2259C83.5152 118.982 81.8746 118.3 80.6649 117.087C79.4553 115.873 78.7757 114.227 78.7757 112.511V43.2984C78.7757 41.5822 79.4553 39.9362 80.6649 38.7227C81.8746 37.5092 83.5152 36.8274 85.2259 36.8274H193.741C195.451 36.8274 197.092 37.5092 198.302 38.7227C199.511 39.9362 200.191 41.5822 200.191 43.2984V112.511C200.191 114.227 199.511 115.873 198.302 117.087C197.092 118.3 195.451 118.982 193.741 118.982ZM85.2259 37.5887C83.7164 37.5887 82.2688 38.1902 81.2015 39.261C80.1342 40.3318 79.5345 41.7841 79.5345 43.2984V112.511C79.5345 114.025 80.1342 115.478 81.2015 116.548C82.2688 117.619 83.7164 118.221 85.2259 118.221H193.741C195.25 118.221 196.698 117.619 197.765 116.548C198.832 115.478 199.432 114.025 199.432 112.511V43.2984C199.432 41.7841 198.832 40.3318 197.765 39.261C196.698 38.1902 195.25 37.5887 193.741 37.5887H85.2259Z" fill="#3778B8"/>
<path d="M186.721 70.1034H92.2452C91.3904 70.1014 90.5713 69.7599 89.9669 69.1535C89.3625 68.5472 89.0221 67.7254 89.0201 66.8679V51.6421C89.0211 50.7843 89.3612 49.9619 89.9658 49.3554C90.5704 48.7488 91.3901 48.4076 92.2452 48.4066H186.721C187.577 48.4066 188.397 48.7475 189.002 49.3543C189.607 49.961 189.946 50.784 189.946 51.6421V66.8679C189.945 67.7257 189.605 68.5481 189.001 69.1546C188.396 69.7612 187.576 70.1024 186.721 70.1034Z" fill="#3778B8"/>
<path opacity="0.15" d="M184.445 84.3776H94.5217C93.7167 84.3776 92.9446 84.0567 92.3754 83.4856C91.8061 82.9146 91.4863 82.14 91.4863 81.3324C91.4863 80.5248 91.8061 79.7502 92.3754 79.1791C92.9446 78.6081 93.7167 78.2872 94.5217 78.2872H184.445C185.25 78.2872 186.022 78.6081 186.591 79.1791C187.16 79.7502 187.48 80.5248 187.48 81.3324C187.48 82.14 187.16 82.9146 186.591 83.4856C186.022 84.0567 185.25 84.3776 184.445 84.3776Z" fill="#3778B8"/>
<path opacity="0.15" d="M184.445 95.797H94.5217C93.7167 95.797 92.9446 95.4762 92.3754 94.9051C91.8061 94.334 91.4863 93.5595 91.4863 92.7518C91.4863 91.9442 91.8061 91.1697 92.3754 90.5986C92.9446 90.0275 93.7167 89.7067 94.5217 89.7067H184.445C185.25 89.7067 186.022 90.0275 186.591 90.5986C187.16 91.1697 187.48 91.9442 187.48 92.7518C187.48 93.5595 187.16 94.334 186.591 94.9051C186.022 95.4762 185.25 95.797 184.445 95.797Z" fill="#3778B8"/>
<path opacity="0.15" d="M165.193 107.216H93.8957C92.5639 107.216 91.4863 105.854 91.4863 104.171C91.4863 102.489 92.5639 101.126 93.8957 101.126H165.193C166.521 101.126 167.598 102.489 167.598 104.171C167.598 105.854 166.521 107.216 165.193 107.216Z" fill="#3778B8"/>
<path opacity="0.05" d="M28.4225 235.619V235.715L28.377 235.437C28.3467 235.288 28.3239 235.14 28.2973 234.991C27.3749 229.151 27.8841 223.172 29.7809 217.573C30.1603 216.477 30.5625 215.407 31.0292 214.353C32.8121 210.275 35.341 206.568 38.4848 203.424C39.504 202.375 40.6681 201.478 41.9414 200.76C42.1273 200.661 42.3208 200.566 42.5067 200.478C43.6847 199.907 45.0097 199.714 46.3009 199.926C46.7696 200.017 47.2239 200.171 47.6517 200.383C47.8015 200.455 47.9472 200.535 48.088 200.623C48.9515 201.19 49.6885 201.93 50.2528 202.796C50.817 203.663 51.1961 204.638 51.3662 205.659C51.6106 207.177 51.5551 208.729 51.2031 210.227C51.1727 210.367 51.1386 210.512 51.1044 210.653C50.8544 211.653 50.5388 212.636 50.1597 213.595C46.3616 223.385 38.2344 232.049 28.4225 235.619Z" fill="#3778B8"/>
<path d="M47.6099 200.429C44.6605 204.684 41.8781 209.046 39.2626 213.515C36.6471 217.984 34.1973 222.552 31.9132 227.218C30.6485 229.825 29.4293 232.457 28.2556 235.117C28.1266 235.41 28.5629 235.665 28.6919 235.368C30.7711 230.623 33.0262 225.96 35.457 221.379C37.8878 216.799 40.4869 212.316 43.2541 207.931C44.8022 205.48 46.4034 203.069 48.0576 200.699C48.2436 200.432 47.8072 200.181 47.6213 200.448L47.6099 200.429Z" fill="white"/>
<path d="M50.7705 210.276C48.5484 213.173 45.2755 215.072 41.6644 215.559C40.6584 215.698 39.6397 215.718 38.629 215.62C38.3065 215.59 38.3027 216.096 38.629 216.127C42.3876 216.442 46.1188 215.259 49.0138 212.834C49.8248 212.159 50.5556 211.393 51.1917 210.55C51.3852 210.291 50.9488 210.04 50.7553 210.295L50.7705 210.276Z" fill="white"/>
<path d="M31.826 225.962C31.3106 225.226 30.8827 224.431 30.5511 223.595C29.7928 221.689 29.5227 219.622 29.7657 217.584C30.1451 216.488 30.5473 215.419 31.014 214.364C31.0418 214.406 31.0585 214.454 31.0625 214.504C31.0665 214.554 31.0576 214.604 31.0368 214.65C30.7132 215.439 30.4839 216.265 30.3538 217.109C29.8405 220.118 30.5214 223.21 32.2509 225.723C32.2724 225.75 32.2865 225.783 32.2918 225.818C32.2971 225.852 32.2935 225.888 32.2813 225.921C32.2671 225.956 32.2456 225.988 32.2183 226.015C32.191 226.041 32.1584 226.062 32.1227 226.075C32.0869 226.088 32.0488 226.094 32.0108 226.092C31.9728 226.089 31.9357 226.079 31.9019 226.061C31.87 226.034 31.8442 226 31.826 225.962Z" fill="white"/>
<path d="M42.0021 200.455C41.3939 202.882 41.5747 205.44 42.5181 207.756C42.5514 207.814 42.606 207.855 42.67 207.873C42.734 207.89 42.8022 207.881 42.8596 207.848C42.916 207.813 42.9573 207.759 42.9749 207.695C42.9925 207.631 42.9852 207.563 42.9544 207.505C42.0755 205.31 41.9147 202.892 42.4953 200.6C42.5101 200.534 42.4985 200.466 42.4629 200.409C42.4274 200.352 42.3709 200.311 42.3056 200.296C42.2438 200.28 42.1784 200.29 42.1233 200.321C42.0681 200.353 42.0274 200.405 42.0097 200.467L42.0021 200.455Z" fill="white"/>
<path opacity="0.05" d="M28.3619 223.439L28.3922 223.526L28.2215 223.305C28.1266 223.187 28.0356 223.066 27.9483 222.944C24.4233 218.203 22.105 212.671 21.1946 206.827C21.0124 205.688 20.886 204.546 20.8151 203.402C20.5056 198.959 21.0255 194.498 22.348 190.246C22.7679 188.842 23.3849 187.506 24.1806 186.276C24.2982 186.101 24.4197 185.93 24.56 185.766C25.3352 184.708 26.4202 183.919 27.6637 183.509C28.119 183.369 28.5914 183.292 29.0676 183.281C29.2345 183.281 29.4015 183.281 29.5646 183.281C30.5918 183.38 31.5873 183.692 32.4884 184.196C33.3896 184.701 34.1768 185.387 34.8007 186.212C35.724 187.444 36.3958 188.848 36.7774 190.342C36.8154 190.482 36.8533 190.627 36.8875 190.768C37.1294 191.77 37.3056 192.788 37.4149 193.813C38.5797 204.235 35.3926 215.693 28.3619 223.439Z" fill="#3778B8"/>
<path d="M29.0524 183.322C28.4023 188.466 27.9508 193.629 27.6979 198.811C27.4449 203.993 27.388 209.175 27.5271 214.356C27.6081 217.257 27.7484 220.156 27.9483 223.054C27.9483 223.374 28.4719 223.397 28.4491 223.054C28.0925 217.882 27.9306 212.703 27.9634 207.516C27.9963 202.329 28.2252 197.151 28.6502 191.982C28.888 189.089 29.1877 186.203 29.5494 183.322C29.5912 182.999 29.0865 182.98 29.0448 183.303L29.0524 183.322Z" fill="white"/>
<path d="M36.4246 190.57C35.7976 194.168 33.7793 197.372 30.8091 199.485C29.9833 200.075 29.092 200.566 28.1532 200.95C27.8534 201.076 28.0849 201.521 28.3808 201.399C31.854 199.929 34.6083 197.142 36.0451 193.646C36.4498 192.668 36.7389 191.646 36.9064 190.6C36.9596 190.281 36.4549 190.262 36.4018 190.578L36.4246 190.57Z" fill="white"/>
<path d="M26.8973 213.291C26.0997 212.871 25.3536 212.36 24.6739 211.768C23.1174 210.439 21.9206 208.737 21.1945 206.82C21.0124 205.68 20.886 204.538 20.8151 203.394C20.8593 203.417 20.8967 203.451 20.9233 203.493C20.95 203.535 20.965 203.584 20.9669 203.634C21.0436 204.487 21.2167 205.328 21.4829 206.142C22.4353 209.04 24.4773 211.45 27.1742 212.861C27.2064 212.875 27.2345 212.897 27.2558 212.925C27.277 212.953 27.2908 212.986 27.2957 213.02C27.2998 213.094 27.2751 213.165 27.2267 213.22C27.1784 213.275 27.1105 213.309 27.0377 213.314C26.9898 213.316 26.942 213.308 26.8973 213.291Z" fill="white"/>
<path d="M24.0971 185.96C24.6847 188.391 26.0282 190.571 27.9331 192.184C27.9891 192.212 28.0533 192.218 28.1135 192.201C28.1737 192.184 28.2256 192.146 28.2594 192.093C28.2932 192.04 28.3064 191.977 28.2966 191.915C28.2868 191.853 28.2547 191.797 28.2063 191.758C26.4072 190.223 25.141 188.154 24.5904 185.85C24.5701 185.791 24.5287 185.741 24.4741 185.71C24.4195 185.679 24.3555 185.67 24.2944 185.683C24.2333 185.697 24.1794 185.733 24.143 185.784C24.1066 185.835 24.0903 185.898 24.0971 185.96Z" fill="white"/>
<path opacity="0.05" d="M28.5781 235.695L28.654 235.753L28.3884 235.657L27.9673 235.505C22.452 233.414 17.5288 230.003 13.6251 225.57C12.8662 224.71 12.1428 223.822 11.4548 222.906C8.80743 219.326 6.85252 215.279 5.69136 210.976C5.28978 209.568 5.09173 208.109 5.10326 206.645C5.10326 206.431 5.10326 206.222 5.1412 206.009C5.22851 204.699 5.71904 203.449 6.54506 202.431C6.85454 202.067 7.21194 201.747 7.60745 201.479C7.74783 201.388 7.88822 201.3 8.0324 201.22C8.94984 200.747 9.95489 200.469 10.9845 200.403C12.0142 200.338 13.0462 200.486 14.0159 200.84C15.4581 201.385 16.7795 202.208 17.905 203.264L18.2237 203.561C18.9666 204.275 19.6612 205.038 20.3029 205.845C26.8783 213.991 30.3538 225.369 28.5781 235.695Z" fill="#3778B8"/>
<path d="M7.62642 201.517C9.84478 206.199 12.2389 210.792 14.8089 215.297C17.3788 219.801 20.112 224.198 23.0082 228.486C24.6321 230.892 26.3054 233.259 28.028 235.589C28.2215 235.848 28.6578 235.589 28.4643 235.334C25.3885 231.17 22.477 226.894 19.73 222.506C16.983 218.119 14.3915 213.632 11.9556 209.047C10.6024 206.481 9.30473 203.886 8.06276 201.262C7.92237 200.981 7.48983 201.228 7.62642 201.517Z" fill="white"/>
<path d="M17.7191 203.645C19.1207 207.012 19.1439 210.797 17.7836 214.181C17.4038 215.123 16.9162 216.017 16.3304 216.846C16.1445 217.109 16.5808 217.364 16.7667 217.097C18.9008 213.986 19.7269 210.157 19.066 206.439C18.88 205.392 18.5732 204.37 18.1516 203.394C18.0226 203.097 17.5901 203.352 17.7191 203.649V203.645Z" fill="white"/>
<path d="M21.9003 227.934C21.0066 228.017 20.1064 227.996 19.2178 227.869C17.1916 227.593 15.2678 226.807 13.6251 225.586C12.8662 224.725 12.1428 223.837 11.4548 222.921C11.5043 222.916 11.5544 222.924 11.5997 222.945C11.6451 222.966 11.6841 222.998 11.7128 223.039C12.2342 223.718 12.8327 224.334 13.4961 224.874C15.8539 226.803 18.87 227.73 21.9003 227.458C21.9345 227.453 21.9695 227.457 22.002 227.469C22.0345 227.48 22.0635 227.501 22.0862 227.527C22.1141 227.566 22.1316 227.611 22.1369 227.659C22.1421 227.706 22.1351 227.754 22.1164 227.798C22.0977 227.842 22.068 227.881 22.0301 227.91C21.9922 227.939 21.9475 227.958 21.9003 227.965V227.934Z" fill="white"/>
<path d="M4.868 206.42C6.66713 208.153 8.97086 209.264 11.4434 209.591C11.5762 209.591 11.6938 209.461 11.6938 209.34C11.6929 209.273 11.6663 209.209 11.6196 209.162C11.573 209.114 11.5098 209.086 11.4434 209.085C9.10221 208.765 6.92306 207.706 5.22087 206.062C4.98942 205.838 4.63276 206.192 4.868 206.42Z" fill="white"/>
<path d="M62.931 169.102C63.822 168.487 64.4338 167.544 64.6323 166.478C64.8307 165.412 64.5996 164.31 63.9896 163.415C63.8535 163.216 63.6999 163.03 63.5305 162.859L65.1127 127.459L57.0613 128.369L57.5318 163.007C56.8647 163.759 56.4956 164.73 56.4946 165.737C56.4935 166.743 56.8606 167.715 57.5261 168.468C58.1917 169.221 59.1096 169.703 60.1057 169.823C61.1019 169.942 62.1072 169.691 62.931 169.117V169.102Z" fill="#AB6D64"/>
<path d="M77.6147 229.038L82.1981 229.845L86.7246 212.503L80.7222 211.308L77.6147 229.038Z" fill="#AB6D64"/>
<path d="M90.3026 235.673L75.8845 233.13L76.8596 227.55L85.6964 229.11C86.4292 229.236 87.1301 229.506 87.7587 229.904C88.3873 230.302 88.9313 230.821 89.3593 231.431C89.7874 232.041 90.0911 232.729 90.2529 233.457C90.4148 234.185 90.4317 234.938 90.3026 235.673Z" fill="#4D4E4E"/>
<path d="M65.0406 231.337H69.6923L71.9043 213.336H65.0406V231.337Z" fill="#AB6D64"/>
<path d="M78.6657 235.669H64.0465V230.005H73.0198C74.5176 230.005 75.954 230.602 77.0134 231.664C78.0728 232.726 78.6684 234.166 78.6694 235.669H78.6657Z" fill="#4D4E4E"/>
<path d="M84.8275 226.408H84.6112L79.1361 225.955C78.8944 225.926 78.6606 225.851 78.4482 225.732C78.2357 225.612 78.0487 225.453 77.8979 225.261C77.747 225.069 77.6353 224.85 77.5692 224.615C77.503 224.38 77.4836 224.134 77.5122 223.892C77.5122 223.861 77.5122 223.831 77.5122 223.8L82.5661 195.374L79.1513 177.305C79.1221 177.159 79.0418 177.028 78.9248 176.937C78.8079 176.846 78.6623 176.8 78.5143 176.807C78.3664 176.815 78.226 176.875 78.1186 176.977C78.0113 177.08 77.9442 177.218 77.9296 177.365L73.6763 225.551C73.6309 226.034 73.4007 226.48 73.0342 226.796C72.6676 227.112 72.1933 227.273 71.7108 227.245L66.5507 227.055C66.0985 227.021 65.6741 226.823 65.357 226.498C65.0398 226.173 64.8518 225.743 64.8281 225.289L64.4828 167.522L91.2245 164.168L93.0951 193.097V193.128L86.6449 224.977C86.548 225.386 86.3155 225.751 85.9854 226.011C85.6553 226.271 85.2471 226.411 84.8275 226.408Z" fill="#4D4E4E"/>
<path d="M73.2893 104.51C78.4358 104.51 82.6079 100.324 82.6079 95.1613C82.6079 89.9982 78.4358 85.8126 73.2893 85.8126C68.1427 85.8126 63.9706 89.9982 63.9706 95.1613C63.9706 100.324 68.1427 104.51 73.2893 104.51Z" fill="#AB6D64"/>
<path d="M82.0691 171.739C80.6112 171.747 79.1816 171.336 77.9486 170.556C73.4372 167.727 68.296 168.85 65.6401 169.768C65.3766 169.859 65.0959 169.891 64.8188 169.859C64.5417 169.827 64.2752 169.734 64.0389 169.585C63.8051 169.438 63.6075 169.239 63.461 169.005C63.3144 168.77 63.2228 168.505 63.1928 168.23L58.3817 124.989C57.5736 117.756 61.9255 110.928 68.7286 108.788C68.9828 108.708 69.2446 108.632 69.5064 108.56C71.6251 107.981 73.8445 107.876 76.0081 108.253C78.1716 108.629 80.2264 109.477 82.0273 110.737C83.8613 112.008 85.3952 113.668 86.5208 115.598C87.6464 117.528 88.3363 119.682 88.542 121.909L92.5791 165.451C92.6061 165.733 92.5678 166.017 92.4671 166.281C92.3663 166.545 92.206 166.782 91.9986 166.974C90.5909 168.298 86.4552 171.739 82.0691 171.739Z" fill="#F79F28"/>
<path d="M67.3702 134.261L56.4808 133.062C55.9088 132.999 55.3852 132.71 55.0251 132.26C54.6651 131.81 54.4981 131.234 54.5609 130.66C54.5725 130.554 54.5915 130.448 54.6179 130.344L57.3914 119.747C57.6064 118.185 58.4216 116.769 59.6629 115.801C60.9043 114.833 62.4735 114.39 64.0356 114.567C65.5978 114.744 67.0292 115.527 68.0244 116.747C69.0196 117.968 69.4997 119.531 69.3622 121.102L69.7758 132.019C69.7864 132.305 69.7409 132.589 69.6418 132.857C69.5426 133.125 69.3918 133.371 69.198 133.58C69.0042 133.789 68.7712 133.958 68.5122 134.077C68.2533 134.196 67.9735 134.262 67.689 134.273C67.5829 134.282 67.4763 134.282 67.3702 134.273V134.261Z" fill="#F79F28"/>
<path d="M92.5525 167.587C93.3652 166.871 93.8616 165.861 93.9327 164.778C94.0039 163.696 93.6439 162.629 92.9319 161.812C92.7747 161.631 92.6007 161.465 92.4121 161.317L89.7144 125.994L81.8262 127.775L86.4552 162.189C85.8793 163.016 85.6267 164.027 85.7454 165.029C85.8641 166.03 86.3459 166.953 87.099 167.622C87.8521 168.29 88.824 168.658 89.8296 168.654C90.8352 168.65 91.8043 168.276 92.5525 167.602V167.587Z" fill="#AB6D64"/>
<path d="M78.8023 132.042C78.5738 131.829 78.3939 131.569 78.2747 131.28C78.1555 130.991 78.0999 130.68 78.1117 130.367L78.5405 119.45C78.403 117.879 78.8831 116.316 79.8783 115.095C80.8735 113.875 82.3049 113.092 83.8671 112.915C85.4292 112.738 86.9984 113.181 88.2398 114.149C89.4811 115.117 90.2963 116.533 90.5113 118.095L93.2848 128.696C93.3648 128.999 93.3786 129.315 93.3253 129.624C93.2719 129.932 93.1526 130.225 92.9756 130.483C92.7987 130.741 92.5681 130.957 92.2999 131.117C92.0317 131.277 91.7322 131.377 91.4219 131.41L80.5324 132.613C80.2201 132.649 79.9037 132.616 79.605 132.518C79.3063 132.419 79.0325 132.257 78.8023 132.042Z" fill="#F79F28"/>
<path d="M68.0077 94.4001C67.5656 94.5723 67.1741 94.8538 66.8694 95.2184C65.8412 96.5431 65.4883 98.4197 65.1279 99.9651C65.3593 98.983 63.8454 96.9732 63.1663 96.387C62.3353 95.6714 61.1326 94.8644 60.6962 93.8101C60.1385 92.4397 60.7152 90.3843 61.3564 89.1091C62.4643 86.9128 64.5246 85.3026 66.8011 84.3777C69.0777 83.4527 71.5553 83.1634 74.0101 83.1215C76.5902 83.0759 82.2816 82.6305 83.3895 85.8279C83.8979 87.2896 83.0101 89.2004 82.1715 90.3957C81.333 91.5909 79.7167 91.7508 78.3432 91.7089C76.9696 91.667 75.7289 92.0895 74.3213 92.4055C72.158 92.8661 70.0438 93.5341 68.0077 94.4001Z" fill="#4D4E4E"/>
<path d="M294.72 173.574H248.81C247.099 173.574 245.459 172.892 244.249 171.679C243.039 170.465 242.36 168.819 242.36 167.103V97.8905C242.36 96.1743 243.039 94.5284 244.249 93.3149C245.459 92.1013 247.099 91.4196 248.81 91.4196H294.72C296.431 91.4196 298.072 92.1013 299.281 93.3149C300.491 94.5284 301.17 96.1743 301.17 97.8905V167.103C301.17 168.819 300.491 170.465 299.281 171.679C298.072 172.892 296.431 173.574 294.72 173.574ZM248.81 92.1808C247.301 92.1808 245.853 92.7824 244.786 93.8532C243.718 94.9239 243.119 96.3762 243.119 97.8905V167.103C243.119 168.618 243.718 170.07 244.786 171.141C245.853 172.211 247.301 172.813 248.81 172.813H294.72C296.23 172.813 297.677 172.211 298.745 171.141C299.812 170.07 300.412 168.618 300.412 167.103V97.8905C300.412 96.3762 299.812 94.9239 298.745 93.8532C297.677 92.7824 296.23 92.1808 294.72 92.1808H248.81Z" fill="#E1EBF4"/>
<path d="M285.424 108.514H258.106C257.301 108.514 256.529 108.193 255.96 107.622C255.39 107.051 255.071 106.277 255.071 105.469C255.071 104.661 255.39 103.887 255.96 103.316C256.529 102.745 257.301 102.424 258.106 102.424H285.424C286.229 102.424 287.001 102.745 287.571 103.316C288.14 103.887 288.46 104.661 288.46 105.469C288.46 106.277 288.14 107.051 287.571 107.622C287.001 108.193 286.229 108.514 285.424 108.514Z" fill="#E1EBF4"/>
<path d="M285.424 119.934H258.106C257.301 119.934 256.529 119.613 255.96 119.042C255.39 118.471 255.071 117.696 255.071 116.889C255.071 116.081 255.39 115.306 255.96 114.735C256.529 114.164 257.301 113.843 258.106 113.843H285.424C286.229 113.843 287.001 114.164 287.571 114.735C288.14 115.306 288.46 116.081 288.46 116.889C288.46 117.696 288.14 118.471 287.571 119.042C287.001 119.613 286.229 119.934 285.424 119.934Z" fill="#E1EBF4"/>
<path d="M287.701 149.053H255.829C254.974 149.052 254.155 148.711 253.55 148.104C252.945 147.498 252.605 146.675 252.604 145.817V130.592C252.606 129.734 252.947 128.912 253.551 128.306C254.156 127.7 254.975 127.358 255.829 127.356H287.701C288.556 127.358 289.375 127.7 289.979 128.306C290.584 128.912 290.924 129.734 290.926 130.592V145.817C290.925 146.675 290.585 147.498 289.98 148.104C289.376 148.711 288.556 149.052 287.701 149.053Z" fill="#E1EBF4"/>
<path d="M285.424 162.566H258.106C257.301 162.566 256.529 162.245 255.96 161.674C255.39 161.103 255.071 160.328 255.071 159.521C255.071 158.713 255.39 157.939 255.96 157.368C256.529 156.796 257.301 156.476 258.106 156.476H285.424C286.229 156.476 287.001 156.796 287.571 157.368C288.14 157.939 288.46 158.713 288.46 159.521C288.46 160.328 288.14 161.103 287.571 161.674C287.001 162.245 286.229 162.566 285.424 162.566Z" fill="#E1EBF4"/>
<path d="M266.643 63.5677H220.733C219.022 63.5677 217.382 62.886 216.172 61.6724C214.962 60.4589 214.283 58.813 214.283 57.0968V14.1486C214.283 12.4324 214.962 10.7865 216.172 9.57292C217.382 8.35937 219.022 7.67761 220.733 7.67761H266.643C268.354 7.67761 269.994 8.35937 271.204 9.57292C272.414 10.7865 273.093 12.4324 273.093 14.1486V57.0968C273.093 58.813 272.414 60.4589 271.204 61.6724C269.994 62.886 268.354 63.5677 266.643 63.5677ZM220.733 8.4389C219.223 8.4389 217.776 9.04046 216.708 10.1112C215.641 11.182 215.041 12.6343 215.041 14.1486V57.0968C215.041 58.6111 215.641 60.0634 216.708 61.1341C217.776 62.2049 219.223 62.8065 220.733 62.8065H266.643C268.152 62.8065 269.6 62.2049 270.667 61.1341C271.735 60.0634 272.334 58.6111 272.334 57.0968V14.1486C272.334 12.6343 271.735 11.182 270.667 10.1112C269.6 9.04046 268.152 8.4389 266.643 8.4389H220.733Z" fill="#E1EBF4"/>
<path d="M257.347 50.0853H230.029C229.224 50.0853 228.452 49.7645 227.882 49.1934C227.313 48.6223 226.993 47.8478 226.993 47.0402C226.993 46.2325 227.313 45.458 227.882 44.8869C228.452 44.3158 229.224 43.995 230.029 43.995H257.347C258.152 43.995 258.924 44.3158 259.493 44.8869C260.063 45.458 260.382 46.2325 260.382 47.0402C260.382 47.8478 260.063 48.6223 259.493 49.1934C258.924 49.7645 258.152 50.0853 257.347 50.0853Z" fill="#E1EBF4"/>
<path d="M257.347 38.6659H230.029C229.224 38.6659 228.452 38.3451 227.882 37.774C227.313 37.2029 226.993 36.4283 226.993 35.6207C226.993 34.8131 227.313 34.0385 227.882 33.4675C228.452 32.8964 229.224 32.5756 230.029 32.5756H257.347C258.152 32.5756 258.924 32.8964 259.493 33.4675C260.063 34.0385 260.382 34.8131 260.382 35.6207C260.382 36.4283 260.063 37.2029 259.493 37.774C258.924 38.3451 258.152 38.6659 257.347 38.6659Z" fill="#E1EBF4"/>
<path d="M257.347 27.2466H230.029C229.224 27.2466 228.452 26.9257 227.882 26.3547C227.313 25.7836 226.993 25.009 226.993 24.2014C226.993 23.3938 227.313 22.6192 227.882 22.0482C228.452 21.4771 229.224 21.1562 230.029 21.1562H257.347C258.152 21.1562 258.924 21.4771 259.493 22.0482C260.063 22.6192 260.382 23.3938 260.382 24.2014C260.382 25.009 260.063 25.7836 259.493 26.3547C258.924 26.9257 258.152 27.2466 257.347 27.2466Z" fill="#E1EBF4"/>
<path d="M199.432 47.4208C204.252 47.4208 208.159 43.5011 208.159 38.666C208.159 33.8308 204.252 29.9111 199.432 29.9111C194.612 29.9111 190.705 33.8308 190.705 38.666C190.705 43.5011 194.612 47.4208 199.432 47.4208Z" fill="#3778B8"/>
<path d="M198.567 42.008C198.371 42.0075 198.181 41.9434 198.024 41.8253L195.976 40.2494C195.874 40.1792 195.788 40.0891 195.722 39.9844C195.656 39.8797 195.612 39.7628 195.593 39.6405C195.573 39.5183 195.579 39.3934 195.609 39.2734C195.639 39.1534 195.693 39.0409 195.768 38.9425C195.843 38.8442 195.937 38.7621 196.045 38.7013C196.152 38.6405 196.271 38.6022 196.393 38.5888C196.516 38.5754 196.64 38.5872 196.758 38.6233C196.876 38.6595 196.985 38.7193 197.08 38.7992L198.408 39.8231L201.545 35.716C201.618 35.6203 201.709 35.54 201.812 35.4796C201.916 35.4192 202.031 35.3799 202.149 35.364C202.268 35.3481 202.389 35.3558 202.505 35.3869C202.62 35.4179 202.729 35.4715 202.824 35.5447V35.5713V35.5447C203.015 35.693 203.14 35.9108 203.172 36.1509C203.204 36.391 203.14 36.634 202.995 36.8274L199.299 41.6578C199.212 41.7688 199.101 41.8581 198.974 41.9188C198.847 41.9796 198.708 42.0101 198.567 42.008Z" fill="white"/>
<path d="M299.273 102.394C304.093 102.394 308 98.4739 308 93.6388C308 88.8036 304.093 84.8839 299.273 84.8839C294.454 84.8839 290.547 88.8036 290.547 93.6388C290.547 98.4739 294.454 102.394 299.273 102.394Z" fill="#E1EBF4"/>
<path d="M298.408 96.977C298.212 96.9778 298.02 96.9151 297.862 96.7981L295.809 95.2222C295.714 95.1492 295.634 95.0582 295.574 94.9542C295.514 94.8502 295.475 94.7354 295.459 94.6163C295.443 94.4972 295.451 94.3761 295.482 94.26C295.512 94.1438 295.566 94.0349 295.638 93.9394C295.711 93.844 295.802 93.7638 295.906 93.7035C296.009 93.6433 296.124 93.604 296.242 93.5881C296.361 93.5722 296.482 93.5799 296.598 93.6108C296.713 93.6417 296.822 93.6952 296.917 93.7682L298.226 94.7807L301.364 90.6735C301.437 90.5782 301.528 90.4982 301.632 90.4381C301.735 90.3781 301.85 90.3392 301.969 90.3236C302.087 90.308 302.208 90.3162 302.324 90.3475C302.439 90.3788 302.548 90.4327 302.643 90.506L302.62 90.5327L302.643 90.506C302.738 90.5792 302.817 90.6704 302.877 90.7745C302.937 90.8786 302.976 90.9935 302.991 91.1127C303.007 91.2318 302.999 91.3529 302.968 91.4689C302.936 91.5849 302.883 91.6936 302.81 91.7888L299.118 96.6192C299.034 96.7291 298.927 96.8185 298.804 96.8805C298.681 96.9426 298.546 96.9756 298.408 96.977Z" fill="white"/>
<path d="M271.575 17.5097C276.395 17.5097 280.302 13.59 280.302 8.75484C280.302 3.91968 276.395 0 271.575 0C266.756 0 262.849 3.91968 262.849 8.75484C262.849 13.59 266.756 17.5097 271.575 17.5097Z" fill="#E1EBF4"/>
<path d="M270.71 12.0931C270.509 12.0972 270.311 12.0343 270.149 11.9142L268.096 10.3383C267.904 10.1914 267.778 9.97396 267.745 9.73375C267.713 9.49354 267.777 9.25027 267.923 9.05745C268.07 8.86462 268.287 8.73805 268.526 8.70557C268.766 8.67309 269.008 8.73736 269.2 8.88425L270.528 9.89677L273.666 5.78961C273.739 5.69425 273.83 5.61426 273.934 5.55421C274.037 5.49417 274.152 5.45525 274.271 5.4397C274.39 5.42414 274.51 5.43224 274.626 5.46355C274.741 5.49485 274.85 5.54874 274.945 5.62212L274.922 5.64877L274.945 5.62212C275.04 5.69525 275.119 5.78648 275.179 5.89058C275.239 5.99468 275.278 6.1096 275.293 6.22876C275.309 6.34792 275.301 6.46898 275.27 6.585C275.238 6.70103 275.185 6.80973 275.112 6.9049L271.42 11.7353C271.337 11.8452 271.229 11.9346 271.106 11.9966C270.983 12.0586 270.848 12.0916 270.71 12.0931Z" fill="white"/>
<path d="M144.939 236H0.379422C0.278793 236 0.182286 235.96 0.11113 235.889C0.0399748 235.817 0 235.72 0 235.619C0 235.518 0.0399748 235.422 0.11113 235.35C0.182286 235.279 0.278793 235.239 0.379422 235.239H144.939C145.04 235.239 145.137 235.279 145.208 235.35C145.279 235.422 145.319 235.518 145.319 235.619C145.319 235.72 145.279 235.817 145.208 235.889C145.137 235.96 145.04 236 144.939 236Z" fill="#4D4E4E"/>
</g>
<defs>
<clipPath id="clip0_108_2">
<rect width="308" height="236" fill="white"/>
</clipPath>
</defs>
</svg>
