<svg xmlns="http://www.w3.org/2000/svg" width="1287" height="549" fill="none" viewBox="0 0 1287 549"><g clip-path="url(#clip0_82_151)"><path fill="#3778B8" d="M58.3626 330.481V425.908C58.3626 442.166 64.822 457.758 76.3198 469.255C87.8176 480.751 103.412 487.209 119.672 487.209C135.933 487.209 151.527 480.751 163.025 469.255C174.523 457.758 180.982 442.166 180.982 425.908V424.61H239.345V425.908C239.345 457.643 226.736 488.078 204.293 510.518C181.85 532.958 151.411 545.565 119.672 545.565C87.9332 545.565 57.4941 532.958 35.0512 510.518C12.6083 488.078 0 457.643 0 425.908V272.141H272.679V330.481H58.3626Z"/><path fill="#C83898" d="M29.1813 238.811C45.2977 238.811 58.3626 225.747 58.3626 209.633C58.3626 193.519 45.2977 180.455 29.1813 180.455C13.0649 180.455 0 193.519 0 209.633C0 225.747 13.0649 238.811 29.1813 238.811Z"/><path fill="#F79F28" d="M119.672 238.811C135.789 238.811 148.854 225.747 148.854 209.633C148.854 193.519 135.789 180.455 119.672 180.455C103.556 180.455 90.491 193.519 90.491 209.633C90.491 225.747 103.556 238.811 119.672 238.811Z"/><path fill="#3778B8" d="M210.163 238.811C226.28 238.811 239.345 225.747 239.345 209.633C239.345 193.519 226.28 180.455 210.163 180.455C194.047 180.455 180.982 193.519 180.982 209.633C180.982 225.747 194.047 238.811 210.163 238.811Z"/><path fill="#3778B8" d="M432.176 545.885C507.69 545.885 568.905 484.677 568.905 409.173C568.905 333.67 507.69 272.462 432.176 272.462C356.663 272.462 295.447 333.67 295.447 409.173C295.447 484.677 356.663 545.885 432.176 545.885Z"/><path fill="#4D4E4E" d="M806.249 545.794C807.837 545.855 809.426 545.885 811.014 545.885C814.434 545.885 817.824 545.758 821.184 545.504L806.249 545.794Z"/><path fill="#3778B8" d="M947.743 409.173C947.749 443.673 934.707 476.899 911.234 502.184C887.761 527.47 855.592 542.945 821.184 545.504L806.249 545.794L663.351 549L662.175 486.767L725.073 485.576L806.723 483.53C808.158 483.606 809.609 483.652 811.06 483.652C813.472 483.652 815.854 483.53 818.206 483.316C837.262 481.5 854.887 472.419 867.425 457.957C879.963 443.494 886.451 424.761 885.544 405.642C884.636 386.524 876.403 368.489 862.551 355.279C848.699 342.069 830.293 334.698 811.151 334.695H811.06C810.189 334.695 809.334 334.695 808.464 334.695L722.416 336.833L663.351 337.947L662.175 275.729L806.692 272.492H810.449H811.06C829.016 272.49 846.796 276.025 863.386 282.895C879.975 289.764 895.049 299.834 907.746 312.53C920.443 325.225 930.514 340.297 937.385 356.884C944.255 373.472 947.791 391.25 947.789 409.204L947.743 409.173Z"/><path fill="#4D4E4E" d="M818.16 483.316C815.809 483.53 813.426 483.652 811.014 483.652C809.487 483.652 808.112 483.652 806.677 483.53L818.16 483.316Z"/><path fill="#3778B8" d="M660.193 383.668L663.31 548.993L721.586 547.895L718.469 382.569L660.193 383.668Z"/><path fill="#C83898" d="M1285.91 272.111L1013.78 277.24L1014.88 335.509L1287.01 330.379L1285.91 272.111Z"/><path fill="#F79F28" d="M1221.79 378.33L1013.79 382.251L1014.89 440.52L1222.89 436.599L1221.79 378.33Z"/><path fill="#3778B8" d="M1285.92 485.568L1013.79 490.698L1014.89 548.966L1287.02 543.837L1285.92 485.568Z"/><path fill="#3778B8" d="M946.445 408.593C945.443 410.71 943.957 412.561 942.108 413.998C935.725 419.189 926.96 421.312 918.852 420.915C909.418 420.229 900.222 417.631 891.823 413.281C883.364 409.006 885.929 404.593 884.188 395.676C881.328 380.436 873.823 366.452 862.703 355.643C855.415 348.393 846.62 342.836 836.942 339.367C826.788 335.978 823.581 332.71 825.047 320.373C827.49 300.006 848.945 275.683 870.094 285.867C890.279 295.569 907.777 310.072 921.054 328.106C934.33 346.141 942.98 367.156 946.246 389.309C947.376 396.409 949.025 402.975 946.445 408.593Z"/><path fill="#4D4E4E" d="M775.74 0.0305715C776.427 0.0305715 777.114 0.030551 777.801 0.152697C788.124 1.02299 799.531 3.35904 808.738 8.22961C811.588 9.72128 814.116 11.761 816.176 14.2318C818.235 16.7026 819.787 19.5558 820.741 22.6275C822.008 27.4828 823.993 33.3153 823.795 38.3386C823.016 52.8739 816.816 63.3785 809.349 75.5473C806.017 81.0293 801.368 85.5915 795.823 88.8187C790.278 92.0459 784.015 93.8358 777.602 94.0255C771.189 94.2151 764.83 92.7985 759.105 89.9047C753.379 87.0108 748.467 82.7314 744.817 77.4558C739.427 69.6842 737.259 61.0119 732.953 52.8892C729.196 45.8505 729.181 38.5218 731.09 30.7961C733.182 22.2611 738.648 15.2835 745.321 9.77167C753.445 2.99257 765.066 -0.366403 775.74 0.0305715Z"/><path fill="#CC8169" d="M739.839 302.555L738.816 285.119L805.623 272.889L807.12 298.631L739.839 302.555Z"/><path fill="#3778B8" d="M743.077 272.37L745.047 305.96L723.867 307.197L720.66 252.384C723.445 252.221 726.235 252.609 728.87 253.526C731.505 254.442 733.933 255.87 736.016 257.727C738.098 259.583 739.794 261.832 741.005 264.345C742.217 266.858 742.921 269.585 743.077 272.37Z"/><path fill="#CC8169" d="M768.899 302.403L757.797 315.9L700.458 279.531L716.827 259.606L768.899 302.403Z"/><path fill="#4D4E4E" d="M746.009 322.358L767.387 296.402L783.802 309.762L748.94 352.177C744.605 348.606 741.863 343.463 741.313 337.873C740.763 332.284 742.452 326.705 746.009 322.358Z"/><path fill="#3778B8" d="M736.969 239.635L729.334 275.378C729.179 276.11 729.17 276.865 729.308 277.6C729.445 278.335 729.726 279.036 730.135 279.663C730.543 280.29 731.071 280.83 731.688 281.252C732.305 281.675 732.999 281.972 733.731 282.126C734.087 282.206 734.451 282.247 734.816 282.249L809.349 283.455C810.861 283.479 812.321 282.903 813.409 281.853C814.497 280.802 815.124 279.363 815.152 277.851C815.152 277.488 815.122 277.125 815.06 276.767L808.54 239.818C808.31 238.5 807.621 237.305 806.596 236.445C805.571 235.584 804.274 235.114 802.936 235.116H742.542C741.236 235.115 739.969 235.564 738.954 236.387C737.939 237.21 737.238 238.357 736.969 239.635Z"/><path fill="#4D4E4E" d="M749.322 252.216C749.322 252.216 676.636 206.61 662.389 230.841C655.258 242.948 658.816 254.705 664.161 263.438C669.125 271.374 676.25 277.729 684.699 281.76L743.626 310.602L765.005 287.791L750.742 274.966L749.322 252.216Z"/><path fill="#4D4E4E" d="M786.383 245.086C786.383 245.086 880.447 218.015 861.909 269.316C843.371 320.618 773.556 300.601 773.556 300.601L766.425 279.226L790.659 262.125L786.383 245.086Z"/><path fill="#CC8169" d="M776.885 99.3351C796.214 99.3351 811.884 83.6674 811.884 64.3404C811.884 45.0133 796.214 29.3456 776.885 29.3456C757.555 29.3456 741.886 45.0133 741.886 64.3404C741.886 83.6674 757.555 99.3351 776.885 99.3351Z"/><path fill="#F79F28" d="M778.717 250.75C764.173 250.519 749.703 248.614 735.594 245.07L735.182 244.948L715.652 155.11C713.89 147.216 715.082 138.95 719.001 131.875C722.921 124.8 729.296 119.405 736.923 116.71C760.483 108.262 786.16 107.753 810.036 115.26C818.05 117.838 824.797 123.343 828.93 130.676C833.062 138.009 834.277 146.631 832.331 154.82L810.51 244.902L810.204 245.055C801.134 249.315 789.788 250.75 778.717 250.75Z"/><path fill="#FFB8B8" d="M752.483 257.728C753.769 254.155 756.422 251.238 759.859 249.621C763.295 248.003 767.233 247.816 770.807 249.101C771.603 249.377 772.37 249.73 773.098 250.155L811.563 216.778L815.045 243.009L777.984 270.691C776.023 273.617 773.057 275.723 769.648 276.612C766.239 277.5 762.622 277.11 759.481 275.514C756.341 273.919 753.893 271.228 752.601 267.951C751.308 264.674 751.261 261.037 752.468 257.728H752.483Z"/><path fill="#F79F28" d="M789.162 265.011C788.536 265.012 787.913 264.919 787.314 264.736C786.343 264.45 785.454 263.936 784.721 263.238C783.988 262.54 783.432 261.677 783.1 260.72L778.519 247.574C778.083 246.359 778.026 245.04 778.356 243.791C778.686 242.543 779.387 241.423 780.367 240.582L832.774 209.129L812.113 116.985L812.632 116.863C812.846 116.863 834.011 111.992 842.699 135.109C848.807 151.308 871.239 186.517 869.651 210.32C869.355 215.081 867.46 219.603 864.273 223.153C861.086 226.703 856.793 229.073 852.09 229.879L793.102 263.682C791.975 264.556 790.587 265.024 789.162 265.011Z"/><path fill="#FFB8B8" d="M795.041 254.598C793.755 251.025 791.102 248.108 787.665 246.491C784.229 244.873 780.291 244.686 776.717 245.971C775.923 246.254 775.157 246.606 774.426 247.025L735.961 213.648L732.479 239.879L769.54 267.561C771.502 270.487 774.467 272.593 777.876 273.482C781.285 274.37 784.902 273.98 788.043 272.384C791.184 270.789 793.631 268.098 794.924 264.821C796.216 261.544 796.263 257.907 795.056 254.598H795.041Z"/><path fill="#F79F28" d="M762.21 265.011C760.806 265.008 759.443 264.541 758.332 263.682L695.067 232.734C690.368 231.92 686.08 229.548 682.894 226C679.709 222.451 677.811 217.934 677.507 213.175C675.98 189.372 702.672 151.308 708.749 135.109C717.423 111.992 738.587 116.787 738.801 116.863L739.32 116.985L714.399 212.045L771.067 240.643C772.049 241.483 772.753 242.601 773.085 243.85C773.418 245.098 773.364 246.418 772.93 247.636L768.349 260.781C767.898 262.04 767.069 263.127 765.975 263.895C764.882 264.664 763.577 265.075 762.241 265.072L762.21 265.011Z"/><path fill="#C83898" d="M837.691 279.226H710.841C708.197 279.226 705.661 278.175 703.791 276.305C701.921 274.436 700.87 271.9 700.87 269.255V199.495C700.87 196.849 701.92 194.312 703.79 192.439C705.659 190.567 708.195 189.513 710.841 189.509H837.691C840.335 189.517 842.869 190.573 844.738 192.444C846.607 194.315 847.658 196.85 847.662 199.495V269.316C847.646 271.95 846.588 274.47 844.72 276.327C842.852 278.184 840.325 279.226 837.691 279.226Z"/><path fill="#fff" d="M774.274 242.948C778.996 242.948 782.825 239.12 782.825 234.398C782.825 229.676 778.996 225.848 774.274 225.848C769.551 225.848 765.722 229.676 765.722 234.398C765.722 239.12 769.551 242.948 774.274 242.948Z"/><path fill="#4D4E4E" d="M740.878 51.7288C745.306 43.6671 752.819 45.1024 760.011 47.072C767.524 49.1332 773.754 53.4388 781.649 52.4464C789.109 51.4968 796.212 48.6937 802.31 44.2931C803.554 43.5524 804.536 42.4423 805.119 41.1173C806.112 38.0637 802.065 36.8117 800.538 34.9032C797.271 31.1975 793.044 28.4658 788.322 27.0095C777.908 23.3451 765.875 23.2382 756.255 28.5363C746.635 33.8344 740.007 45.2245 742.008 56.0191"/><path fill="#4D4E4E" d="M1058.25 261.545C1060.14 241.229 1065.35 221.361 1073.68 202.732C1076 197.561 1078.54 192.471 1081.31 187.463C1081.45 187.199 1081.48 186.892 1081.39 186.607C1081.31 186.322 1081.11 186.082 1080.85 185.937C1080.6 185.791 1080.29 185.75 1080.01 185.825C1079.72 185.899 1079.48 186.081 1079.33 186.334C1069.18 204.391 1062.08 223.992 1058.3 244.353C1057.25 250.048 1056.45 255.758 1055.92 261.53C1055.79 262.98 1058.05 262.965 1058.19 261.53L1058.25 261.545Z"/><path fill="#F79F28" d="M1086.84 191.158C1094.77 191.158 1101.21 184.726 1101.21 176.791C1101.21 168.856 1094.77 162.424 1086.84 162.424C1078.9 162.424 1072.47 168.856 1072.47 176.791C1072.47 184.726 1078.9 191.158 1086.84 191.158Z"/><path fill="#4D4E4E" d="M1059.72 261.927C1060.95 248.741 1064.33 235.847 1069.74 223.756C1071.26 220.397 1072.9 217.099 1074.7 213.893C1074.8 213.725 1074.83 213.524 1074.78 213.335C1074.73 213.146 1074.61 212.984 1074.44 212.885C1074.27 212.786 1074.07 212.757 1073.88 212.806C1073.69 212.855 1073.53 212.977 1073.43 213.145C1066.85 224.851 1062.24 237.562 1059.8 250.765C1059.1 254.46 1058.59 258.176 1058.27 261.911C1058.16 262.873 1059.64 262.858 1059.72 261.927Z"/><path fill="#C83898" d="M1078.27 216.275C1083.43 216.275 1087.6 212.098 1087.6 206.946C1087.6 201.793 1083.43 197.617 1078.27 197.617C1073.12 197.617 1068.94 201.793 1068.94 206.946C1068.94 212.098 1073.12 216.275 1078.27 216.275Z"/><path fill="#4D4E4E" d="M1057.87 261.041C1050.72 249.9 1045.46 237.659 1042.28 224.81C1041.42 221.237 1040.7 217.623 1040.14 213.969C1040.12 213.767 1040.01 213.583 1039.85 213.458C1039.69 213.334 1039.48 213.279 1039.28 213.305C1039.08 213.331 1038.89 213.437 1038.77 213.599C1038.64 213.76 1038.59 213.965 1038.62 214.168C1040.63 227.444 1044.81 240.298 1051 252.216C1052.74 255.545 1054.62 258.792 1056.65 261.957C1057.15 262.751 1058.31 261.835 1057.81 261.041H1057.87Z"/><path fill="#3778B8" d="M1038.72 215.668C1043.87 215.623 1048.02 211.41 1047.97 206.258C1047.93 201.106 1043.71 196.966 1038.56 197.011C1033.41 197.056 1029.27 201.269 1029.31 206.421C1029.36 211.573 1033.57 215.713 1038.72 215.668Z"/><path fill="#4D4E4E" d="M1029.24 269.301V250.979C1029.24 250.076 1029.41 249.182 1029.76 248.348C1030.1 247.513 1030.61 246.755 1031.25 246.117C1031.89 245.478 1032.64 244.972 1033.48 244.627C1034.31 244.283 1035.21 244.107 1036.11 244.109H1078.87C1080.69 244.113 1082.43 244.838 1083.72 246.125C1085.01 247.413 1085.74 249.158 1085.74 250.979V269.301C1085.73 271.121 1085 272.864 1083.72 274.151C1082.43 275.437 1080.69 276.164 1078.87 276.172H1036.11C1034.29 276.168 1032.54 275.443 1031.26 274.155C1029.97 272.867 1029.24 271.122 1029.24 269.301Z"/></g><defs><clipPath id="clip0_82_151"><rect width="1287" height="549" fill="#fff"/></clipPath></defs></svg>