<svg xmlns="http://www.w3.org/2000/svg" width="219" height="190" fill="none" viewBox="0 0 219 190"><g clip-path="url(#clip0_128_140)"><path fill="#E1EBF4" d="M150.536 58.7318C150.527 63.0246 149.247 67.2184 146.858 70.7828C144.469 74.3471 141.078 77.1221 137.115 78.7567C133.151 80.3913 128.793 80.8121 124.59 79.9661C120.388 79.12 116.531 77.045 113.506 74.0034C110.481 70.9618 108.424 67.0902 107.596 62.8782C106.768 58.6662 107.206 54.3029 108.854 50.34C110.502 46.3771 113.287 42.9926 116.855 40.6144C120.424 38.2363 124.616 36.9712 128.903 36.9793C131.742 36.9768 134.553 37.5344 137.177 38.6203C139.8 39.7061 142.185 41.299 144.194 43.3079C146.203 45.3167 147.797 47.7022 148.885 50.3282C149.973 52.9541 150.534 55.769 150.536 58.6122V58.7318Z"/><path fill="#AB6D64" d="M186.607 71.3808L189.656 65.5539C186.922 62.2502 177.957 58.2423 177.957 58.2423L165.821 47.1785C165.693 46.6845 165.437 46.2331 165.079 45.8699C164.721 45.5066 164.274 45.2442 163.782 45.1092C163.291 44.9742 162.772 44.9713 162.279 45.1008C161.786 45.2303 161.336 45.4876 160.974 45.8469C160.612 46.2061 160.351 46.6546 160.217 47.1471C160.083 47.6396 160.082 48.1587 160.212 48.6521C160.342 49.1456 160.6 49.5959 160.959 49.9578C161.319 50.3196 161.767 50.5802 162.259 50.7132L175.37 66.4621L186.607 71.3808Z"/><path fill="#F79F28" d="M185.13 70.9676L189.434 72.3271C192.563 73.3247 195.936 73.2491 199.018 72.1123C199.95 71.7653 200.766 71.1639 201.374 70.3763C201.983 69.5887 202.359 68.6463 202.46 67.6558C202.583 66.3153 202.195 64.978 201.373 63.9126C200.552 62.8472 199.358 62.1328 198.032 61.9131C193.998 61.2496 188.801 60.9206 186.941 63.1312L186.925 63.1557L185.13 70.9676Z"/><path fill="#fff" d="M154.182 88.8209C166.152 88.8209 175.856 79.1027 175.856 67.1146C175.856 55.1266 166.152 45.4083 154.182 45.4083C142.212 45.4083 132.508 55.1266 132.508 67.1146C132.508 79.1027 142.212 88.8209 154.182 88.8209Z"/><path fill="#4D4E4E" d="M145.337 58.6231C145.041 60.2228 144.557 61.7817 143.895 63.2672C140.07 71.3673 150.954 68.7271 154.85 68.7271C159.104 68.7271 163.174 70.9676 162.552 61.0131C162.276 56.7605 159.099 53.2937 154.839 53.2937C151.204 53.2937 146.097 54.9251 145.337 58.6231Z"/><path fill="#E1EBF4" d="M154.182 89.0929C149.842 89.0934 145.598 87.8049 141.989 85.3902C138.38 82.9755 135.567 79.5432 133.905 75.5272C132.244 71.5113 131.809 67.0921 132.655 62.8286C133.502 58.5651 135.592 54.6487 138.661 51.5747C141.73 48.5007 145.64 46.4072 149.897 45.559C154.154 44.7107 158.567 45.1458 162.577 46.8092C166.587 48.4726 170.015 51.2896 172.426 54.904C174.838 58.5183 176.125 62.7677 176.125 67.1147C176.118 72.9412 173.804 78.5273 169.691 82.6475C165.577 86.7677 160 89.0857 154.182 89.0929ZM154.182 45.6803C149.949 45.6798 145.811 46.9364 142.291 49.2913C138.771 51.6462 136.027 54.9936 134.407 58.9102C132.787 62.8268 132.362 67.1366 133.188 71.2946C134.013 75.4527 136.052 79.2722 139.045 82.2701C142.038 85.268 145.851 87.3097 150.003 88.137C154.155 88.9643 158.458 88.5399 162.369 86.9177C166.28 85.2955 169.623 82.5482 171.975 79.0233C174.326 75.4983 175.582 71.3541 175.582 67.1147C175.576 61.4322 173.32 55.984 169.308 51.9656C165.296 47.9472 159.856 45.6868 154.182 45.6803Z"/><path fill="#AB6D64" d="M154.201 68.7243C157.657 68.7243 160.459 65.9183 160.459 62.4569C160.459 58.9955 157.657 56.1895 154.201 56.1895C150.745 56.1895 147.943 58.9955 147.943 62.4569C147.943 65.9183 150.745 68.7243 154.201 68.7243Z"/><path fill="#4D4E4E" d="M149.949 56.0671C151.046 55.3966 152.303 55.0337 153.588 55.0164C154.872 54.9991 156.138 55.328 157.253 55.9687C158.367 56.6094 159.289 57.5383 159.922 58.6583C160.555 59.7782 160.875 61.0479 160.85 62.3345C157.663 63.1366 154.31 63.7484 150.911 62.5248L150.096 60.5562L149.632 62.5384C148.597 62.9626 147.557 63.3215 146.52 62.5384C146.476 61.2535 146.769 59.9795 147.371 58.8438C147.973 57.7081 148.862 56.7506 149.949 56.0671Z"/><path fill="#3778B8" d="M171.045 81.5475C167.29 85.83 162.004 88.4613 156.328 88.8729C150.652 89.2845 145.042 87.4434 140.71 83.7472L142.57 78.5511C142.989 77.6275 143.652 76.8358 144.487 76.261C145.321 75.6861 146.297 75.3498 147.308 75.2882L148.491 75.2148L151.31 72.7676C151.31 72.7676 158.912 72.4957 158.795 72.3679L163.41 75.1386V75.1196L165.221 75.2311C166.232 75.2927 167.208 75.629 168.042 76.2039C168.877 76.7787 169.54 77.5704 169.959 78.494L171.045 81.5475Z"/><path fill="#E1EBF4" d="M152.279 170.986L151.736 163.486C148.208 161.72 144.303 160.843 140.36 160.93C145.907 165.224 145.464 173.808 149.32 179.692C150.531 181.514 152.136 183.04 154.016 184.156C155.895 185.273 158.002 185.951 160.18 186.142L164.795 188.801C165.322 185.304 165.085 181.734 164.102 178.338C163.118 174.941 161.412 171.798 159.099 169.126C157.787 167.639 156.294 166.324 154.655 165.21C153.669 168.106 152.279 170.986 152.279 170.986Z"/><path fill="#E1EBF4" d="M11.9134 38.0234L11.3704 30.5242C7.84431 28.7586 3.94131 27.8813 0 27.9683C5.54674 32.2617 5.1042 40.8458 8.9595 46.7298C10.1705 48.552 11.7755 50.0779 13.6555 51.1943C15.5354 52.3108 17.6421 52.9893 19.8195 53.1795L24.435 55.8387C24.9607 52.3414 24.7233 48.7714 23.739 45.3748C22.7548 41.9782 21.047 38.8357 18.7335 36.1636C17.4218 34.6769 15.9286 33.3614 14.289 32.2481C13.3035 35.1439 11.9134 38.0234 11.9134 38.0234Z"/><path fill="#AB6D64" d="M172.476 186.256H168.873L167.16 172.345H172.476V186.256Z"/><path fill="#4D4E4E" d="M173.393 189.75H161.781V189.603C161.782 188.403 162.259 187.252 163.106 186.404C163.954 185.555 165.103 185.078 166.302 185.078L168.422 183.466L172.381 185.078H173.393V189.75Z"/><path fill="#AB6D64" d="M204.211 186.256H200.611L198.898 172.345H204.214L204.211 186.256Z"/><path fill="#4D4E4E" d="M205.132 189.75H193.52V189.603C193.52 189.009 193.637 188.42 193.864 187.871C194.091 187.322 194.424 186.823 194.844 186.403C195.264 185.983 195.762 185.649 196.311 185.422C196.859 185.195 197.447 185.078 198.04 185.078L200.161 183.466L204.119 185.078H205.132V189.75Z"/><path fill="#4D4E4E" d="M198.738 111.805L201.768 140.627C201.768 140.627 205.797 169.474 205.039 173.457C204.282 177.441 205.23 178.006 205.23 178.006L198.32 177.514C198.32 177.514 198.51 175.048 197.372 173.911C196.235 172.775 196.805 169.362 196.805 169.362L183.404 122.42L175.259 147.066C175.259 147.066 173.936 174.178 173.76 174.564C173.583 174.95 173.002 180.062 173.002 180.062H165.998C165.998 180.062 166.945 177.03 165.618 176.081C164.29 175.132 163.158 175.891 164.293 174.178C165.428 172.465 165.808 170.371 165.43 169.438C165.053 168.506 165.05 164.699 165.05 164.699C165.05 164.699 165.618 113.51 168.851 111.805C172.085 110.1 198.738 111.805 198.738 111.805Z"/><path fill="#AB6D64" d="M184.392 53.4568C188.506 53.4568 191.842 50.1163 191.842 45.9957C191.842 41.875 188.506 38.5345 184.392 38.5345C180.277 38.5345 176.942 41.875 176.942 45.9957C176.942 50.1163 180.277 53.4568 184.392 53.4568Z"/><path fill="#F79F28" d="M201.309 114.946C186.884 117.937 167.765 112.798 167.765 112.798L172.864 90.6563L171.045 67.4872C170.825 64.6539 172.435 61.9974 174.944 61.0566L178.405 59.7569L181.267 55.6538L189.439 55.9257L192.697 60.2327L195.276 61.5922L200.867 64.5615H200.891V64.5751L199.137 81.6154L198.092 91.9044C198.092 91.9044 201.306 103.46 200.647 104.991C199.987 106.522 200.56 105.782 200.72 106.601C200.88 107.419 201.369 107.471 201.442 109.083C201.515 110.696 201.309 114.946 201.309 114.946Z"/><path fill="#4D4E4E" d="M218.75 190H107.308C107.241 190 107.178 189.974 107.131 189.927C107.084 189.88 107.058 189.816 107.058 189.75C107.058 189.684 107.084 189.62 107.131 189.573C107.178 189.526 107.241 189.5 107.308 189.5H218.75C218.816 189.5 218.88 189.526 218.927 189.573C218.974 189.62 219 189.684 219 189.75C219 189.816 218.974 189.88 218.927 189.927C218.88 189.974 218.816 190 218.75 190Z"/><path fill="#4D4E4E" d="M184.031 53.0979C185.337 53.0841 186.639 52.9595 187.924 52.7254C189.197 52.4317 191.997 50.2564 192.77 48.973C193.338 48.0187 193.68 46.5422 193.856 45.4709C194.108 44.0546 194.06 42.6013 193.714 41.2049C193.369 39.8086 192.735 38.5005 191.853 37.3654C191.513 36.8894 191.051 36.5138 190.517 36.2777L190.37 36.2342C189.595 36.05 188.892 35.6393 188.35 35.0542C188.247 34.9342 188.133 34.8232 188.011 34.7224C187.405 34.2353 186.692 33.8989 185.931 33.7409C184.701 33.4445 182.945 33.817 180.705 34.8448C179.578 35.3587 178.332 35.2173 177.368 35.0324C177.314 35.0239 177.259 35.0295 177.207 35.0485C177.156 35.0676 177.11 35.0995 177.075 35.1412C176.679 35.535 176.148 35.7634 175.59 35.7801C175.248 35.8046 174.9 36.2886 174.482 36.9167C174.39 37.0608 174.279 37.2267 174.197 37.33L174.181 37.137L173.993 37.3572C173.697 37.7011 173.493 38.1144 173.399 38.5588C173.306 39.0031 173.326 39.4639 173.458 39.8983C173.591 40.3327 173.83 40.7264 174.156 41.0428C174.481 41.3592 174.881 41.5879 175.318 41.7077C175.665 41.7902 176.019 41.8375 176.374 41.8491C176.589 41.8491 176.812 41.8763 177.026 41.9062C177.715 42.0294 178.36 42.3291 178.898 42.776C179.437 43.223 179.851 43.802 180.099 44.4567C180.201 44.7161 180.4 44.925 180.654 45.0385C180.908 45.152 181.197 45.1608 181.457 45.063C181.543 45.0301 181.625 44.9852 181.699 44.9298C181.917 44.7511 182.175 44.6277 182.451 44.57C182.727 44.5122 183.013 44.5219 183.284 44.5981C183.519 44.7228 183.705 44.9243 183.811 45.1691C183.939 45.4415 184.145 45.6696 184.403 45.8244C185.28 46.2485 185.391 48.2307 185.122 49.903C184.864 51.5045 184.308 52.671 183.765 52.7417C183.344 52.796 183.298 52.8287 183.268 52.9048L183.243 52.9728L183.292 53.0326C183.531 53.1078 183.783 53.1301 184.031 53.0979Z"/><path fill="#fff" d="M78.4336 43.6844C90.4037 43.6844 100.107 33.9662 100.107 21.9781C100.107 9.99009 90.4037 0.271851 78.4336 0.271851C66.4635 0.271851 56.7598 9.99009 56.7598 21.9781C56.7598 33.9662 66.4635 43.6844 78.4336 43.6844Z"/><path fill="#AB6D64" d="M79.4355 24.1915C83.3385 24.1915 86.5026 21.0227 86.5026 17.1137C86.5026 13.2048 83.3385 10.036 79.4355 10.036C75.5324 10.036 72.3683 13.2048 72.3683 17.1137C72.3683 21.0227 75.5324 24.1915 79.4355 24.1915Z"/><path fill="#4D4E4E" d="M87.2411 12.6382C87.1433 11.6566 86.9696 10.3623 86.0926 9.76683C85.4027 9.27869 84.617 8.94316 83.7876 8.78253C82.9351 8.65202 81.9278 8.81788 81.059 8.85595C80.0246 8.89945 78.9603 8.91305 77.9341 9.05716C76.9757 9.19039 75.982 9.25837 75.0209 9.35354C74.3588 9.41015 73.7235 9.64121 73.1794 10.0233C72.6353 10.4053 72.2019 10.9247 71.9231 11.5288C71.4262 12.5783 71.5022 13.7883 71.6516 14.9086C71.7941 16.2086 72.0319 17.4964 72.3629 18.7615C72.5122 19.2754 73.0715 19.9389 73.1312 20.4201C73.039 19.3615 73.2136 18.2966 73.6389 17.3231C74.038 16.3497 74.7467 15.5775 75.1132 14.5769C75.6888 14.9956 76.1422 15.4143 76.8236 15.6155C78.1232 15.9796 79.4969 15.984 80.7988 15.6282C82.1006 15.2725 83.2818 14.5699 84.2166 13.5953C84.0917 13.7258 84.4474 14.9385 84.5288 15.1696C84.7627 15.7532 85.0413 16.3177 85.3623 16.8582C85.5634 17.2224 85.7447 17.5973 85.9053 17.9811C85.9759 18.1633 86.0221 18.3564 86.0845 18.5249C86.1307 18.6582 86.3234 18.8349 86.2528 18.9872C86.4249 18.5733 86.5444 18.1394 86.6085 17.6956C86.6281 17.4949 86.6626 17.2958 86.7117 17.1001C86.7709 16.929 86.8207 16.7547 86.861 16.5781C87.0022 15.8358 87.2384 15.2974 87.271 14.5306C87.3045 13.8999 87.2945 13.2675 87.2411 12.6382Z"/><path fill="#C83898" d="M94.7318 36.411C90.9777 40.6902 85.6939 43.3193 80.0211 43.7309C74.3483 44.1424 68.7413 42.3034 64.4106 38.6107L66.2677 33.4146C66.6877 32.4916 67.3505 31.7004 68.185 31.1256C69.0196 30.5509 69.9945 30.2142 71.0054 30.1517L72.1891 30.0783L75.01 27.6311C75.01 27.6311 82.612 27.3592 82.4953 27.2314L87.0972 30.0022V29.9831L88.9054 30.0946C89.9166 30.156 90.892 30.4921 91.7267 31.067C92.5615 31.6419 93.224 32.4338 93.643 33.3575L94.7318 36.411Z"/><path fill="#E1EBF4" d="M78.4336 43.9564C74.0931 43.9569 69.85 42.6684 66.2407 40.2537C62.6315 37.839 59.8182 34.4067 58.1568 30.3908C56.4954 26.3748 56.0605 21.9557 56.9069 17.6921C57.7534 13.4286 59.8433 9.51221 62.9123 6.43823C65.9813 3.36426 69.8915 1.27077 74.1486 0.422514C78.4056 -0.42574 82.8183 0.00934255 86.8284 1.67274C90.8386 3.33614 94.2661 6.15313 96.6776 9.76749C99.0891 13.3818 100.376 17.6312 100.376 21.9782C100.37 27.8047 98.056 33.3908 93.9424 37.511C89.8289 41.6312 84.2514 43.9492 78.4336 43.9564ZM78.4336 0.543822C74.2005 0.543285 70.0623 1.79993 66.5424 4.15484C63.0224 6.50976 60.2788 9.85716 58.6585 13.7737C57.0382 17.6903 56.614 22.0001 57.4395 26.1582C58.265 30.3162 60.3032 34.1357 63.2962 37.1336C66.2893 40.1315 70.1028 42.1732 74.2545 43.0005C78.4062 43.8278 82.7097 43.4035 86.6206 41.7812C90.5315 40.159 93.8743 37.4117 96.2261 33.8868C98.578 30.3619 99.8332 26.2176 99.8332 21.9782C99.8275 16.2957 97.5711 10.8475 93.5593 6.82913C89.5474 2.81073 84.1076 0.550301 78.4336 0.543822Z"/><path fill="#fff" d="M27.845 77.9447C39.8152 77.9447 49.5189 68.2264 49.5189 56.2384C49.5189 44.2503 39.8152 34.5321 27.845 34.5321C15.8749 34.5321 6.1712 44.2503 6.1712 56.2384C6.1712 68.2264 15.8749 77.9447 27.845 77.9447Z"/><path fill="#4D4E4E" d="M17.7995 49.177C18.6955 46.3166 20.7344 43.6927 23.5526 42.7274C26.3708 41.7621 30.4976 43.2331 32.618 45.3458C36.4923 49.2151 37.4398 62.5059 34.79 66.7068C34.247 66.6769 32.4334 66.6579 31.8958 66.6361L31.1383 64.1047V66.6171C30.2831 66.5899 29.4224 66.5736 28.5564 66.5627C25.6481 66.5263 22.8671 65.3623 20.7979 63.3153C18.7287 61.2684 17.5323 58.4978 17.4602 55.5858C17.376 52.7934 17.4466 50.3027 17.7995 49.177Z"/><path fill="#AB6D64" d="M27.5247 58.6557C30.9359 58.6557 33.7013 55.8862 33.7013 52.4698C33.7013 49.0534 30.9359 46.2839 27.5247 46.2839C24.1134 46.2839 21.3481 49.0534 21.3481 52.4698C21.3481 55.8862 24.1134 58.6557 27.5247 58.6557Z"/><path fill="#4D4E4E" d="M22.7354 47.5374C23.5561 46.5998 24.5559 45.8362 25.6758 45.2915L29.3057 43.4724C30.8565 44.1762 32.175 45.3081 33.1067 46.7353C34.1601 48.3667 31.7492 49.5196 30.6062 50.1912C28.8822 51.2027 26.5554 50.4631 24.6332 50.4631C24.1526 50.4631 20.7073 49.9438 20.4141 50.3C21.196 49.3864 21.9236 48.4211 22.7354 47.5374Z"/><path fill="#F79F28" d="M43.9287 70.6005C40.1746 74.8799 34.8906 77.509 29.2175 77.9201C23.5445 78.3311 17.9376 76.4912 13.6076 72.7975L15.4755 67.6014C15.8955 66.6784 16.5583 65.8872 17.3928 65.3124C18.2274 64.7377 19.2023 64.401 20.2132 64.3385L21.3969 64.2651L24.2178 61.818C24.2178 61.818 31.8198 61.546 31.703 61.4155L36.3185 64.189V64.1699L38.1267 64.2814C39.138 64.3425 40.1136 64.6785 40.9484 65.2535C41.7831 65.8284 42.4456 66.6204 42.8644 67.5443L43.9287 70.6005Z"/><path fill="#E1EBF4" d="M27.845 78.2165C23.5047 78.2165 19.2618 76.9275 15.6529 74.5125C12.044 72.0975 9.23118 68.665 7.57019 64.649C5.9092 60.633 5.47461 56.214 6.32137 51.9506C7.16814 47.6872 9.25823 43.7711 12.3273 40.6974C15.3965 37.6237 19.3067 35.5305 23.5637 34.6824C27.8207 33.8344 32.2332 34.2697 36.2432 35.9331C40.2531 37.5966 43.6805 40.4136 46.0919 44.0279C48.5033 47.6422 49.7904 51.8915 49.7904 56.2383C49.7832 62.0651 47.4688 67.6512 43.3548 71.7713C39.2408 75.8915 33.6631 78.2093 27.845 78.2165ZM27.845 34.804C23.6121 34.804 19.4741 36.0611 15.9545 38.4163C12.4349 40.7715 9.69175 44.1191 8.07185 48.0358C6.45196 51.9524 6.02812 56.2621 6.85394 60.42C7.67975 64.5778 9.71813 68.3971 12.7113 71.3947C15.7045 74.3924 19.518 76.4338 23.6696 77.2609C27.8213 78.0879 32.1246 77.6634 36.0354 76.0411C39.9461 74.4188 43.2887 71.6715 45.6404 68.1466C47.9922 64.6218 49.2474 60.4777 49.2474 56.2383C49.2409 50.5556 46.984 45.1074 42.9716 41.0891C38.9593 37.0708 33.5193 34.8104 27.845 34.804Z"/><path fill="#AB6D64" d="M174.197 78.3743L170.917 72.6643C166.666 73.2081 158.483 78.6462 158.483 78.6462L142.657 82.9832C142.171 82.8293 141.654 82.8062 141.157 82.9162C140.66 83.0261 140.2 83.2653 139.824 83.6096C139.449 83.954 139.17 84.3913 139.017 84.8776C138.864 85.364 138.841 85.8822 138.951 86.3801C139.061 86.878 139.3 87.3381 139.645 87.714C139.989 88.09 140.426 88.3685 140.911 88.5217C141.397 88.6749 141.914 88.6972 142.411 88.5865C142.909 88.4758 143.368 88.2359 143.743 87.8911L164.043 85.24L174.197 78.3743Z"/><path fill="#F79F28" d="M173.068 79.3967L180.414 73.2353L181.484 68.2757C181.69 67.3009 181.62 66.2876 181.282 65.3506C180.943 64.4136 180.349 63.5902 179.567 62.9736C178.503 62.1444 177.165 61.7509 175.822 61.8725C174.479 61.9942 173.233 62.6219 172.335 63.6289C169.62 66.6878 166.552 70.9078 167.42 73.6622V73.6894L173.068 79.3967Z"/><path fill="#E1EBF4" d="M60.4766 100.815H32.8732C32.1334 100.813 31.4243 100.518 30.9012 99.9945C30.3781 99.4706 30.0836 98.7605 30.0822 98.0196V80.9955C30.0836 80.2546 30.3781 79.5445 30.9012 79.0206C31.4243 78.4967 32.1334 78.2018 32.8732 78.2003H60.4766C61.2154 78.2025 61.9232 78.4979 62.4449 79.0219C62.9665 79.5459 63.2595 80.2556 63.2595 80.9955V98.0196C63.2595 98.7595 62.9665 99.4692 62.4449 99.9932C61.9232 100.517 61.2154 100.813 60.4766 100.815Z"/><path fill="#fff" d="M49.508 98.6204H34.8144C34.1215 98.6204 33.4569 98.3449 32.9666 97.8544C32.4764 97.364 32.2006 96.6987 32.1999 96.0047V83.0103C32.2006 82.3163 32.4764 81.651 32.9666 81.1605C33.4569 80.67 34.1215 80.3945 34.8144 80.3945H58.5354C59.2281 80.3945 59.8924 80.6701 60.3822 81.1607C60.872 81.6512 61.1472 82.3165 61.1472 83.0103V86.9638C61.1451 90.0546 59.9181 93.0183 57.7358 95.2039C55.5535 97.3895 52.5943 98.6183 49.508 98.6204Z"/><path fill="#3778B8" d="M56.1679 87.5076H37.1792C37.015 87.5076 36.8576 87.4423 36.7415 87.326C36.6254 87.2098 36.5602 87.0521 36.5602 86.8876C36.5602 86.7232 36.6254 86.5655 36.7415 86.4493C36.8576 86.333 37.015 86.2677 37.1792 86.2677H56.1679C56.3321 86.2677 56.4895 86.333 56.6056 86.4493C56.7217 86.5655 56.7869 86.7232 56.7869 86.8876C56.7869 87.0521 56.7217 87.2098 56.6056 87.326C56.4895 87.4423 56.3321 87.5076 56.1679 87.5076Z"/><path fill="#3778B8" d="M40.1494 89.9602H37.1792C37.015 89.9602 36.8576 89.8949 36.7415 89.7786C36.6254 89.6624 36.5602 89.5047 36.5602 89.3403C36.5602 89.1759 36.6254 89.0182 36.7415 88.9019C36.8576 88.7856 37.015 88.7203 37.1792 88.7203H40.1494C40.3136 88.7203 40.471 88.7856 40.5871 88.9019C40.7032 89.0182 40.7684 89.1759 40.7684 89.3403C40.7684 89.5047 40.7032 89.6624 40.5871 89.7786C40.471 89.8949 40.3136 89.9602 40.1494 89.9602Z"/><path fill="#3778B8" d="M45.4111 92.4101H37.1792C37.015 92.4101 36.8576 92.3447 36.7415 92.2285C36.6254 92.1122 36.5602 91.9545 36.5602 91.7901C36.5602 91.6257 36.6254 91.468 36.7415 91.3517C36.8576 91.2355 37.015 91.1702 37.1792 91.1702H45.4111C45.5753 91.1702 45.7327 91.2355 45.8488 91.3517C45.9649 91.468 46.0301 91.6257 46.0301 91.7901C46.0301 91.9545 45.9649 92.1122 45.8488 92.2285C45.7327 92.3447 45.5753 92.4101 45.4111 92.4101Z"/><path fill="#3778B8" d="M29.1211 83.7091C32.3464 83.7091 34.9611 81.0906 34.9611 77.8604C34.9611 74.6303 32.3464 72.0117 29.1211 72.0117C25.8958 72.0117 23.2811 74.6303 23.2811 77.8604C23.2811 81.0906 25.8958 83.7091 29.1211 83.7091Z"/><path fill="#F0F8FF" d="M132.153 23.5933H104.549C103.809 23.5919 103.1 23.2969 102.577 22.7731C102.054 22.2492 101.76 21.539 101.758 20.7981V3.77408C101.76 3.03319 102.054 2.32305 102.577 1.79916C103.1 1.27527 103.809 0.980319 104.549 0.978882H132.153C132.891 0.981041 133.599 1.27649 134.121 1.80045C134.643 2.32442 134.935 3.03416 134.935 3.77408V20.7981C134.935 21.5381 134.643 22.2478 134.121 22.7718C133.599 23.2957 132.891 23.5912 132.153 23.5933Z"/><path fill="#fff" d="M121.184 21.399H106.49C105.797 21.399 105.133 21.1235 104.643 20.633C104.152 20.1425 103.877 19.4772 103.876 18.7832V5.78884C103.877 5.09485 104.152 4.42953 104.643 3.93906C105.133 3.44859 105.797 3.1731 106.49 3.1731H130.211C130.904 3.1731 131.568 3.44868 132.058 3.93923C132.548 4.42977 132.823 5.0951 132.823 5.78884V9.74235C132.821 12.8332 131.594 15.7969 129.412 17.9824C127.229 20.168 124.27 21.3968 121.184 21.399Z"/><path fill="#3778B8" d="M127.844 10.2862H108.855C108.774 10.2869 108.693 10.2714 108.618 10.2407C108.543 10.21 108.474 10.1646 108.417 10.1071C108.359 10.0497 108.314 9.98142 108.283 9.90619C108.252 9.83096 108.236 9.75032 108.236 9.66893C108.236 9.50426 108.301 9.34629 108.417 9.2296C108.533 9.1129 108.691 9.04698 108.855 9.04626H127.844C127.925 9.04626 128.006 9.0623 128.081 9.09345C128.156 9.12461 128.224 9.17028 128.282 9.22784C128.339 9.28541 128.385 9.35375 128.416 9.42897C128.447 9.50418 128.463 9.5848 128.463 9.66621C128.463 9.74762 128.447 9.82824 128.416 9.90345C128.385 9.97867 128.339 10.047 128.282 10.1046C128.224 10.1621 128.156 10.2078 128.081 10.239C128.006 10.2701 127.925 10.2862 127.844 10.2862Z"/><path fill="#3778B8" d="M111.825 12.7388H108.855C108.691 12.7388 108.534 12.6735 108.417 12.5572C108.301 12.441 108.236 12.2833 108.236 12.1188C108.236 11.9544 108.301 11.7967 108.417 11.6805C108.534 11.5642 108.691 11.4989 108.855 11.4989H111.825C111.99 11.4989 112.147 11.5642 112.263 11.6805C112.379 11.7967 112.444 11.9544 112.444 12.1188C112.444 12.2833 112.379 12.441 112.263 12.5572C112.147 12.6735 111.99 12.7388 111.825 12.7388Z"/><path fill="#3778B8" d="M117.087 15.1887H108.855C108.691 15.1887 108.534 15.1234 108.417 15.0072C108.301 14.8909 108.236 14.7332 108.236 14.5688C108.236 14.4044 108.301 14.2467 108.417 14.1304C108.534 14.0142 108.691 13.9489 108.855 13.9489H117.087C117.251 13.9489 117.409 14.0142 117.525 14.1304C117.641 14.2467 117.706 14.4044 117.706 14.5688C117.706 14.7332 117.641 14.8909 117.525 15.0072C117.409 15.1234 117.251 15.1887 117.087 15.1887Z"/><path fill="#3778B8" d="M100.797 26.8806C104.022 26.8806 106.637 24.2621 106.637 21.0319C106.637 17.8018 104.022 15.1832 100.797 15.1832C97.5717 15.1832 94.9571 17.8018 94.9571 21.0319C94.9571 24.2621 97.5717 26.8806 100.797 26.8806Z"/></g><defs><clipPath id="clip0_128_140"><rect width="219" height="190" fill="#fff"/></clipPath></defs></svg>