<svg xmlns="http://www.w3.org/2000/svg" width="216" height="251" fill="none" viewBox="0 0 216 251"><g clip-path="url(#clip0_123_56)"><path fill="#E1EBF4" d="M215.083 236.728C213.677 237.22 212.167 237.343 210.7 237.085C209.232 236.826 207.856 236.196 206.704 235.253C203.766 232.797 202.845 228.748 202.096 225L199.88 213.911L204.515 217.115C207.854 219.4 211.262 221.77 213.574 225.087C215.885 228.405 216.894 232.934 215.037 236.514"/><path fill="#F2F2F2" d="M214.689 250.151C215.159 246.722 215.641 243.294 215.312 239.843C215.018 236.796 214.082 233.791 212.175 231.338C211.163 230.039 209.931 228.926 208.534 228.051C208.171 227.822 207.835 228.397 208.198 228.626C210.62 230.144 212.493 232.392 213.547 235.044C214.693 237.988 214.896 241.199 214.693 244.327C214.575 246.231 214.311 248.098 214.059 249.975C214.039 250.06 214.051 250.149 214.095 250.225C214.138 250.301 214.209 250.357 214.292 250.383C214.334 250.395 214.378 250.398 214.422 250.392C214.465 250.387 214.507 250.373 214.545 250.351C214.583 250.33 214.616 250.301 214.643 250.266C214.67 250.232 214.689 250.193 214.701 250.151H214.689Z"/><path fill="#fff" d="M197.874 193.499H3.76346V0H197.859L197.874 193.499Z"/><path fill="#E1EBF4" d="M197.874 193.499H3.76346V0H197.859L197.874 193.499ZM6.63286 190.642H194.997V2.86058H6.63286V190.642Z"/><path fill="#E1EBF4" d="M163.487 30.2742H79.4301V32.8834H163.487V30.2742Z"/><path fill="#E1EBF4" d="M163.487 37.0619H79.4301V39.6711H163.487V37.0619Z"/><path fill="#E1EBF4" d="M163.487 43.8496H79.4301V46.4588H163.487V43.8496Z"/><path fill="#E1EBF4" d="M163.487 88.5524H79.4301V91.1616H163.487V88.5524Z"/><path fill="#E1EBF4" d="M163.487 95.3401H79.4301V97.9493H163.487V95.3401Z"/><path fill="#E1EBF4" d="M163.487 102.128H79.4301V104.737H163.487V102.128Z"/><path fill="#E1EBF4" d="M163.487 146.831H79.4301V149.44H163.487V146.831Z"/><path fill="#E1EBF4" d="M163.487 153.618H79.4301V156.227H163.487V153.618Z"/><path fill="#E1EBF4" d="M163.487 160.406H79.4301V163.015H163.487V160.406Z"/><path fill="#E1EBF4" d="M45.7767 51.0715C44.3417 50.3169 42.8434 49.6885 41.2988 49.1936L41.1001 47.0225L33.1109 46.1616L32.0945 48.9384L29.229 50.0126C29.1258 50.0503 29.0282 50.1015 28.9386 50.1649C28.6943 50.3267 28.5067 50.5604 28.4019 50.8335C28.2971 51.1066 28.2804 51.4055 28.354 51.6885L28.5068 52.3094C28.7246 52.4389 28.95 52.5646 29.1716 52.6903L29.313 52.7665C29.6416 52.9341 29.974 53.0941 30.3179 53.2426L30.5318 53.334C30.6923 53.4026 30.8528 53.4635 31.0171 53.5245C31.5547 53.7294 32.1032 53.9049 32.66 54.0501C34.081 54.4271 35.5452 54.6179 37.0157 54.6177C37.5544 54.6177 38.0817 54.5948 38.609 54.5453C39.8066 54.4341 40.9889 54.1953 42.1355 53.833C42.8604 53.603 43.5689 53.3243 44.2561 52.9988C44.4127 52.9265 44.5579 52.8465 44.7107 52.7741L44.7833 52.736C44.9056 52.6713 45.0279 52.6103 45.1463 52.5418C45.452 52.378 45.7462 52.2027 46.0404 52.0123C46.1244 51.9666 46.2008 51.9133 46.2849 51.8599L46.6249 51.6238C46.3766 51.4219 46.0824 51.2353 45.7767 51.0715Z"/><path fill="#E1EBF4" d="M30.784 52.4123L30.2835 50.1611H28.9347C28.4653 50.1993 28.0132 50.3552 27.6204 50.6144C27.3524 50.7832 27.1148 50.9956 26.9174 51.2429C27.2995 51.5362 27.7083 51.8066 28.1247 52.0656L28.4877 52.279C28.7055 52.4085 28.9309 52.5342 29.1525 52.6599L29.2939 52.736C29.6225 52.9036 29.9549 53.0636 30.2988 53.2122L30.5127 53.3036C30.6732 53.3721 30.8337 53.4331 30.998 53.494L30.784 52.4123Z"/><path fill="#E1EBF4" d="M36.7941 44.7904C39.972 44.7904 42.5482 42.2222 42.5482 39.054C42.5482 35.8859 39.972 33.3176 36.7941 33.3176C33.6162 33.3176 31.04 35.8859 31.04 39.054C31.04 42.2222 33.6162 44.7904 36.7941 44.7904Z"/><path fill="#4D4E4E" d="M32.9313 36.2582C33.5273 36.9628 34.5322 37.1609 35.4644 37.2409C37.6435 37.363 39.829 37.1862 41.9598 36.7153C42.0897 37.9875 41.7305 39.3587 42.4832 40.4062C42.8353 39.1387 43.0404 37.8351 43.0945 36.521C43.151 35.9568 43.0765 35.3873 42.8768 34.8564C42.7697 34.5888 42.5886 34.3568 42.3546 34.1876C42.1206 34.0184 41.8433 33.9188 41.5548 33.9004C41.9827 33.5738 42.4857 33.3591 43.0181 33.2757L41.1918 32.3768L41.6465 31.8778L38.3415 31.6759L39.2967 31.0665C37.8549 30.8685 36.3962 30.8225 34.9448 30.9293C34.2717 30.9339 33.6121 31.1181 33.0344 31.4626C32.4919 31.8435 32.1748 32.6282 32.5148 33.1995C32.0927 33.2706 31.6958 33.4479 31.3615 33.7145C31.0272 33.9811 30.7667 34.3282 30.6044 34.7231C30.395 35.3525 30.3438 36.0235 30.4554 36.6772C30.5815 37.726 30.8264 38.7572 31.1852 39.7511L32.9313 36.2582Z"/><path fill="#E1EBF4" d="M52.9751 32.8338C52.1676 30.5209 50.8637 28.4114 49.1543 26.6526C47.4449 24.8937 45.3712 23.5278 43.0779 22.6502C40.7845 21.7725 38.3266 21.4042 35.8758 21.5709C33.4249 21.7377 31.0401 22.4355 28.8876 23.6156C26.7351 24.7957 24.8667 26.4298 23.4129 28.4039C21.959 30.378 20.9547 32.6444 20.4699 35.0453C19.9851 37.4461 20.0316 39.9235 20.606 42.3046C21.1804 44.6857 22.269 46.9132 23.7958 48.8317C23.9448 49.0222 24.1053 49.2126 24.2657 49.3993L24.2963 49.4336C24.693 49.8875 25.1139 50.3198 25.5572 50.7286L25.9125 51.0448C26.1456 51.2505 26.3786 51.4257 26.627 51.6352L26.9174 51.8561C27.2994 52.1494 27.7083 52.4237 28.1247 52.6827L28.4877 52.8998C28.7055 53.0293 28.9309 53.1512 29.1525 53.2807L29.2939 53.3531C29.6225 53.5245 29.9549 53.6844 30.2988 53.833L30.5127 53.9206L30.998 54.1111C31.5356 54.316 32.0841 54.4915 32.6409 54.6367C34.0619 55.0137 35.5261 55.2044 36.9966 55.2042C37.5286 55.2057 38.0604 55.1803 38.5898 55.1281C39.7874 55.0182 40.9697 54.7807 42.1164 54.4196C42.842 54.1899 43.5506 53.9099 44.237 53.5816C44.3936 53.5092 44.5388 53.4292 44.6916 53.3531L44.7642 53.3188L45.1272 53.1245C45.4329 52.9569 45.7271 52.7817 46.0213 52.5951L46.2658 52.4427L46.6058 52.2065C46.7548 52.1037 46.9039 51.997 47.049 51.8866C47.098 51.8548 47.1451 51.8205 47.1904 51.7837C50.0286 49.6342 52.1116 46.6443 53.1411 43.2424C54.1706 39.8404 54.0938 36.201 52.9216 32.8452L52.9751 32.8338ZM46.6823 51.041C46.5829 51.1172 46.4797 51.1933 46.3766 51.2619C46.2734 51.3305 46.1741 51.4105 46.0709 51.479L45.8073 51.658H45.7767L45.578 51.7876C45.3259 51.9437 45.0737 52.0961 44.8139 52.2408L44.7337 52.2865C44.619 52.3513 44.5006 52.4122 44.386 52.4694L44.3401 52.496C44.1949 52.5722 44.0459 52.6446 43.8969 52.7131C43.3246 52.9896 42.735 53.2288 42.1317 53.4292L41.8948 53.5054C40.8081 53.8505 39.6872 54.0778 38.5516 54.1834C38.0549 54.2291 37.5544 54.252 37.0463 54.252C35.6556 54.2546 34.2707 54.074 32.9275 53.7149C32.2385 53.5353 31.5631 53.3074 30.9063 53.0331L30.8031 52.9874L30.6999 52.9455H30.5662C30.2835 52.8198 30.0007 52.6827 29.7256 52.5417L29.5919 52.4732C29.2557 52.298 28.9233 52.0923 28.6023 51.9094L28.3196 51.7304L28.2508 51.6847C28.0369 51.5438 27.8229 51.3952 27.6128 51.239C27.4714 51.1362 27.3262 51.0295 27.1886 50.9191C26.9556 50.7439 26.7302 50.5572 26.5124 50.363C26.3977 50.2677 26.2831 50.1611 26.1761 50.0621C25.7459 49.6668 25.339 49.2471 24.9573 48.8051C24.8312 48.6603 24.7051 48.5156 24.5752 48.3632C24.5477 48.3332 24.5222 48.3014 24.4988 48.268C22.5392 45.8014 21.3572 42.811 21.1022 39.6747C20.8473 36.5385 21.5309 33.3973 23.0665 30.6484C24.6022 27.8994 26.921 25.6661 29.7297 24.2309C32.5385 22.7956 35.711 22.2229 38.8463 22.585C41.9815 22.9471 44.9387 24.2279 47.3438 26.2654C49.7489 28.3029 51.4941 31.0056 52.3586 34.0318C53.223 37.058 53.168 40.2718 52.2005 43.2668C51.233 46.2618 49.3964 48.9036 46.923 50.8581L46.6631 51.06L46.6823 51.041Z"/><path fill="#fff" d="M52.9751 91.112C52.1676 88.7991 50.8637 86.6896 49.1543 84.9308C47.4449 83.1719 45.3712 81.806 43.0779 80.9284C40.7845 80.0507 38.3266 79.6824 35.8758 79.8491C33.4249 80.0159 31.0401 80.7137 28.8876 81.8938C26.7351 83.0739 24.8667 84.708 23.4129 86.6821C21.959 88.6562 20.9547 90.9226 20.4699 93.3235C19.9851 95.7243 20.0316 98.2017 20.606 100.583C21.1804 102.964 22.269 105.191 23.7958 107.11C23.9448 107.3 24.1053 107.491 24.2657 107.677L24.2963 107.712C24.693 108.166 25.1139 108.598 25.5572 109.007L25.9125 109.323C26.1456 109.529 26.3786 109.723 26.627 109.913C27.1063 110.29 27.6064 110.64 28.1247 110.961C28.461 111.17 28.8048 111.365 29.1525 111.547L29.2939 111.62C29.6225 111.791 29.9549 111.951 30.2988 112.1L30.5127 112.187C32.5726 113.035 34.7795 113.471 37.008 113.471C37.5401 113.473 38.0719 113.447 38.6013 113.395C39.7988 113.285 40.9811 113.047 42.1279 112.686C42.8535 112.457 43.562 112.177 44.2484 111.848C44.4051 111.776 44.5503 111.696 44.7031 111.62L44.7757 111.586L45.1387 111.391C45.4443 111.224 45.7385 111.048 46.0327 110.862L46.2772 110.709C46.5447 110.534 46.8083 110.329 47.0414 110.153C47.0903 110.122 47.1375 110.087 47.1828 110.051C50.021 107.901 52.104 104.911 53.1335 101.509C54.163 98.1072 54.0861 94.4677 52.9139 91.112H52.9751Z"/><path fill="#4D4E4E" d="M37.9174 88.1334C39.4457 88.0953 41.3332 88.3162 42.5023 89.3942C44.1529 90.8987 43.1366 93.7441 42.7851 95.5953C42.5596 96.8484 42.2654 98.0826 41.4134 99.0996C40.8938 99.7205 39.5794 99.8614 38.8153 99.9338C37.7731 100.043 36.7195 99.95 35.7128 99.6595C35.2213 99.5336 34.7707 99.2834 34.4046 98.933C34.0385 98.5827 33.7692 98.1442 33.6228 97.6598C32.9848 95.98 32.7823 94.2583 32.5912 92.4871C32.4499 91.1349 32.8549 89.9655 34.0317 89.219C35.2066 88.5181 36.5482 88.1433 37.9174 88.1334Z"/><path fill="#AB6D64" d="M37.8066 100.993C40.4506 100.993 42.594 98.8559 42.594 96.22C42.594 93.5841 40.4506 91.4473 37.8066 91.4473C35.1626 91.4473 33.0191 93.5841 33.0191 96.22C33.0191 98.8559 35.1626 100.993 37.8066 100.993Z"/><path fill="#F79F28" d="M46.3766 108.656V110.256C46.0824 110.447 45.7844 110.637 45.4825 110.786L45.1005 110.98L45.0279 111.018C44.8789 111.09 44.7298 111.17 44.5732 111.243C43.8881 111.57 43.1807 111.849 42.4565 112.077C41.3099 112.439 40.1276 112.678 38.9299 112.789C38.4065 112.839 37.8754 112.862 37.3405 112.862C35.8699 112.864 34.4054 112.673 32.9848 112.294C32.2575 112.114 31.5438 111.884 30.849 111.605L30.6312 111.513C30.2911 111.365 29.9549 111.205 29.6301 111.037L29.4888 110.965C29.1373 110.778 28.7972 110.584 28.461 110.378C27.9297 110.056 27.4181 109.702 26.9288 109.319C26.6843 109.133 26.4474 108.938 26.2182 108.729C26.0959 108.626 25.9736 108.519 25.859 108.413C25.4151 108.006 24.9954 107.573 24.602 107.118C24.6535 106.803 24.7302 106.494 24.8312 106.192C24.8312 106.142 24.8694 106.089 24.8924 106.04C24.9153 105.99 24.9306 105.956 24.9535 105.914C25.4961 104.901 26.4818 104.653 27.693 104.596C28.3846 104.566 29.1449 104.596 29.9473 104.596C30.3714 104.596 30.8108 104.596 31.2501 104.539C34.024 104.287 33.5197 102.653 33.6458 101.777C33.7719 100.901 34.5398 101.659 34.5895 101.709C36.1592 102.441 37.8956 102.744 39.6215 102.589C39.9195 102.551 40.2137 102.532 40.5117 102.52C41.2759 102.52 41.123 102.737 40.8556 102.92C40.7253 103.006 40.5886 103.083 40.4468 103.149C40.4468 103.149 40.3207 103.91 40.1946 105.034C40.0685 106.158 42.1508 106.626 42.3228 106.664C43.0775 106.469 43.872 106.49 44.6152 106.725C45.0475 106.874 45.4353 107.129 45.7431 107.467C46.0508 107.804 46.2687 108.213 46.3766 108.656Z"/><path fill="#C83898" d="M30.8795 110.599C30.8795 110.824 30.8795 111.037 30.8795 111.239C30.8795 111.361 30.8795 111.479 30.8795 111.589L30.6617 111.498C30.3217 111.349 29.9855 111.189 29.6607 111.022L29.5193 110.949C29.1678 110.763 28.8278 110.569 28.4915 110.363C28.4915 110.256 28.5145 110.15 28.5297 110.043C28.5641 109.811 28.5909 109.574 28.61 109.342C28.7284 107.707 28.4301 106.069 27.7427 104.581C27.6853 104.463 27.6471 104.394 27.6471 104.394C27.9587 104.17 28.333 104.05 28.717 104.05C29.101 104.05 29.4752 104.17 29.7868 104.394C29.8678 104.441 29.9391 104.503 29.9969 104.577C30.7076 105.461 30.9139 108.458 30.8795 110.599Z"/><path fill="#C83898" d="M44.642 110.188C44.642 110.527 44.6114 110.881 44.5885 111.239C43.9033 111.566 43.196 111.845 42.4718 112.073L42.4106 111.224V111.113L42.2502 106.98C42.2455 106.889 42.259 106.798 42.2897 106.712C42.3204 106.627 42.3678 106.548 42.4292 106.48C42.4906 106.412 42.5648 106.358 42.6475 106.319C42.7302 106.28 42.8198 106.257 42.9111 106.253H44.4815C44.5541 106.253 44.6114 106.409 44.6458 106.687C44.7237 107.853 44.7224 109.022 44.642 110.188Z"/><path fill="#4D4E4E" d="M34.131 89.638C34.0302 89.7866 33.942 89.9433 33.8674 90.1065C33.5846 90.6779 33.3783 91.3521 33.6916 91.9615C34.0469 92.6509 35.6937 93.1042 36.3662 93.2909C37.8677 93.6718 40.2442 93.7899 41.5892 92.8414C42.1317 92.4605 41.9712 91.8625 41.9712 91.2721C41.9712 90.6817 42.1508 90.0189 41.7267 89.6342C41.3748 89.3947 40.9606 89.2623 40.5346 89.2533C39.6367 89.1505 38.7389 89.3295 37.841 89.3295H34.983C34.5169 89.3142 34.3144 89.3904 34.131 89.638Z"/><path fill="#A0616A" d="M32.958 95.9038C33.1669 95.9038 33.3363 95.5951 33.3363 95.2143C33.3363 94.8336 33.1669 94.5249 32.958 94.5249C32.7491 94.5249 32.5798 94.8336 32.5798 95.2143C32.5798 95.5951 32.7491 95.9038 32.958 95.9038Z"/><path fill="#A0616A" d="M42.659 95.9038C42.8679 95.9038 43.0372 95.5951 43.0372 95.2143C43.0372 94.8336 42.8679 94.5249 42.659 94.5249C42.4501 94.5249 42.2807 94.8336 42.2807 95.2143C42.2807 95.5951 42.4501 95.9038 42.659 95.9038Z"/><path fill="#4D4E4E" d="M52.9751 91.112C52.1676 88.7991 50.8637 86.6896 49.1543 84.9308C47.4449 83.1719 45.3712 81.806 43.0779 80.9284C40.7845 80.0507 38.3266 79.6824 35.8758 79.8491C33.4249 80.0159 31.0401 80.7137 28.8876 81.8938C26.7351 83.0739 24.8667 84.708 23.4129 86.6821C21.959 88.6562 20.9547 90.9226 20.4699 93.3235C19.9851 95.7243 20.0316 98.2017 20.606 100.583C21.1804 102.964 22.269 105.191 23.7958 107.11C23.9448 107.3 24.1053 107.491 24.2657 107.677L24.2963 107.712C24.693 108.166 25.1139 108.598 25.5572 109.007L25.9125 109.323C26.1456 109.529 26.3786 109.723 26.627 109.913C27.1063 110.29 27.6064 110.64 28.1247 110.961C28.461 111.17 28.8048 111.365 29.1525 111.547L29.2939 111.62C29.6225 111.791 29.9549 111.951 30.2988 112.1L30.5127 112.187C32.5726 113.035 34.7795 113.471 37.008 113.471C37.5401 113.473 38.0719 113.447 38.6013 113.395C39.7988 113.285 40.9811 113.047 42.1279 112.686C42.8535 112.457 43.562 112.177 44.2484 111.848C44.4051 111.776 44.5503 111.696 44.7031 111.62L44.7757 111.586L45.1387 111.391C45.4443 111.224 45.7385 111.048 46.0327 110.862L46.2772 110.709C46.5447 110.534 46.8083 110.329 47.0414 110.153C47.0903 110.122 47.1375 110.087 47.1828 110.051C50.021 107.901 52.104 104.911 53.1335 101.509C54.163 98.1072 54.0861 94.4677 52.9139 91.112H52.9751ZM46.6822 109.319C46.5829 109.395 46.4797 109.472 46.3766 109.54C46.2734 109.609 46.1741 109.689 46.0709 109.757L45.8073 109.936L45.578 110.085C45.3259 110.241 45.0737 110.393 44.8139 110.538L44.7337 110.584C44.619 110.649 44.5006 110.709 44.386 110.767L44.3401 110.793C44.1949 110.869 44.0459 110.942 43.8969 111.01C43.3246 111.287 42.735 111.526 42.1317 111.726L41.8948 111.803C40.8081 112.148 39.6872 112.375 38.5516 112.481C38.0549 112.526 37.5544 112.549 37.0462 112.549C35.6556 112.552 34.2707 112.371 32.9275 112.012C32.2385 111.833 31.5631 111.605 30.9063 111.33L30.6999 111.243L30.5662 111.224C30.2835 111.098 30.0007 110.965 29.7256 110.82L29.5919 110.751C29.2557 110.576 28.9233 110.39 28.6023 110.188C28.4839 110.115 28.3654 110.043 28.2508 109.963C27.8878 109.723 27.5325 109.468 27.1886 109.201C26.9556 109.026 26.7302 108.839 26.5124 108.645C26.3977 108.55 26.2831 108.443 26.1761 108.344C25.7459 107.949 25.339 107.529 24.9573 107.087C24.8312 106.942 24.7051 106.798 24.5752 106.645L24.4988 106.554C22.5387 104.088 21.3561 101.097 21.1006 97.9611C20.8451 94.8249 21.5281 91.6836 23.0633 88.9343C24.5985 86.1851 26.9169 83.9514 29.7254 82.5156C32.5339 81.0799 35.7064 80.5066 38.8418 80.8682C41.9771 81.2298 44.9345 82.5101 47.34 84.5472C49.7455 86.5843 51.491 89.2868 52.356 92.3129C53.221 95.3389 53.1665 98.5528 52.1994 101.548C51.2323 104.543 49.3961 107.185 46.923 109.14L46.6631 109.342L46.6822 109.319Z"/><path fill="#4D4E4E" d="M37.1227 162.489C40.7754 162.489 43.7364 159.537 43.7364 155.896C43.7364 152.255 40.7754 149.303 37.1227 149.303C33.47 149.303 30.5089 152.255 30.5089 155.896C30.5089 159.537 33.47 162.489 37.1227 162.489Z"/><path fill="#4D4E4E" d="M31.9581 152.338C33.0264 151.273 33.243 149.762 32.4417 148.963C31.6404 148.164 30.1248 148.38 29.0565 149.445C27.9881 150.51 27.7716 152.021 28.5729 152.82C29.3741 153.619 30.8897 153.403 31.9581 152.338Z"/><path fill="#4D4E4E" d="M44.016 150.241C44.4611 149.202 43.6956 147.88 42.3062 147.289C40.9167 146.697 39.4295 147.059 38.9844 148.098C38.5393 149.137 39.3048 150.459 40.6942 151.051C42.0836 151.642 43.5708 151.28 44.016 150.241Z"/><path fill="#CACACA" d="M45.0355 168.687L44.2714 167.464C43.9425 166.725 43.3325 166.146 42.5755 165.855C41.8185 165.564 40.9765 165.584 40.2347 165.912C39.4929 166.24 38.9122 166.848 38.6202 167.603C38.3282 168.357 38.3489 169.197 38.6777 169.936L38.8993 170.728L39.1515 171.627C40.1727 171.499 41.1803 171.28 42.1623 170.972C42.8887 170.745 43.5974 170.465 44.2828 170.134L44.7375 169.91L44.8101 169.871L45.1731 169.681C45.2953 169.615 45.4138 169.546 45.5284 169.475L45.0355 168.687Z"/><path fill="#E1EBF4" d="M37.3328 163.065C40.4326 163.065 42.9455 160.56 42.9455 157.469C42.9455 154.379 40.4326 151.874 37.3328 151.874C34.233 151.874 31.7201 154.379 31.7201 157.469C31.7201 160.56 34.233 163.065 37.3328 163.065Z"/><path fill="#E1EBF4" d="M45.4405 168.447C44.8171 167.42 44.0446 166.49 43.148 165.689C42.5363 165.144 41.7447 164.843 40.9243 164.844H33.0268C32.1428 164.844 31.295 165.193 30.6696 165.816C30.0441 166.439 29.6923 167.284 29.6913 168.165C29.6913 168.237 29.6913 168.31 29.6913 168.378C29.7187 168.822 29.837 169.255 30.0389 169.651L30.421 170.412L30.5127 170.45L30.998 170.641C31.5354 170.846 32.0839 171.022 32.6409 171.167C33.5374 171.406 34.4525 171.57 35.3766 171.658C35.9153 171.707 36.454 171.734 36.9966 171.734C37.5391 171.734 38.0626 171.707 38.5898 171.658L39.1056 171.605C40.1268 171.476 41.1344 171.257 42.1164 170.949C42.8428 170.722 43.5516 170.442 44.237 170.111L44.6916 169.887L44.7642 169.849L45.1272 169.658C45.2495 169.592 45.3679 169.524 45.4825 169.452C45.6048 169.388 45.7194 169.315 45.8379 169.243C45.7423 168.969 45.5933 168.702 45.4405 168.447Z"/><path fill="#E1EBF4" d="M34.4596 165.864C33.7277 165.523 32.8899 165.484 32.1295 165.757C31.3691 166.03 30.748 166.591 30.4019 167.319L29.6989 168.378L29.3627 168.885L28.8507 169.647L29.1678 169.818L29.3092 169.891C29.6378 170.058 29.9702 170.218 30.314 170.367L30.4363 170.42L30.528 170.458L31.0133 170.649C31.5507 170.854 32.0992 171.029 32.6562 171.174C33.5527 171.414 34.4678 171.578 35.3919 171.666L35.6593 170.763L35.9191 169.902C36.2592 169.173 36.2967 168.34 36.0233 167.584C35.7499 166.827 35.1879 166.209 34.4596 165.864Z"/><path fill="#4D4E4E" d="M31.4335 153.95C32.7171 154.829 34.2392 155.299 35.7969 155.294C35.2425 155.68 34.61 155.94 33.9438 156.056C36.0151 156.501 38.1562 156.514 40.2328 156.094C40.6936 156.019 41.1381 155.865 41.5471 155.641C41.7518 155.528 41.9301 155.373 42.0704 155.187C42.2106 155 42.3097 154.787 42.361 154.559C42.4985 153.771 41.8872 153.058 41.2453 152.578C40.2685 151.852 39.1419 151.352 37.9471 151.113C36.7523 150.875 35.5193 150.904 34.3373 151.2C33.5519 151.355 32.8362 151.755 32.2932 152.342C32.0302 152.642 31.8714 153.019 31.8405 153.417C31.8095 153.814 31.908 154.211 32.1213 154.548L31.4335 153.95Z"/><path fill="#E1EBF4" d="M52.9751 149.39C52.1676 147.077 50.8637 144.968 49.1543 143.209C47.4449 141.45 45.3712 140.084 43.0779 139.207C40.7845 138.329 38.3266 137.961 35.8758 138.127C33.4249 138.294 31.0401 138.992 28.8876 140.172C26.7351 141.352 24.8667 142.986 23.4129 144.96C21.959 146.934 20.9547 149.201 20.4699 151.602C19.9851 154.003 20.0316 156.48 20.606 158.861C21.1804 161.242 22.269 163.47 23.7958 165.388C23.9448 165.579 24.1053 165.769 24.2657 165.952L24.2963 165.99C24.6931 166.443 25.114 166.874 25.5572 167.281C25.6718 167.388 25.7902 167.498 25.9125 167.601C26.1418 167.807 26.3786 168.001 26.627 168.188C26.7225 168.264 26.818 168.34 26.9174 168.413C27.2994 168.706 27.7083 168.976 28.1209 169.239H28.14L28.503 169.452L28.8507 169.654L29.1678 169.826L29.3092 169.898C29.6378 170.066 29.9702 170.226 30.314 170.374L30.4363 170.427L30.528 170.466L31.0132 170.656C31.5507 170.862 32.0992 171.037 32.6562 171.182C33.5527 171.421 34.4678 171.586 35.3919 171.673C35.9306 171.723 36.4693 171.749 37.0119 171.749C37.5544 171.749 38.0779 171.723 38.6051 171.673L39.1209 171.62C40.1421 171.491 41.1497 171.272 42.1317 170.965C42.8581 170.737 43.5669 170.457 44.2522 170.127L44.7069 169.902L44.7795 169.864L45.1425 169.673C45.2647 169.607 45.3832 169.539 45.4978 169.468C45.6201 169.403 45.7347 169.33 45.8531 169.258L46.0365 169.144C46.1206 169.094 46.197 169.045 46.2811 168.988C46.3651 168.931 46.5103 168.835 46.6211 168.755C46.7319 168.675 46.9191 168.546 47.0643 168.435C47.1139 168.405 47.1611 168.37 47.2057 168.333C50.043 166.182 52.1253 163.192 53.1547 159.791C54.1841 156.389 54.1079 152.75 52.9369 149.394L52.9751 149.39ZM46.6823 167.597C46.5829 167.677 46.4797 167.754 46.3766 167.822C46.2734 167.891 46.1741 167.971 46.0709 168.039C45.9678 168.108 45.8952 168.161 45.8035 168.218C45.7962 168.227 45.7871 168.233 45.7767 168.237L45.578 168.367L45.4405 168.451C45.3068 168.534 45.173 168.614 45.0355 168.691L44.8139 168.82L44.7337 168.866L44.386 169.049C44.386 169.049 44.3516 169.049 44.3401 169.075C44.1949 169.151 44.0459 169.224 43.8969 169.292C43.3233 169.568 42.7324 169.806 42.1279 170.005L41.8948 170.085C40.9204 170.393 39.9186 170.607 38.9031 170.725L38.5516 170.763C38.0549 170.808 37.5544 170.831 37.0463 170.831C36.5954 170.831 36.1407 170.812 35.6937 170.774C34.7589 170.698 33.833 170.537 32.9275 170.294C32.2379 170.115 31.5624 169.886 30.9063 169.609L30.8031 169.567L30.6999 169.525L30.593 169.475C30.3446 169.369 30.0963 169.25 29.8555 169.129L29.7524 169.075L29.6187 169.007L29.3818 168.881C29.1258 168.744 28.8736 168.595 28.6176 168.443L28.3349 168.264L28.2661 168.218C28.0521 168.074 27.8382 167.929 27.628 167.773C27.4867 167.666 27.3415 167.563 27.2039 167.453C26.9709 167.277 26.7454 167.091 26.5277 166.897C26.413 166.801 26.2984 166.695 26.1914 166.596C25.7622 166.199 25.3553 165.78 24.9726 165.339C24.8465 165.194 24.7204 165.049 24.5905 164.897L24.5141 164.802C22.5527 162.335 21.3691 159.344 21.1129 156.207C20.8568 153.069 21.5396 149.927 23.0749 147.177C24.6103 144.426 26.9293 142.191 29.7387 140.755C32.5481 139.319 35.7217 138.745 38.8581 139.107C41.9945 139.469 44.9529 140.749 47.3591 142.787C49.7653 144.825 51.5112 147.529 52.3761 150.556C53.241 153.583 53.186 156.798 52.2181 159.794C51.2501 162.79 49.4127 165.433 46.9382 167.388L46.6784 167.59L46.6823 167.597Z"/><path fill="#4D4E4E" d="M65.278 67.1495C59.3986 62.2024 52.2037 59.0656 44.5687 58.1209C36.9336 57.1762 29.1878 58.4642 22.2737 61.8283C15.3596 65.1924 9.57543 70.4874 5.62503 77.0691C1.67464 83.6508 -0.27163 91.2352 0.0230774 98.8996C0.317785 106.564 2.84076 113.978 7.28497 120.238C11.7292 126.499 17.903 131.337 25.0551 134.164C32.2073 136.99 40.0293 137.684 47.5694 136.159C55.1094 134.634 62.0424 130.958 67.5246 125.576L116.201 166.523C116.942 167.148 117.901 167.453 118.868 167.372C119.834 167.292 120.729 166.831 121.356 166.093C121.982 165.354 122.288 164.398 122.207 163.435C122.126 162.471 121.665 161.579 120.924 160.955L72.2471 120.007C77.9026 111.916 80.3229 102.011 79.0337 92.2326C77.7446 82.4546 72.8388 73.5091 65.278 67.1495ZM62.1373 116.061C58.3437 120.54 53.3034 123.796 47.6535 125.42C42.0037 127.043 35.9979 126.959 30.3955 125.18C24.7931 123.401 19.8456 120.006 16.1784 115.424C12.5113 110.842 10.2892 105.279 9.79303 99.4381C9.29688 93.5973 10.5489 87.7409 13.3909 82.6094C16.2329 77.4779 20.5373 73.3016 25.7598 70.6085C30.9823 67.9154 36.8885 66.8265 42.7317 67.4793C48.5749 68.1321 54.0928 70.4974 58.5878 74.2762C61.5724 76.7862 64.0317 79.8578 65.8254 83.3155C67.619 86.7732 68.7119 90.5493 69.0415 94.4281C69.3711 98.3069 68.931 102.213 67.7464 105.922C66.5618 109.631 64.6558 113.071 62.1373 116.046V116.061Z"/><path fill="#000" d="M20.2501 119.604C14.5446 114.806 10.8576 108.045 9.92115 100.662C8.98471 93.2797 10.8673 85.8162 15.1952 79.7535C14.6298 80.3249 14.0808 80.9229 13.5485 81.5476C8.46357 87.5554 5.98086 95.3308 6.64652 103.163C7.31218 110.996 11.0717 118.244 17.098 123.314C23.1243 128.383 30.9237 130.858 38.7805 130.194C46.6373 129.531 53.9079 125.783 58.9928 119.775C59.5239 119.15 60.0206 118.51 60.4905 117.851C55.2266 123.123 48.1673 126.229 40.7132 126.554C33.2591 126.878 25.955 124.398 20.2501 119.604Z" opacity=".3"/><path fill="#AB6D64" d="M163.407 168.055C163.749 167.639 164.005 167.16 164.161 166.646C164.318 166.131 164.371 165.591 164.318 165.057C164.264 164.522 164.106 164.003 163.851 163.529C163.597 163.055 163.251 162.636 162.834 162.295C162.647 162.143 162.448 162.006 162.238 161.888L153.362 125.698L146.89 127.759L156.472 163.716C156.039 164.626 155.955 165.662 156.236 166.629C156.518 167.596 157.145 168.427 158 168.963C158.855 169.5 159.877 169.705 160.874 169.541C161.87 169.376 162.772 168.853 163.407 168.07V168.055Z"/><path fill="#4D4E4E" d="M158.822 144.896L154.092 148.964L147.474 154.651L144.551 139.742L144.246 138.192L144.005 136.961L150.711 125.317L156.3 125.637L156.682 125.66L156.69 125.744L156.778 126.525L157.924 136.801L157.951 137.049L158.822 144.896Z"/><path fill="#AB6D64" d="M127.904 246.09H123.22L120.993 228.077L127.908 228.081L127.904 246.09Z"/><path fill="#4D4E4E" d="M129.1 250.634H113.997V250.444C113.997 248.889 114.616 247.398 115.719 246.299C116.822 245.199 118.317 244.582 119.877 244.582H129.1V250.634Z"/><path fill="#AB6D64" d="M176.81 246.471H172.126L169.898 228.458L176.814 228.462L176.81 246.471Z"/><path fill="#4D4E4E" d="M178.006 251.015H162.903V250.825C162.903 249.27 163.522 247.779 164.625 246.68C165.728 245.58 167.223 244.963 168.783 244.963H178.006V251.015Z"/><path fill="#F79F28" d="M180.555 239.302L167.946 241.207L149.606 179.318L130.12 241.588L115.984 239.683L134.323 167.312V161.598L136.807 153.028L136.547 150.708L134.74 134.486L133.976 127.45L133.926 126.997C133.883 126.616 133.985 126.232 134.21 125.921C134.435 125.61 134.768 125.393 135.145 125.313L141.029 124.079H150.646L156.319 125.637L156.702 125.744L156.877 125.793L156.789 126.525L155.46 137.639L155.387 138.249L154.103 148.964L153.821 151.314C164.901 159.313 165.283 167.312 165.283 167.312L180.555 239.302Z"/><path fill="#AB6D64" d="M144.658 119.261C149.841 119.261 154.042 115.072 154.042 109.906C154.042 104.739 149.841 100.551 144.658 100.551C139.476 100.551 135.275 104.739 135.275 109.906C135.275 115.072 139.476 119.261 144.658 119.261Z"/><path fill="#4D4E4E" d="M154.51 149.164L135.946 151.584L136.293 154.228L154.857 151.808L154.51 149.164Z"/><path fill="#AB6D64" d="M111.047 152.38C111.225 152.493 111.394 152.621 111.551 152.761L129.906 148.099L131.16 143.684L138.091 144.698L136.642 152.742C136.526 153.39 136.203 153.982 135.721 154.431C135.238 154.88 134.624 155.161 133.968 155.233L112.53 157.484C112.189 158.199 111.644 158.796 110.963 159.202C110.283 159.607 109.496 159.802 108.704 159.763C107.912 159.723 107.15 159.45 106.513 158.979C105.877 158.507 105.394 157.858 105.128 157.113C104.861 156.369 104.822 155.562 105.015 154.795C105.207 154.028 105.624 153.336 106.212 152.805C106.799 152.274 107.532 151.928 108.316 151.812C109.101 151.696 109.902 151.814 110.619 152.152C110.766 152.22 110.909 152.296 111.047 152.38Z"/><path fill="#4D4E4E" d="M139.29 127.698L136.043 125.222C135.164 124.89 133.96 125.831 133.75 126.745L129.165 145.41L138.717 152.266L140.054 150.171L139.29 127.698Z"/><g opacity=".2"><path fill="#000" d="M157.924 136.801C157.114 137.123 156.287 137.402 155.448 137.639C155.181 137.719 154.906 137.796 154.634 137.868C152.847 138.363 151.009 138.66 149.155 138.752C148.358 138.785 147.558 138.764 146.764 138.687C145.91 138.602 145.067 138.436 144.246 138.192L144.162 138.169C142.455 137.69 140.889 136.81 139.596 135.602C139.308 135.321 139.039 135.022 138.79 134.706C138.077 133.835 137.553 132.825 137.253 131.741C136.953 130.657 136.883 129.523 137.047 128.41C137.082 128.208 137.124 128.01 137.177 127.812C137.322 127.276 137.513 126.754 137.747 126.25C137.85 126.014 137.964 125.782 138.087 125.553L142.404 124.098H150.626L156.3 125.656L156.682 125.679V125.763L156.858 125.812L156.77 126.544L157.924 136.801Z" opacity=".2"/></g><path fill="#4D4E4E" d="M137.464 102.158C135.71 101.945 133.785 102.097 132.417 103.213C131.049 104.329 130.609 106.641 131.901 107.853C133.047 108.915 134.843 108.664 136.379 108.965C137.702 109.261 138.886 109.991 139.744 111.038C140.601 112.085 141.082 113.388 141.109 114.739C141.086 118.617 137.357 121.55 136.684 125.367C136.23 127.972 137.33 130.699 139.237 132.554C141.143 134.409 143.761 135.388 146.401 135.659C149.041 135.929 151.708 135.518 154.271 134.84C156.835 134.162 159.384 133.198 161.531 131.648C163.678 130.097 165.463 127.903 166.158 125.34C166.853 122.777 166.353 119.836 164.565 117.867C162.517 115.612 159.112 114.819 157.34 112.359C155.353 109.586 156.09 105.632 154.482 102.623C153.408 100.612 151.379 99.2405 149.213 98.5206C147.046 97.8007 144.735 97.656 142.454 97.5836C141.254 97.5493 140.016 97.5379 138.901 97.9645C137.785 98.3911 136.799 99.3929 136.742 100.589C136.684 101.785 137.464 102.158 137.464 102.158Z"/></g><defs><clipPath id="clip0_123_56"><rect width="216" height="251" fill="#fff"/></clipPath></defs></svg>