<svg xmlns="http://www.w3.org/2000/svg" width="214" height="231" fill="none" viewBox="0 0 214 231"><path fill="#3778B8" d="M130.495 165.864C140.737 183.604 163.419 189.683 181.157 179.442C198.894 169.201 204.97 146.518 194.728 128.779C184.486 111.039 161.804 104.96 144.067 115.201C126.329 125.441 120.253 148.124 130.495 165.864Z"/><path fill="#C83898" d="M63.295 179.129C69.9453 190.648 84.6728 194.595 96.19 187.946C107.707 181.296 111.653 166.568 105.002 155.05C98.352 143.531 83.6244 139.584 72.1073 146.233C60.5902 152.883 56.6448 167.611 63.295 179.129Z"/><path fill="#F79F28" d="M13.6083 89.9365C20.3588 101.397 35.1202 105.215 46.5789 98.4655C58.0376 91.7158 61.8544 76.9539 55.1038 65.4937C48.3533 54.0336 33.5917 50.2149 22.1331 56.9646C10.6744 63.7143 6.85782 78.4764 13.6083 89.9365Z"/></svg>