<svg xmlns="http://www.w3.org/2000/svg" width="284" height="216" fill="none" viewBox="0 0 284 216"><g clip-path="url(#clip0_108_2)"><path fill="#3778B8" d="M177.589 108.647H78.5718C77.0108 108.647 75.5138 108.025 74.41 106.917C73.3062 105.81 72.6862 104.308 72.6862 102.742V39.5876C72.6862 38.0216 73.3062 36.5197 74.41 35.4124C75.5138 34.3051 77.0108 33.683 78.5718 33.683H177.589C179.15 33.683 180.647 34.3051 181.75 35.4124C182.854 36.5197 183.474 38.0216 183.474 39.5876V102.742C183.474 104.308 182.854 105.81 181.75 106.917C180.647 108.025 179.15 108.647 177.589 108.647ZM78.5718 34.3776C77.1945 34.3776 75.8735 34.9265 74.8996 35.9036C73.9257 36.8806 73.3786 38.2058 73.3786 39.5876V102.742C73.3786 104.124 73.9257 105.449 74.8996 106.426C75.8735 107.403 77.1945 107.952 78.5718 107.952H177.589C178.966 107.952 180.287 107.403 181.261 106.426C182.235 105.449 182.782 104.124 182.782 102.742V39.5876C182.782 38.2058 182.235 36.8806 181.261 35.9036C180.287 34.9265 178.966 34.3776 177.589 34.3776H78.5718Z" opacity=".15"/><path fill="#3778B8" d="M171.184 64.0464H84.9767C84.1968 64.0445 83.4493 63.7329 82.8978 63.1796C82.3463 62.6264 82.0357 61.8765 82.0339 61.0941V47.2009C82.0348 46.4182 82.3451 45.6678 82.8968 45.1144C83.4485 44.5609 84.1965 44.2496 84.9767 44.2487H171.184C171.964 44.2487 172.713 44.5597 173.264 45.1134C173.816 45.667 174.126 46.418 174.126 47.2009V61.0941C174.125 61.8768 173.815 62.6272 173.263 63.1806C172.712 63.7341 171.964 64.0454 171.184 64.0464Z"/><path fill="#3778B8" d="M169.106 77.0712H87.0539C86.3194 77.0712 85.6149 76.7784 85.0955 76.2573C84.5761 75.7362 84.2842 75.0295 84.2842 74.2925C84.2842 73.5556 84.5761 72.8489 85.0955 72.3278C85.6149 71.8067 86.3194 71.5139 87.0539 71.5139H169.106C169.841 71.5139 170.545 71.8067 171.065 72.3278C171.584 72.8489 171.876 73.5556 171.876 74.2925C171.876 75.0295 171.584 75.7362 171.065 76.2573C170.545 76.7784 169.841 77.0712 169.106 77.0712Z" opacity=".15"/><path fill="#3778B8" d="M169.106 87.4911H87.0539C86.3194 87.4911 85.6149 87.1983 85.0955 86.6772C84.5761 86.1562 84.2842 85.4494 84.2842 84.7125C84.2842 83.9755 84.5761 83.2688 85.0955 82.7477C85.6149 82.2266 86.3194 81.9338 87.0539 81.9338H169.106C169.841 81.9338 170.545 82.2266 171.065 82.7477C171.584 83.2688 171.876 83.9755 171.876 84.7125C171.876 85.4494 171.584 86.1562 171.065 86.6772C170.545 87.1983 169.841 87.4911 169.106 87.4911Z" opacity=".15"/><path fill="#3778B8" d="M151.539 97.9109H86.4827C85.2675 97.9109 84.2842 96.6675 84.2842 95.1323C84.2842 93.5971 85.2675 92.3536 86.4827 92.3536H151.539C152.751 92.3536 153.734 93.5971 153.734 95.1323C153.734 96.6675 152.751 97.9109 151.539 97.9109Z" opacity=".15"/><path fill="#3778B8" d="M26.7402 215.075V215.162L26.6987 214.908C26.671 214.773 26.6502 214.637 26.626 214.502C25.7843 209.172 26.2489 203.717 27.9797 198.608C28.3259 197.608 28.6929 196.632 29.1187 195.67C30.7456 191.949 33.0531 188.566 35.9218 185.698C36.8518 184.74 37.9139 183.922 39.0758 183.267C39.2454 183.176 39.422 183.09 39.5916 183.01C40.6665 182.488 41.8756 182.312 43.0538 182.506C43.4814 182.589 43.896 182.729 44.2863 182.923C44.423 182.988 44.5559 183.061 44.6844 183.142C45.4723 183.659 46.1449 184.334 46.6597 185.125C47.1745 185.916 47.5205 186.805 47.6757 187.737C47.8987 189.123 47.8481 190.539 47.5268 191.905C47.4991 192.033 47.468 192.165 47.4368 192.294C47.2087 193.207 46.9207 194.104 46.5747 194.979C43.1092 203.912 35.6933 211.817 26.7402 215.075Z" opacity=".05"/><path fill="#fff" d="M44.2482 182.965C41.557 186.848 39.0181 190.828 36.6316 194.906C34.245 198.983 32.0096 203.151 29.9254 207.41C28.7714 209.788 27.6589 212.19 26.5879 214.617C26.4702 214.884 26.8684 215.117 26.9861 214.846C28.8833 210.516 30.941 206.261 33.159 202.082C35.3771 197.902 37.7487 193.812 40.2737 189.81C41.6863 187.574 43.1473 185.374 44.6568 183.211C44.8264 182.968 44.4283 182.739 44.2586 182.982L44.2482 182.965Z"/><path fill="#fff" d="M47.1321 191.95C45.1045 194.593 42.118 196.326 38.823 196.771C37.9051 196.897 36.9756 196.916 36.0533 196.826C35.759 196.799 35.7556 197.261 36.0533 197.288C39.4829 197.577 42.8875 196.497 45.5291 194.284C46.2692 193.668 46.936 192.969 47.5164 192.2C47.693 191.964 47.2948 191.735 47.1183 191.967L47.1321 191.95Z"/><path fill="#fff" d="M29.8458 206.263C29.3755 205.591 28.9851 204.866 28.6826 204.103C27.9906 202.364 27.7442 200.478 27.9659 198.619C28.3121 197.618 28.6791 196.642 29.1049 195.68C29.1303 195.718 29.1456 195.762 29.1492 195.808C29.1528 195.853 29.1447 195.899 29.1257 195.941C28.8304 196.661 28.6212 197.415 28.5025 198.185C28.0341 200.931 28.6555 203.752 30.2336 206.045C30.2532 206.07 30.266 206.1 30.2708 206.131C30.2757 206.163 30.2724 206.195 30.2613 206.225C30.2483 206.258 30.2287 206.287 30.2038 206.311C30.1789 206.335 30.1491 206.354 30.1165 206.366C30.0839 206.378 30.0492 206.384 30.0145 206.381C29.9798 206.379 29.9459 206.37 29.9151 206.354C29.886 206.329 29.8624 206.298 29.8458 206.263Z"/><path fill="#fff" d="M39.1312 182.989C38.5762 185.203 38.7412 187.537 39.602 189.651C39.6324 189.703 39.6823 189.741 39.7407 189.757C39.7991 189.773 39.8613 189.764 39.9136 189.734C39.9651 189.703 40.0028 189.653 40.0189 189.595C40.035 189.537 40.0283 189.475 40.0002 189.422C39.1982 187.419 39.0515 185.213 39.5813 183.121C39.5948 183.061 39.5841 182.998 39.5517 182.946C39.5193 182.894 39.4677 182.857 39.4082 182.843C39.3517 182.829 39.2921 182.838 39.2418 182.867C39.1915 182.896 39.1543 182.943 39.1381 182.999L39.1312 182.989Z"/><path fill="#3778B8" d="M26.6849 203.961L26.7126 204.041L26.5568 203.839C26.4703 203.731 26.3872 203.62 26.3076 203.509C23.0911 199.183 20.9757 194.135 20.145 188.803C19.9788 187.764 19.8634 186.722 19.7988 185.677C19.5163 181.624 19.9907 177.553 21.1975 173.674C21.5806 172.393 22.1436 171.173 22.8697 170.051C22.977 169.891 23.0878 169.735 23.2159 169.586C23.9231 168.62 24.9132 167.9 26.0479 167.526C26.4633 167.398 26.8944 167.328 27.3289 167.318C27.4812 167.318 27.6335 167.318 27.7824 167.318C28.7197 167.408 29.628 167.693 30.4503 168.153C31.2726 168.613 31.9909 169.239 32.5601 169.992C33.4027 171.117 34.0156 172.397 34.3639 173.76C34.3985 173.889 34.4332 174.021 34.4643 174.149C34.6851 175.064 34.8458 175.992 34.9456 176.928C36.0084 186.438 33.1002 196.892 26.6849 203.961Z" opacity=".05"/><path fill="#fff" d="M27.3151 167.356C26.7219 172.049 26.3099 176.76 26.0791 181.488C25.8483 186.217 25.7963 190.945 25.9233 195.673C25.9971 198.32 26.1252 200.965 26.3076 203.61C26.3076 203.902 26.7853 203.922 26.7646 203.61C26.4391 198.891 26.2914 194.165 26.3214 189.432C26.3514 184.699 26.5603 179.974 26.9481 175.257C27.165 172.618 27.4385 169.984 27.7686 167.356C27.8067 167.06 27.3462 167.043 27.3081 167.338L27.3151 167.356Z"/><path fill="#fff" d="M34.0419 173.969C33.4698 177.252 31.6282 180.176 28.918 182.103C28.1644 182.642 27.3511 183.09 26.4945 183.441C26.221 183.555 26.4322 183.961 26.7022 183.85C29.8714 182.508 32.3847 179.966 33.6957 176.775C34.0649 175.883 34.3287 174.95 34.4816 173.997C34.5301 173.705 34.0696 173.688 34.0211 173.976L34.0419 173.969Z"/><path fill="#fff" d="M25.3484 194.701C24.6207 194.318 23.9399 193.852 23.3196 193.312C21.8994 192.099 20.8074 190.545 20.1449 188.796C19.9787 187.757 19.8633 186.715 19.7986 185.67C19.839 185.691 19.8731 185.722 19.8974 185.761C19.9217 185.799 19.9354 185.844 19.9371 185.889C20.0071 186.667 20.1651 187.435 20.408 188.178C21.277 190.822 23.1403 193.021 25.6012 194.308C25.6305 194.321 25.6561 194.341 25.6755 194.367C25.6949 194.392 25.7075 194.422 25.712 194.454C25.7158 194.521 25.6932 194.586 25.6491 194.637C25.605 194.687 25.543 194.717 25.4765 194.722C25.4329 194.724 25.3893 194.717 25.3484 194.701Z"/><path fill="#fff" d="M22.7935 169.763C23.3296 171.981 24.5555 173.969 26.2937 175.442C26.3448 175.467 26.4034 175.472 26.4583 175.457C26.5132 175.442 26.5606 175.407 26.5914 175.359C26.6223 175.311 26.6343 175.253 26.6254 175.196C26.6165 175.14 26.5871 175.089 26.5429 175.053C24.9014 173.652 23.746 171.764 23.2435 169.662C23.2251 169.608 23.1873 169.562 23.1375 169.534C23.0877 169.506 23.0293 169.498 22.9735 169.51C22.9178 169.523 22.8686 169.555 22.8353 169.602C22.8021 169.648 22.7872 169.706 22.7935 169.763Z"/><path fill="#3778B8" d="M26.8822 215.145L26.9515 215.197L26.7091 215.11L26.3248 214.971C21.2923 213.063 16.8 209.951 13.238 205.906C12.5456 205.121 11.8854 204.31 11.2576 203.474C8.84199 200.208 7.0582 196.515 5.99867 192.589C5.63224 191.304 5.45152 189.973 5.46204 188.637C5.46204 188.442 5.46204 188.251 5.49666 188.057C5.57633 186.861 6.02393 185.721 6.77765 184.792C7.06004 184.459 7.38616 184.167 7.74705 183.923C7.87514 183.84 8.00324 183.76 8.1348 183.687C8.97194 183.255 9.88902 183.001 10.8285 182.941C11.7681 182.882 12.7097 183.017 13.5946 183.34C14.9105 183.837 16.1163 184.589 17.1433 185.552L17.4341 185.823C18.112 186.475 18.7458 187.171 19.3313 187.907C25.3312 195.34 28.5025 205.722 26.8822 215.145Z" opacity=".05"/><path fill="#fff" d="M7.76438 183.958C9.78857 188.23 11.9732 192.421 14.3182 196.531C16.6632 200.641 19.1571 204.653 21.7998 208.566C23.2816 210.761 24.8084 212.922 26.3802 215.047C26.5568 215.284 26.9549 215.047 26.7784 214.815C23.9717 211.015 21.3151 207.113 18.8086 203.11C16.302 199.106 13.9373 195.012 11.7147 190.828C10.4798 188.487 9.29579 186.12 8.16252 183.725C8.03442 183.468 7.63974 183.694 7.76438 183.958Z"/><path fill="#fff" d="M16.9736 185.9C18.2526 188.972 18.2737 192.426 17.0325 195.514C16.686 196.373 16.241 197.189 15.7065 197.945C15.5368 198.185 15.935 198.417 16.1046 198.174C18.052 195.336 18.8058 191.841 18.2027 188.449C18.033 187.493 17.753 186.561 17.3683 185.67C17.2506 185.399 16.8559 185.632 16.9736 185.903V185.9Z"/><path fill="#fff" d="M20.7889 208.063C19.9734 208.138 19.152 208.119 18.3411 208.003C16.4923 207.751 14.737 207.034 13.238 205.919C12.5455 205.135 11.8854 204.324 11.2576 203.488C11.3029 203.484 11.3485 203.491 11.3899 203.51C11.4313 203.529 11.4669 203.559 11.4931 203.596C11.9688 204.215 12.5149 204.777 13.1203 205.27C15.2717 207.03 18.0238 207.876 20.7889 207.628C20.8201 207.624 20.852 207.627 20.8817 207.638C20.9114 207.649 20.9378 207.667 20.9585 207.691C20.984 207.726 20.9999 207.768 21.0047 207.811C21.0096 207.855 21.0031 207.898 20.9861 207.939C20.969 207.979 20.9419 208.014 20.9073 208.04C20.8728 208.067 20.832 208.084 20.7889 208.09V208.063Z"/><path fill="#fff" d="M5.24736 188.432C6.88901 190.013 8.99111 191.026 11.2472 191.325C11.3684 191.325 11.4757 191.207 11.4757 191.096C11.4749 191.035 11.4506 190.977 11.408 190.933C11.3655 190.89 11.3079 190.865 11.2472 190.863C9.11096 190.571 7.12255 189.605 5.56934 188.105C5.35815 187.9 5.03271 188.223 5.24736 188.432Z"/><path fill="#AB6D64" d="M58.2283 154.38C59.0413 153.819 59.5996 152.958 59.7806 151.985C59.9617 151.013 59.7508 150.008 59.1942 149.191C59.07 149.009 58.9298 148.839 58.7753 148.683L60.219 116.382L52.8724 117.212L53.3017 148.819C52.6929 149.505 52.3562 150.391 52.3552 151.309C52.3543 152.228 52.6892 153.115 53.2965 153.802C53.9038 154.489 54.7413 154.929 55.6503 155.038C56.5593 155.147 57.4766 154.918 58.2283 154.393V154.38Z"/><path fill="#AB6D64" d="M71.6267 209.07L75.809 209.806L79.9393 193.982L74.4622 192.891L71.6267 209.07Z"/><path fill="#4D4E4E" d="M83.2041 215.124L70.048 212.804L70.9378 207.712L79.0011 209.136C79.6698 209.25 80.3093 209.496 80.8829 209.86C81.4565 210.223 81.9529 210.697 82.3434 211.253C82.734 211.81 83.0111 212.438 83.1588 213.102C83.3065 213.767 83.3219 214.453 83.2041 215.124Z"/><path fill="#AB6D64" d="M60.1532 211.168H64.3978L66.4162 194.743H60.1532V211.168Z"/><path fill="#4D4E4E" d="M72.5857 215.12H59.2462V209.952H67.4341C68.8007 209.952 70.1114 210.496 71.0781 211.466C72.0447 212.435 72.5883 213.749 72.5892 215.12H72.5857Z"/><path fill="#4D4E4E" d="M78.2083 206.67H78.0109L73.0151 206.256C72.7945 206.231 72.5812 206.161 72.3873 206.053C72.1934 205.944 72.0228 205.798 71.8852 205.623C71.7475 205.449 71.6456 205.248 71.5853 205.034C71.5249 204.819 71.5072 204.595 71.5333 204.374C71.5333 204.346 71.5333 204.318 71.5333 204.291L76.1448 178.352L73.0289 161.864C73.0023 161.732 72.9289 161.613 72.8223 161.529C72.7156 161.446 72.5827 161.404 72.4477 161.411C72.3127 161.417 72.1846 161.472 72.0866 161.566C71.9887 161.659 71.9275 161.785 71.9141 161.92L68.0331 205.888C67.9917 206.329 67.7817 206.736 67.4472 207.024C67.1128 207.312 66.6799 207.459 66.2397 207.434L61.5312 207.26C61.1186 207.23 60.7313 207.049 60.4419 206.752C60.1526 206.456 59.981 206.063 59.9594 205.649L59.6443 152.938L84.0454 149.878L85.7522 176.275V176.303L79.8666 205.364C79.7781 205.738 79.566 206.07 79.2648 206.307C78.9636 206.545 78.5912 206.672 78.2083 206.67Z"/><path fill="#AB6D64" d="M67.6799 95.4414C72.376 95.4414 76.1829 91.6222 76.1829 86.911C76.1829 82.1998 72.376 78.3806 67.6799 78.3806C62.9839 78.3806 59.1769 82.1998 59.1769 86.911C59.1769 91.6222 62.9839 95.4414 67.6799 95.4414Z"/><path fill="#F79F28" d="M75.6913 156.787C74.361 156.793 73.0566 156.418 71.9314 155.706C67.8149 153.126 63.1238 154.15 60.7003 154.987C60.4598 155.071 60.2037 155.1 59.9509 155.071C59.698 155.042 59.4548 154.956 59.2393 154.821C59.0259 154.686 58.8456 154.505 58.7119 154.291C58.5782 154.077 58.4945 153.835 58.4672 153.584L54.0772 114.128C53.3398 107.528 57.3109 101.297 63.5184 99.3454C63.7504 99.2725 63.9893 99.203 64.2282 99.137C66.1614 98.609 68.1866 98.5132 70.1608 98.8565C72.1349 99.1998 74.0099 99.9738 75.6532 101.124C77.3267 102.284 78.7262 103.798 79.7533 105.559C80.7804 107.32 81.41 109.286 81.5977 111.318L85.2814 151.049C85.306 151.306 85.271 151.565 85.1791 151.806C85.0872 152.047 84.9409 152.263 84.7517 152.438C83.4672 153.647 79.6935 156.787 75.6913 156.787Z"/><path fill="#F79F28" d="M62.2791 122.589L52.3428 121.495C51.8208 121.437 51.343 121.174 51.0145 120.763C50.686 120.352 50.5336 119.827 50.5909 119.303C50.6015 119.206 50.6188 119.109 50.6429 119.015L53.1737 109.345C53.3699 107.919 54.1137 106.627 55.2463 105.744C56.379 104.861 57.8109 104.457 59.2363 104.618C60.6618 104.78 61.9679 105.494 62.876 106.608C63.784 107.722 64.2221 109.148 64.0967 110.581L64.4741 120.543C64.4838 120.803 64.4422 121.063 64.3518 121.308C64.2613 121.552 64.1237 121.776 63.9469 121.967C63.77 122.158 63.5574 122.312 63.3211 122.42C63.0848 122.529 62.8296 122.59 62.5699 122.599C62.4731 122.608 62.3758 122.608 62.2791 122.599V122.589Z"/><path fill="#AB6D64" d="M85.2571 152.997C85.9987 152.344 86.4516 151.422 86.5165 150.435C86.5814 149.447 86.253 148.473 85.6033 147.728C85.4599 147.563 85.301 147.412 85.129 147.277L82.6674 115.045L75.4697 116.67L79.6935 148.072C79.168 148.827 78.9375 149.749 79.0458 150.663C79.1541 151.577 79.5937 152.419 80.2809 153.029C80.9681 153.639 81.8549 153.975 82.7725 153.971C83.6901 153.968 84.5744 153.626 85.2571 153.011V152.997Z"/><path fill="#F79F28" d="M72.7104 120.564C72.502 120.369 72.3378 120.132 72.229 119.869C72.1203 119.605 72.0696 119.321 72.0803 119.035L72.4716 109.074C72.3461 107.64 72.7842 106.214 73.6923 105.1C74.6003 103.986 75.9065 103.272 77.3319 103.111C78.7574 102.95 80.1892 103.354 81.3219 104.237C82.4546 105.12 83.1984 106.412 83.3946 107.838L85.9254 117.511C85.9984 117.787 86.011 118.075 85.9623 118.357C85.9136 118.638 85.8048 118.906 85.6433 119.141C85.4818 119.376 85.2714 119.574 85.0267 119.72C84.782 119.866 84.5086 119.957 84.2255 119.987L74.2892 121.085C74.0041 121.117 73.7154 121.088 73.4429 120.998C73.1704 120.908 72.9205 120.76 72.7104 120.564Z"/><path fill="#4D4E4E" d="M62.8606 86.2164C62.4572 86.3736 62.0999 86.6304 61.822 86.9631C60.8837 88.1718 60.5617 89.8842 60.2328 91.2943C60.444 90.3982 59.0626 88.5643 58.4429 88.0294C57.6847 87.3765 56.5872 86.6401 56.1891 85.678C55.6801 84.4277 56.2064 82.5521 56.7915 81.3885C57.8024 79.3845 59.6824 77.9153 61.7596 77.0712C63.8369 76.2272 66.0977 75.9633 68.3377 75.9251C70.6919 75.8834 75.8851 75.477 76.896 78.3946C77.36 79.7283 76.5498 81.4719 75.7847 82.5625C75.0196 83.6531 73.5447 83.799 72.2914 83.7608C71.0381 83.7226 69.906 84.1081 68.6216 84.3964C66.6476 84.8167 64.7184 85.4262 62.8606 86.2164Z"/><path fill="#E1EBF4" d="M269.73 158.461H227.838C226.277 158.461 224.78 157.839 223.676 156.731C222.572 155.624 221.952 154.122 221.952 152.556V89.4014C221.952 87.8354 222.572 86.3336 223.676 85.2262C224.78 84.1189 226.277 83.4968 227.838 83.4968H269.73C271.29 83.4968 272.788 84.1189 273.891 85.2262C274.995 86.3336 275.615 87.8354 275.615 89.4014V152.556C275.615 154.122 274.995 155.624 273.891 156.731C272.788 157.839 271.29 158.461 269.73 158.461ZM227.838 84.1915C226.461 84.1915 225.14 84.7404 224.166 85.7174C223.192 86.6945 222.645 88.0197 222.645 89.4014V152.556C222.645 153.938 223.192 155.263 224.166 156.24C225.14 157.217 226.461 157.766 227.838 157.766H269.73C271.107 157.766 272.428 157.217 273.402 156.24C274.376 155.263 274.923 153.938 274.923 152.556V89.4014C274.923 88.0197 274.376 86.6945 273.402 85.7174C272.428 84.7404 271.107 84.1915 269.73 84.1915H227.838Z"/><path fill="#E1EBF4" d="M261.247 99.0953H236.32C235.585 99.0953 234.881 98.8026 234.362 98.2815C233.842 97.7604 233.55 97.0536 233.55 96.3167C233.55 95.5798 233.842 94.873 234.362 94.3519C234.881 93.8308 235.585 93.5381 236.32 93.5381H261.247C261.982 93.5381 262.686 93.8308 263.206 94.3519C263.725 94.873 264.017 95.5798 264.017 96.3167C264.017 97.0536 263.725 97.7604 263.206 98.2815C262.686 98.8026 261.982 99.0953 261.247 99.0953Z"/><path fill="#E1EBF4" d="M261.247 109.515H236.32C235.585 109.515 234.881 109.222 234.362 108.701C233.842 108.18 233.55 107.474 233.55 106.737C233.55 106 233.842 105.293 234.362 104.772C234.881 104.251 235.585 103.958 236.32 103.958H261.247C261.982 103.958 262.686 104.251 263.206 104.772C263.725 105.293 264.017 106 264.017 106.737C264.017 107.474 263.725 108.18 263.206 108.701C262.686 109.222 261.982 109.515 261.247 109.515Z"/><path fill="#E1EBF4" d="M263.325 136.086H234.243C233.463 136.085 232.715 135.773 232.163 135.22C231.611 134.667 231.301 133.916 231.3 133.133V119.24C231.302 118.458 231.612 117.708 232.164 117.155C232.715 116.602 233.463 116.29 234.243 116.288H263.325C264.104 116.29 264.852 116.602 265.403 117.155C265.955 117.708 266.266 118.458 266.267 119.24V133.133C266.266 133.916 265.956 134.667 265.404 135.22C264.853 135.773 264.105 136.085 263.325 136.086Z"/><path fill="#E1EBF4" d="M261.247 148.416H236.32C235.585 148.416 234.881 148.123 234.362 147.602C233.842 147.081 233.55 146.374 233.55 145.637C233.55 144.9 233.842 144.194 234.362 143.673C234.881 143.151 235.585 142.859 236.32 142.859H261.247C261.982 142.859 262.686 143.151 263.206 143.673C263.725 144.194 264.017 144.9 264.017 145.637C264.017 146.374 263.725 147.081 263.206 147.602C262.686 148.123 261.982 148.416 261.247 148.416Z"/><path fill="#E1EBF4" d="M244.11 58.0828H202.218C200.657 58.0828 199.16 57.4607 198.056 56.3534C196.953 55.2461 196.332 53.7442 196.332 52.1782V12.9892C196.332 11.4232 196.953 9.92133 198.056 8.81401C199.16 7.70668 200.657 7.08459 202.218 7.08459H244.11C245.671 7.08459 247.168 7.70668 248.272 8.81401C249.375 9.92133 249.995 11.4232 249.995 12.9892V52.1782C249.995 53.7442 249.375 55.2461 248.272 56.3534C247.168 57.4607 245.671 58.0828 244.11 58.0828ZM202.218 7.77925C200.841 7.77925 199.52 8.32815 198.546 9.3052C197.572 10.2823 197.025 11.6074 197.025 12.9892V52.1782C197.025 53.56 197.572 54.8851 198.546 55.8622C199.52 56.8392 200.841 57.3881 202.218 57.3881H244.11C245.487 57.3881 246.808 56.8392 247.782 55.8622C248.756 54.8851 249.303 53.56 249.303 52.1782V12.9892C249.303 11.6074 248.756 10.2823 247.782 9.3052C246.808 8.32815 245.487 7.77925 244.11 7.77925H202.218Z"/><path fill="#E1EBF4" d="M235.628 45.7805H210.7C209.966 45.7805 209.261 45.4877 208.742 44.9666C208.222 44.4455 207.931 43.7388 207.931 43.0018C207.931 42.2649 208.222 41.5581 208.742 41.037C209.261 40.516 209.966 40.2232 210.7 40.2232H235.628C236.362 40.2232 237.067 40.516 237.586 41.037C238.105 41.5581 238.397 42.2649 238.397 43.0018C238.397 43.7388 238.105 44.4455 237.586 44.9666C237.067 45.4877 236.362 45.7805 235.628 45.7805Z"/><path fill="#E1EBF4" d="M235.628 35.3606H210.7C209.966 35.3606 209.261 35.0678 208.742 34.5467C208.222 34.0256 207.931 33.3189 207.931 32.5819C207.931 31.845 208.222 31.1382 208.742 30.6172C209.261 30.0961 209.966 29.8033 210.7 29.8033H235.628C236.362 29.8033 237.067 30.0961 237.586 30.6172C238.105 31.1382 238.397 31.845 238.397 32.5819C238.397 33.3189 238.105 34.0256 237.586 34.5467C237.067 35.0678 236.362 35.3606 235.628 35.3606Z"/><path fill="#E1EBF4" d="M235.628 24.9407H210.7C209.966 24.9407 209.261 24.648 208.742 24.1269C208.222 23.6058 207.931 22.899 207.931 22.1621C207.931 21.4252 208.222 20.7184 208.742 20.1973C209.261 19.6762 209.966 19.3835 210.7 19.3835H235.628C236.362 19.3835 237.067 19.6762 237.586 20.1973C238.105 20.7184 238.397 21.4252 238.397 22.1621C238.397 22.899 238.105 23.6058 237.586 24.1269C237.067 24.648 236.362 24.9407 235.628 24.9407Z"/><path fill="#3778B8" d="M182.782 43.3491C187.18 43.3491 190.745 39.7725 190.745 35.3606C190.745 30.9486 187.18 27.372 182.782 27.372C178.384 27.372 174.819 30.9486 174.819 35.3606C174.819 39.7725 178.384 43.3491 182.782 43.3491Z"/><path fill="#fff" d="M181.992 38.4102C181.814 38.4097 181.64 38.3512 181.497 38.2435L179.628 36.8055C179.535 36.7415 179.456 36.6592 179.396 36.5637C179.336 36.4682 179.296 36.3614 179.278 36.2499C179.261 36.1384 179.266 36.0244 179.293 35.915C179.321 35.8055 179.37 35.7027 179.439 35.613C179.507 35.5232 179.593 35.4484 179.691 35.3929C179.789 35.3374 179.897 35.3025 180.009 35.2903C180.121 35.2781 180.234 35.2888 180.342 35.3218C180.449 35.3547 180.549 35.4093 180.635 35.4822L181.847 36.4165L184.71 32.6688C184.776 32.5816 184.859 32.5083 184.954 32.4532C185.048 32.3981 185.153 32.3622 185.261 32.3477C185.37 32.3332 185.48 32.3403 185.585 32.3686C185.691 32.3968 185.79 32.4458 185.877 32.5125V32.5369V32.5125C186.051 32.6479 186.165 32.8467 186.194 33.0657C186.223 33.2848 186.165 33.5066 186.033 33.683L182.661 38.0906C182.581 38.1919 182.48 38.2734 182.364 38.3288C182.248 38.3842 182.121 38.4121 181.992 38.4102Z"/><path fill="#E1EBF4" d="M273.884 93.5102C278.282 93.5102 281.847 89.9336 281.847 85.5217C281.847 81.1097 278.282 77.5331 273.884 77.5331C269.486 77.5331 265.921 81.1097 265.921 85.5217C265.921 89.9336 269.486 93.5102 273.884 93.5102Z"/><path fill="#fff" d="M273.095 88.5677C272.915 88.5685 272.741 88.5113 272.596 88.4045L270.723 86.9666C270.636 86.9 270.563 86.8169 270.509 86.722C270.454 86.6271 270.418 86.5224 270.404 86.4137C270.389 86.305 270.396 86.1945 270.424 86.0885C270.452 85.9826 270.501 85.8832 270.567 85.7961C270.634 85.7089 270.717 85.6358 270.811 85.5808C270.906 85.5258 271.01 85.49 271.118 85.4755C271.227 85.461 271.337 85.468 271.443 85.4962C271.548 85.5244 271.647 85.5732 271.734 85.6398L272.929 86.5637L275.792 82.816C275.858 82.729 275.941 82.656 276.036 82.6012C276.131 82.5464 276.235 82.5109 276.343 82.4967C276.452 82.4825 276.562 82.4899 276.668 82.5185C276.773 82.547 276.872 82.5962 276.958 82.6632L276.938 82.6875L276.958 82.6632C277.045 82.7299 277.118 82.8131 277.173 82.9081C277.227 83.0031 277.263 83.108 277.277 83.2167C277.291 83.3254 277.283 83.4359 277.255 83.5418C277.227 83.6476 277.178 83.7468 277.111 83.8337L273.742 88.2413C273.666 88.3416 273.568 88.4231 273.456 88.4797C273.344 88.5363 273.22 88.5664 273.095 88.5677Z"/><path fill="#E1EBF4" d="M248.611 16.0561C253.008 16.0561 256.573 12.4795 256.573 8.06756C256.573 3.6556 253.008 0.07901 248.611 0.07901C244.213 0.07901 240.648 3.6556 240.648 8.06756C240.648 12.4795 244.213 16.0561 248.611 16.0561Z"/><path fill="#fff" d="M247.821 11.1136C247.637 11.1174 247.457 11.06 247.309 10.9503L245.436 9.51239C245.26 9.37836 245.145 9.17993 245.116 8.96074C245.086 8.74156 245.145 8.51958 245.278 8.34363C245.412 8.16769 245.61 8.0522 245.828 8.02256C246.047 7.99292 246.268 8.05157 246.443 8.1856L247.655 9.10949L250.518 5.36182C250.585 5.27481 250.668 5.20182 250.762 5.14703C250.857 5.09224 250.962 5.05673 251.07 5.04254C251.178 5.02834 251.288 5.03574 251.394 5.0643C251.5 5.09287 251.598 5.14204 251.685 5.209L251.664 5.23331L251.685 5.209C251.772 5.27573 251.844 5.35897 251.899 5.45396C251.954 5.54894 251.989 5.6538 252.003 5.76254C252.017 5.87127 252.01 5.98173 251.981 6.0876C251.953 6.19347 251.904 6.29266 251.837 6.37949L248.469 10.7871C248.393 10.8874 248.295 10.969 248.183 11.0256C248.07 11.0821 247.947 11.1123 247.821 11.1136Z"/><path fill="#4D4E4E" d="M133.059 215.423H1.15169C1.05987 215.423 0.971812 215.386 0.906884 215.321C0.841957 215.256 0.805481 215.167 0.805481 215.075C0.805481 214.983 0.841957 214.895 0.906884 214.83C0.971812 214.764 1.05987 214.728 1.15169 214.728H133.059C133.15 214.728 133.239 214.764 133.303 214.83C133.368 214.895 133.405 214.983 133.405 215.075C133.405 215.167 133.368 215.256 133.303 215.321C133.239 215.386 133.15 215.423 133.059 215.423Z"/></g><defs><clipPath id="clip0_108_2"><rect width="283.137" height="215.343" fill="#fff" transform="translate(0.805481 0.0790405)"/></clipPath></defs></svg>