<svg width="284" height="216" viewBox="0 0 284 216" fill="none" xmlns="http://www.w3.org/2000/svg">
<g clip-path="url(#clip0_114_477)">
<path d="M175.674 167.473H9.34727C7.51634 167.471 5.76097 166.743 4.4663 165.449C3.17163 164.155 2.44341 162.401 2.44141 160.572V41.3212C2.4444 39.4915 3.17282 37.7375 4.46717 36.4433C5.76151 35.1491 7.5163 34.4202 9.34727 34.4162H175.674C177.505 34.4192 179.261 35.1476 180.556 36.4419C181.851 37.7362 182.58 39.4908 182.583 41.3212V160.572C182.581 162.402 181.853 164.157 180.557 165.451C179.262 166.745 177.505 167.472 175.674 167.473ZM9.34727 38.0518C8.4799 38.0528 7.64834 38.3976 7.03501 39.0105C6.42168 39.6234 6.07668 40.4544 6.07568 41.3212V160.572C6.07767 161.438 6.423 162.268 7.03611 162.881C7.64922 163.494 8.48021 163.839 9.34727 163.841H175.674C176.541 163.84 177.373 163.495 177.986 162.882C178.599 162.269 178.944 161.438 178.945 160.572V41.3212C178.945 40.8919 178.861 40.4667 178.696 40.0701C178.532 39.6734 178.291 39.313 177.987 39.0094C177.683 38.7058 177.323 38.465 176.926 38.3007C176.529 38.1364 176.103 38.0518 175.674 38.0518H9.34727Z" fill="#E1EBF4"/>
<path d="M102.187 197.058C103.371 189.768 98.4176 182.899 91.1229 181.716C83.8282 180.533 76.9548 185.483 75.7707 192.773C74.5866 200.062 79.5402 206.931 86.8349 208.115C94.1296 209.298 101.003 204.348 102.187 197.058Z" fill="#E1EBF4"/>
<path d="M99.1069 196.558C100.015 190.968 96.2165 185.701 90.6229 184.794C85.0294 183.887 79.7588 187.683 78.8509 193.272C77.9429 198.862 81.7414 204.129 87.3349 205.037C92.9284 205.944 98.199 202.148 99.1069 196.558Z" fill="white"/>
<path d="M94.1217 200.507C93.9973 200.507 93.8779 200.458 93.7893 200.371L83.506 190.094C83.4189 190.007 83.3701 189.888 83.3704 189.765C83.3708 189.641 83.4203 189.523 83.5079 189.436C83.5956 189.349 83.7143 189.3 83.8379 189.3C83.9616 189.3 84.08 189.35 84.1672 189.438L94.4466 199.71C94.5111 199.776 94.5549 199.858 94.5726 199.949C94.5902 200.039 94.581 200.132 94.5459 200.217C94.5109 200.302 94.4516 200.375 94.3755 200.426C94.2994 200.478 94.2099 200.506 94.118 200.507H94.1217Z" fill="#3778B8"/>
<path d="M94.7791 195.897C94.8764 195.746 94.9281 195.569 94.9281 195.389C94.9281 195.209 94.8764 195.033 94.7791 194.881C94.0302 193.711 93.0429 192.711 91.8815 191.948C90.7045 191.164 89.3256 190.736 87.911 190.717C87.1967 190.719 86.4873 190.836 85.8105 191.065C85.7959 191.069 85.7824 191.077 85.7708 191.087C85.7593 191.097 85.7498 191.109 85.7431 191.123C85.7364 191.137 85.7326 191.152 85.7318 191.167C85.731 191.182 85.7334 191.197 85.7387 191.212C85.7446 191.228 85.7536 191.244 85.7652 191.257L87.1479 192.635C87.1616 192.65 87.1791 192.66 87.1984 192.666C87.2177 192.671 87.2381 192.671 87.2574 192.665C87.6161 192.576 87.9889 192.559 88.3543 192.615C88.7197 192.67 89.0705 192.798 89.3866 192.989C89.7026 193.181 89.9775 193.433 90.1956 193.731C90.4138 194.029 90.5707 194.368 90.6575 194.727C90.8955 195.844 91.4396 196.872 92.229 197.698L92.6673 198.136C92.6893 198.155 92.7174 198.165 92.7466 198.165C92.7758 198.165 92.8039 198.155 92.8259 198.136C93.5848 197.491 94.2431 196.736 94.7791 195.897Z" fill="#3778B8"/>
<path d="M89.9926 197.071C89.2491 197.071 88.5361 196.776 88.0104 196.251C87.4848 195.725 87.1894 195.013 87.1894 194.27C87.1954 194.025 87.1528 193.782 87.0639 193.554C86.9751 193.325 86.8418 193.117 86.6719 192.941L85.2854 191.555C85.2642 191.535 85.2357 191.523 85.2061 191.523C85.1764 191.523 85.1479 191.535 85.1267 191.555C84.3813 192.205 83.7224 192.947 83.166 193.764C83.0607 193.916 83.0027 194.095 82.9994 194.28C82.996 194.465 83.0474 194.647 83.1471 194.802C83.884 195.974 84.8629 196.976 86.0183 197.739C87.1899 198.514 88.5615 198.931 89.9661 198.94C90.6868 198.936 91.4028 198.823 92.0893 198.604C92.1182 198.594 92.1422 198.573 92.1562 198.545C92.1703 198.518 92.1733 198.486 92.1648 198.457C92.1599 198.438 92.1494 198.421 92.1346 198.408L90.7481 197.022C90.7336 197.009 90.716 196.999 90.697 196.994C90.6779 196.989 90.6579 196.988 90.6386 196.992C90.4271 197.044 90.2103 197.07 89.9926 197.071Z" fill="#3778B8"/>
<path d="M38.2023 208.28C45.5925 208.28 51.5834 202.293 51.5834 194.908C51.5834 187.523 45.5925 181.536 38.2023 181.536C30.8122 181.536 24.8213 187.523 24.8213 194.908C24.8213 202.293 30.8122 208.28 38.2023 208.28Z" fill="#E1EBF4"/>
<path d="M38.2023 205.162C43.8691 205.162 48.4629 200.571 48.4629 194.908C48.4629 189.245 43.8691 184.654 38.2023 184.654C32.5356 184.654 27.9418 189.245 27.9418 194.908C27.9418 200.571 32.5356 205.162 38.2023 205.162Z" fill="white"/>
<path d="M42.1426 201.447C41.5759 201.447 40.775 201.239 39.5737 200.571C38.0836 199.774 36.7233 198.755 35.539 197.551C34.3156 196.383 33.2943 195.02 32.5167 193.519C31.44 191.563 31.6251 190.54 31.8291 190.102C32.068 189.628 32.4411 189.234 32.902 188.969C33.1658 188.795 33.4453 188.646 33.7369 188.524L33.8163 188.49C33.9129 188.435 34.0201 188.401 34.1309 188.39C34.2416 188.38 34.3533 188.393 34.4585 188.429C34.6918 188.541 34.899 188.701 35.0667 188.898C35.6706 189.581 36.1789 190.343 36.5779 191.163C36.741 191.447 36.8427 191.762 36.8763 192.088C36.8498 192.411 36.7169 192.716 36.4985 192.956L36.3852 193.107C36.1623 193.398 36.1132 193.485 36.1472 193.636C36.2114 193.938 37.1974 194.202 37.9983 194.995C38.7992 195.788 39.1695 196.882 39.4755 196.95C39.6304 196.984 39.7172 196.95 40.0195 196.701L40.1517 196.599C40.3957 196.378 40.707 196.245 41.0357 196.222C41.3668 196.255 41.6853 196.366 41.9651 196.546C42.7801 196.954 43.5415 197.462 44.2317 198.056C44.4288 198.222 44.5885 198.428 44.7002 198.661C44.737 198.766 44.751 198.878 44.7412 198.989C44.7315 199.101 44.6982 199.209 44.6435 199.306L44.6095 199.385C44.4845 199.676 44.3341 199.955 44.16 200.22C43.8942 200.678 43.5003 201.05 43.0266 201.288C42.7472 201.405 42.4454 201.459 42.1426 201.447Z" fill="#3778B8"/>
<path d="M140.143 208.28C147.533 208.28 153.524 202.293 153.524 194.908C153.524 187.523 147.533 181.536 140.143 181.536C132.753 181.536 126.762 187.523 126.762 194.908C126.762 202.293 132.753 208.28 140.143 208.28Z" fill="#E1EBF4"/>
<path d="M140.143 205.162C145.81 205.162 150.404 200.571 150.404 194.908C150.404 189.245 145.81 184.654 140.143 184.654C134.476 184.654 129.883 189.245 129.883 194.908C129.883 200.571 134.476 205.162 140.143 205.162Z" fill="white"/>
<path d="M143.883 193.009C143.822 193.008 143.761 193.02 143.704 193.043C143.647 193.066 143.596 193.1 143.552 193.144C143.509 193.187 143.474 193.238 143.451 193.295C143.427 193.351 143.415 193.412 143.415 193.473V194.41C143.415 196.214 141.949 196.743 140.143 196.743C138.337 196.743 136.872 196.214 136.872 194.41V193.473C136.861 193.357 136.807 193.249 136.721 193.17C136.635 193.091 136.522 193.047 136.405 193.047C136.288 193.047 136.175 193.091 136.089 193.17C136.003 193.249 135.949 193.357 135.939 193.473V194.41C135.94 195.442 136.322 196.439 137.011 197.208C137.7 197.978 138.648 198.468 139.675 198.585V200.473C139.676 200.597 139.725 200.715 139.813 200.803C139.901 200.89 140.019 200.94 140.143 200.941C140.267 200.94 140.386 200.89 140.473 200.803C140.561 200.715 140.611 200.597 140.612 200.473V198.585C141.645 198.473 142.6 197.983 143.294 197.209C143.987 196.436 144.369 195.433 144.367 194.394V193.458C144.365 193.397 144.351 193.337 144.325 193.281C144.3 193.225 144.264 193.175 144.219 193.133C144.174 193.091 144.121 193.059 144.063 193.037C144.006 193.016 143.945 193.006 143.883 193.009Z" fill="#3778B8"/>
<path d="M140.143 195.406C139.57 195.419 139.003 195.289 138.492 195.029C138.308 194.956 138.147 194.835 138.027 194.678C137.906 194.521 137.831 194.334 137.809 194.138V192.401C137.809 191.71 138.84 191.151 140.124 191.148H140.143C141.42 191.148 142.467 191.691 142.482 192.375V194.142C142.478 194.836 141.443 195.402 140.143 195.406Z" fill="#3778B8"/>
<path d="M175.674 165.827H9.34731C7.95309 165.822 6.61721 165.267 5.63028 164.283C4.64335 163.299 4.0852 161.965 4.07724 160.572V41.3212C4.07724 39.9194 4.63447 38.5751 5.62634 37.5839C6.61821 36.5927 7.96348 36.0358 9.3662 36.0358H175.674C177.076 36.0358 178.422 36.5927 179.414 37.5839C180.405 38.5751 180.963 39.9194 180.963 41.3212V160.572C180.955 161.968 180.394 163.305 179.403 164.289C178.412 165.274 177.071 165.827 175.674 165.827Z" fill="white"/>
<path d="M91.6964 109.956C101.419 109.956 109.301 102.08 109.301 92.3633C109.301 82.647 101.419 74.7704 91.6964 74.7704C81.9736 74.7704 74.0917 82.647 74.0917 92.3633C74.0917 102.08 81.9736 109.956 91.6964 109.956Z" fill="#AB6D64"/>
<path d="M75.0664 78.5268C75.5298 77.4712 76.1945 76.5159 77.0233 75.7142C81.0467 71.9389 86.1996 70.576 91.617 70.5194C97.0949 70.4627 103.43 71.8332 107.148 76.3635C109.191 78.859 109.883 81.7849 110.317 84.907C110.846 88.7012 109.131 91.661 108.666 95.4288C108.666 95.4288 110.612 79.5537 99.4182 80.656C94.7564 81.1129 90.0681 80.656 85.3949 80.7014C82.9242 80.7014 81.2809 80.169 79.2295 81.6225C77.0422 83.1742 77.0837 84.9863 76.6719 87.2855C76.3767 88.8107 75.9701 90.3122 75.4555 91.7781C75.2137 92.5143 74.9568 93.2467 74.6999 93.9828C74.5904 94.3113 74.205 95.0475 74.2806 95.391C73.8544 93.5749 73.5827 91.7259 73.4684 89.864C73.4155 88.5766 73.3852 87.2855 73.4344 85.9981C73.4849 83.425 74.0393 80.8868 75.0664 78.5268Z" fill="#4D4E4E"/>
<path d="M43.8237 165.657H141.201C140.551 158.235 140.124 152.711 140.124 150.843C140.124 142.605 133.381 133.616 133.381 133.616L130.967 132.283C127.54 130.396 123.449 129.924 119.747 128.787C117.635 128.138 115.527 127.47 113.419 126.813C112.928 126.658 111.133 126.435 110.805 125.997L105.587 119.224C105.041 118.513 104.337 117.938 103.531 117.545C102.725 117.152 101.838 116.951 100.941 116.959L84.4581 117.08C83.0088 117.093 81.6164 117.645 80.5518 118.628C76.5586 122.324 72.7997 126.734 67.8545 129.335C62.7091 132.038 56.4984 133.514 52.1727 137.678C47.6394 142.031 46.1018 150.065 44.7984 155.932C44.3489 157.959 44.0315 161.353 43.8237 165.657Z" fill="#F79F28"/>
<path d="M283.157 15.1622H0.839635C0.784561 15.1607 0.730315 15.1484 0.679999 15.126C0.629683 15.1036 0.584282 15.0715 0.546391 15.0315C0.508501 14.9915 0.478863 14.9445 0.459172 14.8931C0.43948 14.8417 0.430121 14.7869 0.43163 14.7318C0.433569 14.6243 0.477178 14.5217 0.553278 14.4457C0.629377 14.3696 0.732032 14.326 0.839635 14.3241H283.157C283.268 14.3241 283.375 14.3682 283.453 14.4468C283.532 14.5254 283.576 14.632 283.576 14.7432C283.576 14.8543 283.532 14.9609 283.453 15.0395C283.375 15.1181 283.268 15.1622 283.157 15.1622Z" fill="#E1EBF4"/>
<path d="M10.0651 9.30291C12.5542 9.30291 14.572 7.2408 14.572 4.69705C14.572 2.1533 12.5542 0.0911865 10.0651 0.0911865C7.57597 0.0911865 5.55814 2.1533 5.55814 4.69705C5.55814 7.2408 7.57597 9.30291 10.0651 9.30291Z" fill="#3778B8"/>
<path d="M25.6335 9.30291C28.1226 9.30291 30.1405 7.2408 30.1405 4.69705C30.1405 2.1533 28.1226 0.0911865 25.6335 0.0911865C23.1444 0.0911865 21.1266 2.1533 21.1266 4.69705C21.1266 7.2408 23.1444 9.30291 25.6335 9.30291Z" fill="#3778B8"/>
<path d="M41.2057 9.30291C43.6948 9.30291 45.7127 7.2408 45.7127 4.69705C45.7127 2.1533 43.6948 0.0911865 41.2057 0.0911865C38.7166 0.0911865 36.6988 2.1533 36.6988 4.69705C36.6988 7.2408 38.7166 9.30291 41.2057 9.30291Z" fill="#3778B8"/>
<path d="M273.829 2.90756H262.764C262.552 2.89331 262.353 2.79901 262.208 2.64375C262.062 2.4885 261.982 2.28389 261.982 2.07134C261.982 1.85879 262.062 1.65417 262.208 1.49892C262.353 1.34366 262.552 1.24936 262.764 1.23511H273.829C274.041 1.24936 274.24 1.34366 274.386 1.49892C274.531 1.65417 274.612 1.85879 274.612 2.07134C274.612 2.28389 274.531 2.4885 274.386 2.64375C274.24 2.79901 274.041 2.89331 273.829 2.90756Z" fill="#3778B8"/>
<path d="M270.682 6.04861H262.549C262.209 6.04861 261.94 5.67108 261.944 5.19162C261.925 5.00433 261.976 4.81648 262.087 4.66491C262.199 4.51335 262.364 4.40901 262.549 4.37238H270.682C271.026 4.37238 271.294 4.74991 271.287 5.22937C271.306 5.41665 271.255 5.60451 271.143 5.75607C271.032 5.90763 270.867 6.01197 270.682 6.04861Z" fill="#3778B8"/>
<path d="M273.829 9.18592H262.764C262.552 9.17166 262.353 9.07736 262.208 8.9221C262.062 8.76685 261.982 8.56224 261.982 8.34969C261.982 8.13714 262.062 7.93253 262.208 7.77727C262.353 7.62202 262.552 7.52772 262.764 7.51346H273.829C274.041 7.52772 274.24 7.62202 274.386 7.77727C274.531 7.93253 274.612 8.13714 274.612 8.34969C274.612 8.56224 274.531 8.76685 274.386 8.9221C274.24 9.07736 274.041 9.17166 273.829 9.18592Z" fill="#3778B8"/>
<path d="M266.115 173.377H210.611C208.78 173.375 207.025 172.648 205.73 171.354C204.435 170.06 203.707 168.306 203.705 166.476V128.489C203.707 126.659 204.435 124.905 205.73 123.611C207.025 122.318 208.78 121.59 210.611 121.588H266.115C267.946 121.589 269.703 122.316 270.998 123.61C272.294 124.904 273.022 126.659 273.024 128.489V166.48C273.021 168.31 272.292 170.063 270.997 171.357C269.702 172.65 267.946 173.376 266.115 173.377ZM210.611 125.22C209.744 125.222 208.913 125.567 208.3 126.18C207.687 126.792 207.341 127.623 207.339 128.489V166.48C207.341 167.346 207.687 168.177 208.3 168.79C208.913 169.402 209.744 169.747 210.611 169.749H266.115C266.982 169.748 267.814 169.404 268.427 168.791C269.04 168.178 269.385 167.347 269.386 166.48V128.489C269.385 127.622 269.04 126.791 268.427 126.178C267.814 125.565 266.982 125.221 266.115 125.22H210.611Z" fill="#E1EBF4"/>
<path d="M266.115 171.746H210.611C209.212 171.746 207.869 171.192 206.878 170.205C205.886 169.218 205.327 167.878 205.322 166.48V128.489C205.322 127.087 205.879 125.743 206.871 124.752C207.863 123.76 209.208 123.204 210.611 123.204H266.115C267.518 123.204 268.863 123.76 269.855 124.752C270.847 125.743 271.404 127.087 271.404 128.489V166.48C271.399 167.878 270.839 169.218 269.848 170.205C268.857 171.192 267.514 171.746 266.115 171.746Z" fill="white"/>
<path d="M243.569 135.587C243.89 133.586 242.979 132.113 240.573 131.283C238.178 129.206 234.642 128.708 232.515 132.038C231.658 131.988 230.814 132.27 230.16 132.825C229.505 133.381 229.09 134.167 229.001 135.02C227.052 137.286 229.217 145.591 229.859 148.774L233.286 148.744L240.123 148.676L243.569 148.642L244.88 141.208C245.681 139.045 245.356 137.134 243.569 135.587Z" fill="#E1EBF4"/>
<path d="M256.005 166.876C256.901 166.312 257.848 165.834 258.835 165.449L249.096 153.893L242.673 152.247L242.519 152.156L231.635 152.557L231.589 152.511L224.744 155.856L215.012 167.107C215.973 167.485 216.896 167.951 217.77 168.5L216.765 172.32H223.731L225.586 169.629H225.681C225.681 169.583 225.681 169.534 225.681 169.489L226.98 167.601C227.011 169.129 226.972 170.703 226.863 172.324H248.537C248.503 170.976 248.495 169.64 248.495 168.311L250.917 171.826C251.098 171.561 251.294 171.312 251.487 171.071L251.963 172.335H257.513L256.191 167.265C256.154 167.125 256.091 166.993 256.005 166.876Z" fill="#E1EBF4"/>
<path d="M266.115 85.832H210.611C208.779 85.83 207.023 85.1017 205.729 83.8071C204.434 82.5125 203.706 80.7573 203.705 78.927V40.9399C203.706 39.1095 204.434 37.3544 205.729 36.0598C207.023 34.7651 208.779 34.0369 210.611 34.0349H266.115C267.947 34.0359 269.704 34.7637 271 36.0584C272.295 37.3531 273.023 39.1089 273.024 40.9399V78.927C273.023 80.758 272.295 82.5137 271 83.8084C269.704 85.1032 267.947 85.831 266.115 85.832ZM210.611 37.6705C209.744 37.6715 208.912 38.0163 208.299 38.6292C207.685 39.2421 207.34 40.0731 207.339 40.9399V78.927C207.34 79.7941 207.685 80.6255 208.299 81.239C208.912 81.8525 209.743 82.1981 210.611 82.2001H266.115C266.983 82.1991 267.815 81.8538 268.428 81.2401C269.042 80.6264 269.386 79.7944 269.386 78.927V40.9399C269.386 40.0728 269.042 39.2412 268.428 38.6281C267.815 38.0149 266.983 37.6705 266.115 37.6705H210.611Z" fill="#E1EBF4"/>
<path d="M266.115 84.1973H210.611C209.208 84.1973 207.863 83.6404 206.871 82.6492C205.879 81.658 205.322 80.3137 205.322 78.9119V40.9399C205.322 39.5381 205.879 38.1938 206.871 37.2026C207.863 36.2114 209.208 35.6545 210.611 35.6545H266.115C267.518 35.6545 268.863 36.2114 269.855 37.2026C270.847 38.1938 271.404 39.5381 271.404 40.9399V78.927C271.4 80.3261 270.841 81.6666 269.849 82.6546C268.858 83.6425 267.515 84.1973 266.115 84.1973Z" fill="white"/>
<path d="M231.351 54.4027C231.519 56.0906 232.27 57.6675 233.475 58.8623C234.68 60.0571 236.264 60.7955 237.954 60.9504C239.644 61.1054 241.336 60.6674 242.738 59.7116C244.141 58.7558 245.166 57.3419 245.639 55.7127C245.873 55.4673 248.495 52.6698 247.528 50.4273C247.065 49.2203 246.81 47.9439 246.772 46.652C246.716 45.8139 246.16 44.9569 244.396 44.5076C244.396 44.5076 241.374 40.6417 237.26 42.669C237.26 42.669 235.269 42.3255 233.788 44.3906C233.788 44.3906 232.322 43.5298 231.706 45.0588C231.706 45.0588 229.987 48.181 230.618 51.3673C230.806 52.392 231.05 53.4054 231.351 54.4027Z" fill="#E1EBF4"/>
<path d="M258.079 80.8222C256.837 75.2272 255.28 73.3622 255.28 73.3622L254.679 72.9318L253.758 72.2711L253.693 72.222L247.502 69.266L243.263 65.3397C242.822 64.9308 242.244 64.7019 241.642 64.6979L234.785 64.6488C234.413 64.6454 234.045 64.7286 233.711 64.8917C233.377 65.0549 233.085 65.2935 232.859 65.5888L230.694 68.3976L222.326 71.0064L221.325 71.5614C221.325 71.5614 218.526 75.2913 218.526 78.7118C218.526 79.4857 218.348 81.7773 218.076 84.858H258.499C258.457 83.5043 258.317 82.1554 258.079 80.8222Z" fill="#E1EBF4"/>
<path d="M231.468 137.135H158.904C156.51 137.133 154.214 136.181 152.52 134.49C150.827 132.798 149.874 130.504 149.871 128.112V78.4437C149.874 76.0506 150.827 73.7564 152.52 72.0642C154.213 70.372 156.509 69.42 158.904 69.417H231.468C233.863 69.419 236.16 70.3707 237.853 72.0631C239.547 73.7555 240.499 76.0503 240.501 78.4437V128.112C240.498 130.504 239.545 132.798 237.852 134.49C236.159 136.181 233.863 137.133 231.468 137.135ZM158.904 74.1663C157.769 74.1673 156.682 74.6184 155.88 75.4205C155.078 76.2225 154.627 77.3099 154.627 78.4437V128.112C154.628 129.245 155.079 130.331 155.881 131.132C156.683 131.934 157.77 132.384 158.904 132.385H231.468C232.603 132.384 233.69 131.934 234.493 131.133C235.295 130.331 235.747 129.245 235.749 128.112V78.4437C235.747 77.3099 235.295 76.2231 234.493 75.4213C233.691 74.6196 232.603 74.1683 231.468 74.1663H158.904Z" fill="#E1EBF4"/>
<path d="M231.468 71.5538H158.904C157.076 71.5558 155.323 72.2824 154.031 73.5741C152.738 74.8657 152.011 76.617 152.009 78.4438V128.112C152.012 129.938 152.74 131.688 154.032 132.979C155.325 134.27 157.077 134.996 158.904 134.998H231.468C233.296 134.996 235.048 134.27 236.34 132.979C237.632 131.688 238.36 129.938 238.363 128.112V78.4438C238.361 76.617 237.634 74.8657 236.341 73.5741C235.049 72.2824 233.296 71.5558 231.468 71.5538Z" fill="white"/>
<path d="M207.951 92.318C211.081 92.318 213.618 89.7826 213.618 86.655C213.618 83.5275 211.081 80.9921 207.951 80.9921C204.822 80.9921 202.285 83.5275 202.285 86.655C202.285 89.7826 204.822 92.318 207.951 92.318Z" fill="#4D4E4E"/>
<path d="M196.312 111.561C204.24 111.561 210.668 105.138 210.668 97.2145C210.668 89.2913 204.24 82.8683 196.312 82.8683C188.384 82.8683 181.956 89.2913 181.956 97.2145C181.956 105.138 188.384 111.561 196.312 111.561Z" fill="#4D4E4E"/>
<path d="M205.269 102.977C206.487 96.6549 202.346 90.5425 196.019 89.325C189.693 88.1075 183.576 92.2459 182.358 98.5683C181.14 104.891 185.281 111.003 191.608 112.221C197.934 113.438 204.051 109.3 205.269 102.977Z" fill="#AB6D64"/>
<path d="M189.421 86.2586C191.686 85.4909 194.116 85.3447 196.456 85.8354C198.797 86.3261 200.963 87.4356 202.729 89.0481C204.494 90.6607 205.794 92.7171 206.492 95.0029C207.191 97.2887 207.263 99.72 206.701 102.043C205.998 104.939 181.291 98.4528 182.413 91.8498C182.84 89.4072 187.393 86.9457 189.421 86.2586Z" fill="#4D4E4E"/>
<path d="M216.444 72.7959C220.66 71.8936 225.277 73.7851 227.849 77.2395C230.422 80.6939 230.94 85.5074 229.398 89.5281C227.827 93.6318 224.43 96.7011 221.253 99.7553C218.076 102.81 214.884 106.173 213.932 110.481C213.245 113.573 213.814 116.811 215.514 119.483C217.214 122.156 219.906 124.046 222.999 124.736C219.02 125.492 214.88 126.247 210.974 125.174C207.067 124.102 203.497 120.644 203.72 116.62C203.883 113.709 205.87 111.278 207.6 108.929C210.415 105.105 212.759 100.957 214.582 96.5728C215.45 94.4775 216.214 92.2425 215.968 89.9886C215.747 88.3105 214.993 86.7476 213.816 85.5303C212.64 84.3129 211.103 83.5055 209.432 83.2271L208.39 81.766C208.726 77.4849 212.232 73.7096 216.444 72.7959Z" fill="#4D4E4E"/>
<path d="M220.581 134.677C219.825 126.983 215.556 127.285 215.556 127.285L204.283 125.084L199.346 116.891L186.951 116.408L182.523 124.14L173.456 125.273V125.401C172.557 125.469 169.301 126.179 168.666 132.789C168.605 133.397 168.522 134.141 168.416 134.998H220.615C220.603 134.869 220.592 134.779 220.581 134.677Z" fill="#C83898"/>
</g>
<defs>
<clipPath id="clip0_114_477">
<rect width="283.137" height="215.343" fill="white" transform="translate(0.43161 0.0911865)"/>
</clipPath>
</defs>
</svg>
