<svg xmlns="http://www.w3.org/2000/svg" width="306" height="225" fill="none" viewBox="0 0 306 225"><g clip-path="url(#clip0_114_477)"><path fill="#E1EBF4" d="M189.393 180.898H9.6356C7.65682 180.896 5.7597 180.109 4.36049 178.711C2.96128 177.312 2.17425 175.417 2.17209 173.439V44.5594C2.17532 42.5819 2.96257 40.6863 4.36143 39.2876C5.76029 37.8889 7.65678 37.1011 9.6356 37.0968H189.393C191.372 37.1 193.27 37.8873 194.67 39.2861C196.069 40.6849 196.857 42.5812 196.86 44.5594V173.439C196.858 175.417 196.071 177.314 194.671 178.712C193.27 180.111 191.372 180.897 189.393 180.898ZM9.6356 41.026C8.69819 41.0271 7.79948 41.3997 7.13662 42.0621C6.47377 42.7245 6.1009 43.6226 6.09982 44.5594V173.439C6.10198 174.376 6.47519 175.273 7.13781 175.935C7.80043 176.597 8.69852 176.97 9.6356 176.973H189.393C190.33 176.971 191.229 176.599 191.892 175.936C192.555 175.274 192.927 174.376 192.929 173.439V44.5594C192.929 44.0954 192.837 43.6359 192.659 43.2072C192.482 42.7785 192.221 42.389 191.893 42.0609C191.565 41.7328 191.175 41.4725 190.746 41.295C190.317 41.1174 189.857 41.026 189.393 41.026H9.6356Z"/><path fill="#E1EBF4" d="M109.972 212.872C111.252 204.993 105.898 197.57 98.0146 196.291C90.1309 195.012 82.7024 200.362 81.4227 208.24C80.143 216.119 85.4966 223.542 93.3803 224.821C101.264 226.1 108.692 220.75 109.972 212.872Z"/><path fill="#fff" d="M106.643 212.332C107.625 206.29 103.519 200.598 97.4742 199.618C91.429 198.637 85.7329 202.739 84.7516 208.78C83.7703 214.822 87.8755 220.514 93.9207 221.495C99.9659 222.475 105.662 218.373 106.643 212.332Z"/><path fill="#3778B8" d="M101.256 216.599C101.121 216.599 100.992 216.546 100.896 216.452L89.7826 205.346C89.6884 205.251 89.6357 205.123 89.6361 204.989C89.6365 204.856 89.6899 204.728 89.7847 204.634C89.8794 204.54 90.0077 204.487 90.1413 204.487C90.275 204.488 90.4029 204.541 90.4972 204.636L101.607 215.738C101.676 215.809 101.724 215.898 101.743 215.996C101.762 216.093 101.752 216.194 101.714 216.286C101.676 216.378 101.612 216.456 101.53 216.512C101.448 216.568 101.351 216.598 101.251 216.599H101.256Z"/><path fill="#3778B8" d="M101.966 211.617C102.071 211.453 102.127 211.263 102.127 211.068C102.127 210.874 102.071 210.683 101.966 210.52C101.157 209.255 100.09 208.174 98.8344 207.349C97.5624 206.502 96.0721 206.04 94.5433 206.019C93.7713 206.021 93.0047 206.148 92.2732 206.395C92.2574 206.4 92.2429 206.408 92.2303 206.419C92.2178 206.429 92.2076 206.443 92.2004 206.458C92.1931 206.472 92.189 206.489 92.1882 206.505C92.1873 206.522 92.1899 206.538 92.1956 206.554C92.202 206.572 92.2117 206.588 92.2242 206.603L93.7185 208.092C93.7334 208.108 93.7523 208.119 93.7732 208.125C93.7941 208.131 93.8161 208.13 93.837 208.125C94.2247 208.028 94.6275 208.01 95.0225 208.07C95.4174 208.13 95.7965 208.267 96.138 208.474C96.4795 208.682 96.7767 208.954 97.0124 209.276C97.2482 209.599 97.4178 209.964 97.5116 210.352C97.7688 211.559 98.3569 212.671 99.21 213.563L99.6836 214.037C99.7074 214.057 99.7379 214.069 99.7694 214.069C99.8009 214.069 99.8314 214.057 99.8551 214.037C100.675 213.34 101.387 212.524 101.966 211.617Z"/><path fill="#3778B8" d="M96.793 212.886C95.9895 212.886 95.2189 212.567 94.6508 211.999C94.0826 211.431 93.7635 210.661 93.7635 209.859C93.7699 209.594 93.7239 209.331 93.6278 209.084C93.5318 208.838 93.3878 208.613 93.2041 208.422L91.7057 206.925C91.6828 206.902 91.652 206.89 91.6199 206.89C91.5879 206.89 91.5571 206.902 91.5342 206.925C90.7286 207.627 90.0165 208.429 89.4152 209.312C89.3014 209.476 89.2387 209.67 89.2351 209.87C89.2314 210.069 89.287 210.266 89.3948 210.434C90.1911 211.701 91.2491 212.783 92.4978 213.608C93.764 214.445 95.2464 214.896 96.7644 214.906C97.5433 214.902 98.317 214.779 99.059 214.543C99.0903 214.531 99.1162 214.509 99.1313 214.479C99.1465 214.45 99.1498 214.415 99.1406 214.383C99.1353 214.363 99.1239 214.344 99.108 214.33L97.6095 212.833C97.5938 212.819 97.5749 212.808 97.5543 212.802C97.5337 212.797 97.512 212.796 97.4911 212.8C97.2626 212.856 97.0282 212.885 96.793 212.886Z"/><path fill="#E1EBF4" d="M40.8207 225C48.8076 225 55.2823 218.53 55.2823 210.548C55.2823 202.567 48.8076 196.096 40.8207 196.096C32.8338 196.096 26.3591 202.567 26.3591 210.548C26.3591 218.53 32.8338 225 40.8207 225Z"/><path fill="#fff" d="M40.8207 221.63C46.945 221.63 51.9098 216.668 51.9098 210.548C51.9098 204.428 46.945 199.466 40.8207 199.466C34.6963 199.466 29.7316 204.428 29.7316 210.548C29.7316 216.668 34.6963 221.63 40.8207 221.63Z"/><path fill="#3778B8" d="M45.0791 217.615C44.4667 217.615 43.6011 217.391 42.3028 216.668C40.6924 215.807 39.2222 214.706 37.9423 213.404C36.6201 212.142 35.5164 210.669 34.6759 209.047C33.5123 206.933 33.7124 205.827 33.9329 205.354C34.191 204.841 34.5942 204.416 35.0924 204.13C35.3775 203.942 35.6796 203.781 35.9947 203.649L36.0805 203.612C36.1849 203.552 36.3008 203.516 36.4205 203.504C36.5401 203.493 36.6609 203.507 36.7745 203.547C37.0266 203.667 37.2506 203.84 37.4319 204.052C38.0845 204.791 38.6339 205.615 39.065 206.501C39.2414 206.808 39.3512 207.148 39.3876 207.5C39.3589 207.849 39.2153 208.179 38.9793 208.439L38.8568 208.602C38.6159 208.916 38.5629 209.01 38.5996 209.173C38.669 209.499 39.7346 209.785 40.6002 210.642C41.4658 211.499 41.8659 212.682 42.1966 212.755C42.364 212.792 42.4579 212.755 42.7846 212.486L42.9275 212.376C43.1911 212.137 43.5276 211.993 43.8829 211.968C44.2407 212.004 44.5849 212.124 44.8872 212.319C45.7681 212.76 46.5909 213.308 47.337 213.951C47.55 214.13 47.7225 214.353 47.8433 214.604C47.8831 214.718 47.8982 214.839 47.8876 214.959C47.8771 215.079 47.8411 215.196 47.782 215.301L47.7453 215.387C47.6102 215.701 47.4476 216.003 47.2594 216.289C46.9721 216.785 46.5465 217.186 46.0345 217.444C45.7325 217.57 45.4063 217.629 45.0791 217.615Z"/><path fill="#E1EBF4" d="M150.993 225C158.98 225 165.455 218.53 165.455 210.548C165.455 202.567 158.98 196.096 150.993 196.096C143.006 196.096 136.532 202.567 136.532 210.548C136.532 218.53 143.006 225 150.993 225Z"/><path fill="#fff" d="M150.993 221.63C157.118 221.63 162.082 216.668 162.082 210.548C162.082 204.428 157.118 199.466 150.993 199.466C144.869 199.466 139.904 204.428 139.904 210.548C139.904 216.668 144.869 221.63 150.993 221.63Z"/><path fill="#3778B8" d="M155.035 208.496C154.969 208.495 154.903 208.508 154.842 208.533C154.78 208.558 154.725 208.595 154.678 208.641C154.631 208.688 154.593 208.743 154.568 208.805C154.542 208.866 154.529 208.931 154.529 208.998V210.01C154.529 211.96 152.945 212.531 150.993 212.531C149.042 212.531 147.457 211.96 147.457 210.01V208.998C147.446 208.872 147.388 208.755 147.295 208.67C147.202 208.584 147.08 208.537 146.953 208.537C146.827 208.537 146.705 208.584 146.612 208.67C146.518 208.755 146.46 208.872 146.449 208.998V210.01C146.451 211.126 146.863 212.202 147.608 213.034C148.352 213.867 149.377 214.396 150.487 214.522V216.562C150.488 216.696 150.542 216.824 150.636 216.919C150.731 217.013 150.859 217.067 150.993 217.068C151.127 217.067 151.255 217.013 151.35 216.919C151.445 216.824 151.498 216.696 151.5 216.562V214.522C152.616 214.401 153.649 213.872 154.398 213.036C155.147 212.199 155.56 211.116 155.558 209.993V208.981C155.556 208.915 155.541 208.85 155.513 208.789C155.486 208.729 155.447 208.675 155.398 208.63C155.349 208.585 155.292 208.549 155.23 208.526C155.168 208.503 155.102 208.493 155.035 208.496Z"/><path fill="#3778B8" d="M150.993 211.087C150.374 211.1 149.761 210.96 149.209 210.679C149.01 210.6 148.836 210.469 148.706 210.299C148.576 210.13 148.494 209.928 148.47 209.716V207.839C148.47 207.092 149.585 206.488 150.973 206.484H150.993C152.373 206.484 153.504 207.072 153.521 207.81V209.72C153.516 210.471 152.398 211.083 150.993 211.087Z"/><path fill="#fff" d="M189.393 179.119H9.63561C8.12881 179.113 6.68506 178.514 5.61844 177.45C4.55181 176.386 3.94859 174.945 3.93999 173.439V44.5594C3.93999 43.0444 4.54221 41.5915 5.61418 40.5202C6.68614 39.449 8.14004 38.8472 9.65603 38.8472H189.393C190.909 38.8472 192.363 39.449 193.435 40.5202C194.507 41.5915 195.109 43.0444 195.109 44.5594V173.439C195.1 174.948 194.494 176.393 193.423 177.457C192.352 178.521 190.903 179.119 189.393 179.119Z"/><path fill="#AB6D64" d="M98.6343 118.736C109.142 118.736 117.661 110.224 117.661 99.723C117.661 89.2221 109.142 80.7095 98.6343 80.7095C88.1264 80.7095 79.6081 89.2221 79.6081 99.723C79.6081 110.224 88.1264 118.736 98.6343 118.736Z"/><path fill="#4D4E4E" d="M80.6615 84.7692C81.1623 83.6284 81.8807 82.5959 82.7764 81.7295C87.1247 77.6493 92.6937 76.1764 98.5486 76.1152C104.469 76.054 111.316 77.5351 115.333 82.4313C117.542 85.1283 118.289 88.2904 118.759 91.6647C119.33 95.7652 117.477 98.9641 116.975 103.036C116.975 103.036 119.077 85.879 106.98 87.0704C101.941 87.5641 96.8746 87.0704 91.8241 87.1194C89.1539 87.1194 87.3778 86.5441 85.1608 88.1149C82.7968 89.7919 82.8417 91.7504 82.3967 94.2352C82.0776 95.8835 81.6382 97.5063 81.082 99.0905C80.8207 99.8862 80.5431 100.678 80.2654 101.473C80.147 101.828 79.7306 102.624 79.8122 102.995C79.3517 101.032 79.058 99.0342 78.9344 97.0219C78.8773 95.6306 78.8446 94.2352 78.8977 92.8438C78.9523 90.063 79.5515 87.3198 80.6615 84.7692Z"/><path fill="#F79F28" d="M46.896 178.935H152.136C151.434 170.913 150.973 164.944 150.973 162.925C150.973 154.022 143.685 144.307 143.685 144.307L141.076 142.867C137.373 140.826 132.951 140.316 128.95 139.088C126.667 138.387 124.389 137.664 122.111 136.954C121.58 136.787 119.641 136.546 119.286 136.073L113.647 128.753C113.057 127.984 112.296 127.363 111.425 126.938C110.553 126.513 109.595 126.297 108.625 126.305L90.8115 126.436C89.2453 126.45 87.7404 127.047 86.5898 128.109C82.2742 132.103 78.2118 136.869 72.8673 139.68C67.3064 142.601 60.5941 144.197 55.9192 148.697C51.0197 153.401 49.358 162.084 47.9494 168.425C47.4635 170.616 47.1206 174.284 46.896 178.935Z"/><path fill="#E1EBF4" d="M305.555 16.288H0.440954C0.381432 16.2864 0.322806 16.2731 0.268427 16.2489C0.214048 16.2246 0.164981 16.1899 0.124031 16.1467C0.0830801 16.1035 0.051049 16.0527 0.0297676 15.9971C0.00848618 15.9416 -0.00162832 15.8823 2.09732e-06 15.8229C0.00209796 15.7066 0.0492281 15.5958 0.131473 15.5136C0.213717 15.4314 0.324661 15.3843 0.440954 15.3822H305.555C305.675 15.3822 305.79 15.4299 305.875 15.5149C305.96 15.5998 306.008 15.715 306.008 15.8351C306.008 15.9552 305.96 16.0704 305.875 16.1553C305.79 16.2403 305.675 16.288 305.555 16.288Z"/><path fill="#3778B8" d="M10.4114 9.95557C13.1015 9.95557 15.2822 7.72694 15.2822 4.97779C15.2822 2.22863 13.1015 0 10.4114 0C7.72125 0 5.54048 2.22863 5.54048 4.97779C5.54048 7.72694 7.72125 9.95557 10.4114 9.95557Z"/><path fill="#3778B8" d="M27.2369 9.95557C29.927 9.95557 32.1078 7.72694 32.1078 4.97779C32.1078 2.22863 29.927 0 27.2369 0C24.5468 0 22.366 2.22863 22.366 4.97779C22.366 7.72694 24.5468 9.95557 27.2369 9.95557Z"/><path fill="#3778B8" d="M44.0666 9.95557C46.7567 9.95557 48.9375 7.72694 48.9375 4.97779C48.9375 2.22863 46.7567 0 44.0666 0C41.3765 0 39.1957 2.22863 39.1957 4.97779C39.1957 7.72694 41.3765 9.95557 44.0666 9.95557Z"/><path fill="#3778B8" d="M295.474 3.04384H283.516C283.286 3.02843 283.071 2.92651 282.914 2.75872C282.757 2.59093 282.67 2.3698 282.67 2.14008C282.67 1.91037 282.757 1.68923 282.914 1.52144C283.071 1.35365 283.286 1.25174 283.516 1.23633H295.474C295.704 1.25174 295.919 1.35365 296.076 1.52144C296.233 1.68923 296.32 1.91037 296.32 2.14008C296.32 2.3698 296.233 2.59093 296.076 2.75872C295.919 2.92651 295.704 3.02843 295.474 3.04384Z"/><path fill="#3778B8" d="M292.073 6.43854H283.283C282.915 6.43854 282.625 6.03053 282.63 5.51235C282.608 5.30994 282.664 5.10692 282.784 4.94311C282.905 4.77931 283.083 4.66655 283.283 4.62695H292.073C292.445 4.62695 292.735 5.03497 292.727 5.55315C292.748 5.75556 292.693 5.95858 292.572 6.12238C292.451 6.28618 292.273 6.39894 292.073 6.43854Z"/><path fill="#3778B8" d="M295.474 9.82911H283.516C283.286 9.81371 283.071 9.71179 282.914 9.544C282.757 9.37621 282.67 9.15507 282.67 8.92536C282.67 8.69565 282.757 8.47451 282.914 8.30672C283.071 8.13893 283.286 8.03702 283.516 8.02161H295.474C295.704 8.03702 295.919 8.13893 296.076 8.30672C296.233 8.47451 296.32 8.69565 296.32 8.92536C296.32 9.15507 296.233 9.37621 296.076 9.544C295.919 9.71179 295.704 9.81371 295.474 9.82911Z"/><path fill="#E1EBF4" d="M287.137 187.279H227.151C225.173 187.277 223.275 186.49 221.876 185.092C220.477 183.694 219.69 181.798 219.688 179.821V138.766C219.69 136.789 220.477 134.893 221.876 133.494C223.275 132.096 225.173 131.31 227.151 131.307H287.137C289.117 131.309 291.015 132.095 292.415 133.493C293.815 134.891 294.603 136.788 294.605 138.766V179.825C294.601 181.802 293.813 183.697 292.413 185.095C291.013 186.492 289.116 187.278 287.137 187.279ZM227.151 135.233C226.214 135.235 225.316 135.608 224.654 136.27C223.991 136.932 223.618 137.83 223.616 138.766V179.825C223.618 180.761 223.991 181.659 224.654 182.321C225.316 182.983 226.214 183.356 227.151 183.358H287.137C288.075 183.357 288.973 182.984 289.636 182.322C290.299 181.659 290.672 180.761 290.673 179.825V138.766C290.672 137.829 290.299 136.931 289.636 136.269C288.973 135.606 288.075 135.234 287.137 135.233H227.151Z"/><path fill="#fff" d="M287.137 185.516H227.151C225.639 185.516 224.188 184.917 223.117 183.85C222.045 182.784 221.441 181.336 221.435 179.824V138.766C221.435 137.251 222.038 135.798 223.109 134.727C224.181 133.656 225.635 133.054 227.151 133.054H287.137C288.653 133.054 290.107 133.656 291.179 134.727C292.251 135.798 292.853 137.251 292.853 138.766V179.824C292.848 181.336 292.243 182.784 291.172 183.85C290.1 184.917 288.65 185.516 287.137 185.516Z"/><path fill="#E1EBF4" d="M262.77 146.437C263.117 144.274 262.133 142.683 259.533 141.785C256.944 139.541 253.123 139.003 250.824 142.601C249.898 142.547 248.986 142.852 248.279 143.452C247.571 144.052 247.123 144.902 247.027 145.825C244.92 148.273 247.26 157.249 247.954 160.689L251.657 160.656L259.047 160.583L262.77 160.546L264.187 152.512C265.053 150.174 264.702 148.109 262.77 146.437Z"/><path fill="#E1EBF4" d="M276.211 180.253C277.179 179.643 278.203 179.126 279.269 178.711L268.744 166.221L261.803 164.442L261.635 164.344L249.873 164.777L249.824 164.728L242.425 168.343L231.908 180.502C232.946 180.911 233.944 181.415 234.888 182.007L233.802 186.137H241.331L243.336 183.227H243.438C243.438 183.178 243.438 183.125 243.438 183.076L244.842 181.036C244.875 182.687 244.833 184.389 244.716 186.141H268.139C268.103 184.684 268.095 183.24 268.095 181.803L270.712 185.602C270.908 185.316 271.12 185.047 271.328 184.786L271.843 186.153H277.84L276.411 180.673C276.372 180.522 276.304 180.379 276.211 180.253Z"/><path fill="#E1EBF4" d="M287.137 92.6644H227.151C225.172 92.6622 223.274 91.8752 221.875 90.476C220.475 89.0768 219.689 87.18 219.688 85.2018V44.1473C219.689 42.1691 220.475 40.2722 221.875 38.8731C223.274 37.4739 225.172 36.6869 227.151 36.6847H287.137C289.117 36.6858 291.016 37.4724 292.416 38.8716C293.816 40.2709 294.604 42.1684 294.605 44.1473V85.2018C294.604 87.1807 293.816 89.0782 292.416 90.4774C291.016 91.8767 289.117 92.6633 287.137 92.6644ZM227.151 40.6139C226.214 40.615 225.315 40.9876 224.652 41.65C223.989 42.3124 223.617 43.2105 223.616 44.1473V85.2018C223.617 86.1389 223.989 87.0375 224.652 87.7005C225.315 88.3636 226.214 88.7371 227.151 88.7393H287.137C288.075 88.7382 288.975 88.365 289.638 87.7017C290.3 87.0384 290.673 86.1393 290.673 85.2018V44.1473C290.673 43.2102 290.3 42.3114 289.637 41.6488C288.974 40.9861 288.075 40.6139 287.137 40.6139H227.151Z"/><path fill="#fff" d="M287.137 90.8977H227.151C225.635 90.8977 224.181 90.2958 223.109 89.2246C222.038 88.1533 221.435 86.7004 221.435 85.1854V44.1473C221.435 42.6323 222.038 41.1794 223.109 40.1081C224.181 39.0369 225.635 38.4351 227.151 38.4351H287.137C288.653 38.4351 290.107 39.0369 291.179 40.1081C292.251 41.1794 292.853 42.6323 292.853 44.1473V85.2018C292.849 86.7139 292.245 88.1626 291.173 89.2304C290.102 90.2981 288.65 90.8977 287.137 90.8977Z"/><path fill="#E1EBF4" d="M249.566 58.6971C249.748 60.5213 250.56 62.2255 251.862 63.5168C253.164 64.8081 254.876 65.6061 256.702 65.7736C258.529 65.9411 260.357 65.4677 261.873 64.4347C263.389 63.4018 264.497 61.8737 265.008 60.1129C265.261 59.8477 268.095 56.8243 267.049 54.4007C266.549 53.0962 266.273 51.7168 266.233 50.3205C266.171 49.4147 265.571 48.4885 263.665 48.003C263.665 48.003 260.398 43.8249 255.952 46.016C255.952 46.016 253.8 45.6447 252.2 47.8765C252.2 47.8765 250.616 46.9462 249.95 48.5987C249.95 48.5987 248.092 51.973 248.774 55.4166C248.977 56.5241 249.241 57.6193 249.566 58.6971Z"/><path fill="#E1EBF4" d="M278.453 87.25C277.11 81.2032 275.427 79.1876 275.427 79.1876L274.778 78.7225L273.782 78.0084L273.713 77.9554L267.021 74.7606L262.44 70.5173C261.963 70.0754 261.338 69.828 260.688 69.8237L253.278 69.7706C252.876 69.767 252.478 69.8569 252.117 70.0332C251.755 70.2095 251.44 70.4674 251.195 70.7866L248.856 73.8222L239.812 76.6416L238.73 77.2414C238.73 77.2414 235.705 81.2726 235.705 84.9692C235.705 85.8056 235.513 88.2823 235.219 91.6117H278.906C278.861 90.1487 278.71 88.6909 278.453 87.25Z"/><path fill="#E1EBF4" d="M249.693 148.11H171.269C168.681 148.107 166.2 147.079 164.37 145.251C162.54 143.423 161.51 140.944 161.507 138.358V84.6795C161.51 82.0931 162.539 79.6136 164.37 77.7848C166.2 75.9559 168.681 74.9271 171.269 74.9238H249.693C252.281 74.926 254.763 75.9545 256.593 77.7836C258.424 79.6126 259.453 82.0928 259.455 84.6795V138.358C259.452 140.944 258.422 143.423 256.592 145.251C254.762 147.079 252.281 148.107 249.693 148.11ZM171.269 80.0567C170.043 80.0577 168.867 80.5453 168.001 81.4121C167.134 82.2789 166.647 83.4541 166.647 84.6795V138.358C166.648 139.583 167.135 140.757 168.002 141.623C168.868 142.489 170.043 142.976 171.269 142.977H249.693C250.919 142.976 252.094 142.489 252.961 141.623C253.828 140.757 254.317 139.583 254.319 138.358V84.6795C254.317 83.4541 253.829 82.2795 252.962 81.413C252.095 80.5466 250.919 80.0588 249.693 80.0567H171.269Z"/><path fill="#fff" d="M249.693 77.2332H171.269C169.293 77.2353 167.399 78.0205 166.002 79.4165C164.606 80.8125 163.82 82.7052 163.818 84.6794V138.358C163.821 140.331 164.607 142.223 166.004 143.618C167.401 145.013 169.294 145.798 171.269 145.8H249.693C251.668 145.798 253.561 145.013 254.958 143.618C256.355 142.223 257.141 140.331 257.144 138.358V84.6794C257.142 82.7052 256.356 80.8125 254.959 79.4165C253.562 78.0205 251.668 77.2353 249.693 77.2332Z"/><path fill="#4D4E4E" d="M224.277 99.6741C227.659 99.6741 230.401 96.9339 230.401 93.5538C230.401 90.1737 227.659 87.4336 224.277 87.4336C220.895 87.4336 218.153 90.1737 218.153 93.5538C218.153 96.9339 220.895 99.6741 224.277 99.6741Z"/><path fill="#4D4E4E" d="M211.698 120.471C220.266 120.471 227.213 113.529 227.213 104.966C227.213 96.4031 220.266 89.4614 211.698 89.4614C203.129 89.4614 196.183 96.4031 196.183 104.966C196.183 113.529 203.129 120.471 211.698 120.471Z"/><path fill="#AB6D64" d="M221.378 111.194C222.695 104.361 218.219 97.7552 211.382 96.4394C204.544 95.1235 197.934 99.5961 196.617 106.429C195.3 113.262 199.776 119.868 206.613 121.184C213.451 122.5 220.061 118.027 221.378 111.194Z"/><path fill="#4D4E4E" d="M204.25 93.1253C206.698 92.2956 209.324 92.1377 211.854 92.668C214.383 93.1983 216.724 94.3974 218.632 96.1401C220.54 97.8829 221.945 100.105 222.7 102.576C223.455 105.046 223.533 107.674 222.926 110.184C222.166 113.314 195.464 106.304 196.677 99.168C197.138 96.5282 202.058 93.8679 204.25 93.1253Z"/><path fill="#4D4E4E" d="M233.455 78.5756C238.012 77.6005 243.001 79.6446 245.782 83.378C248.562 87.1113 249.121 92.3135 247.456 96.6589C245.757 101.094 242.087 104.411 238.653 107.712C235.219 111.013 231.769 114.648 230.74 119.304C229.998 122.645 230.613 126.144 232.45 129.033C234.287 131.922 237.197 133.964 240.539 134.71C236.24 135.526 231.765 136.342 227.543 135.184C223.322 134.025 219.463 130.287 219.704 125.938C219.88 122.792 222.027 120.165 223.897 117.627C226.94 113.494 229.473 109.01 231.442 104.272C232.381 102.008 233.206 99.5925 232.941 97.1566C232.702 95.343 231.887 93.6539 230.616 92.3383C229.344 91.0226 227.683 90.15 225.877 89.8491L224.751 88.2701C225.114 83.6432 228.903 79.563 233.455 78.5756Z"/><path fill="#C83898" d="M237.926 145.453C237.109 137.138 232.496 137.464 232.496 137.464L220.312 135.086L214.976 126.232L201.58 125.709L196.795 134.066L186.996 135.29V135.428C186.024 135.502 182.505 136.269 181.819 143.413C181.754 144.07 181.664 144.874 181.55 145.8H237.963C237.951 145.661 237.938 145.563 237.926 145.453Z"/></g><defs><clipPath id="clip0_114_477"><rect width="306" height="225" fill="#fff"/></clipPath></defs></svg>