<svg xmlns="http://www.w3.org/2000/svg" width="34" height="46" fill="none" viewBox="0 0 34 46"><g clip-path="url(#clip0_82_4)"><path fill="#4D4E4E" d="M7.13747 19.4613V30.7046C7.13747 32.6202 7.92722 34.4573 9.33298 35.8118C10.7387 37.1663 12.6454 37.9273 14.6334 37.9273C16.6215 37.9273 18.5281 37.1663 19.9338 35.8118C21.3396 34.4573 22.1293 32.6202 22.1293 30.7046V23.3884H29.2631V30.7046C29.2631 34.4437 27.7215 38.0296 24.9776 40.6735C22.2337 43.3174 18.5121 44.8028 14.6315 44.8028C10.751 44.8028 7.02942 43.3174 4.28548 40.6735C1.54153 38.0296 0 34.4437 0 30.7046V12.5876H33.3406V19.4613H7.13747Z"/><path fill="#C83898" d="M3.5678 8.65872C5.53824 8.65872 7.1356 7.11959 7.1356 5.22098C7.1356 3.32236 5.53824 1.78323 3.5678 1.78323C1.59736 1.78323 0 3.32236 0 5.22098C0 7.11959 1.59736 8.65872 3.5678 8.65872Z"/><path fill="#F79F28" d="M14.6315 8.65872C16.602 8.65872 18.1993 7.11959 18.1993 5.22098C18.1993 3.32236 16.602 1.78323 14.6315 1.78323C12.6611 1.78323 11.0637 3.32236 11.0637 5.22098C11.0637 7.11959 12.6611 8.65872 14.6315 8.65872Z"/><path fill="#3778B8" d="M25.6952 8.65872C27.6657 8.65872 29.263 7.11959 29.263 5.22098C29.263 3.32236 27.6657 1.78323 25.6952 1.78323C23.7248 1.78323 22.1274 3.32236 22.1274 5.22098C22.1274 7.11959 23.7248 8.65872 25.6952 8.65872Z"/></g><defs><clipPath id="clip0_82_4"><rect width="33.341" height="45.464" fill="#fff" transform="translate(0 0.267792)"/></clipPath></defs></svg>