<svg xmlns="http://www.w3.org/2000/svg" width="637" height="483" fill="none" viewBox="0 0 637 483"><path fill="#CDE4F9" d="M275.465 433.429C283.689 426.488 288.68 415.527 287.366 404.85C286.051 394.173 277.952 384.366 267.427 382.103C256.903 379.839 244.896 386.079 241.725 396.374C239.949 376.573 237.942 355.947 227.409 339.093C217.87 323.827 201.352 312.901 183.456 310.949C165.56 308.996 146.706 316.372 135.542 330.475C124.378 344.578 121.643 365.089 129.458 381.339C135.222 393.277 145.835 402.17 156.99 409.394C192.919 432.565 236.013 441.989 278.342 435.932"/><path fill="#fff" d="M153.242 316.78C168.013 328.805 181.563 342.254 193.696 356.932C212.689 379.821 228.058 405.485 239.265 433.03C240.091 435.036 236.823 435.914 236.015 433.917C228.884 416.504 220.065 399.831 209.682 384.135C193.49 359.615 173.652 337.705 150.853 319.159C149.166 317.801 151.572 315.422 153.242 316.78Z"/><path fill="#CDE4F9" d="M281.14 433.429C272.925 426.488 267.934 415.527 269.239 404.85C270.545 394.173 278.662 384.366 289.177 382.103C299.693 379.839 311.691 386.079 314.88 396.374C316.656 376.573 318.672 355.947 329.196 339.093C338.734 323.827 355.253 312.901 373.158 310.949C391.062 308.996 409.908 316.372 421.072 330.475C432.236 344.578 434.971 365.089 427.147 381.339C421.392 393.277 410.779 402.17 399.659 409.394C363.73 432.564 320.636 441.988 278.307 435.932"/><path fill="#fff" d="M403.372 316.78C365.413 347.733 335.832 387.709 317.34 433.048C316.523 435.053 319.791 435.932 320.599 433.935C338.941 389.169 368.221 349.714 405.761 319.176C407.439 317.81 405.041 315.431 403.372 316.789V316.78Z"/><path fill="#CDE4F9" d="M305.537 197.033C320.742 197.033 333.068 184.715 333.068 169.52C333.068 154.324 320.742 142.006 305.537 142.006C290.331 142.006 278.005 154.324 278.005 169.52C278.005 184.715 290.331 197.033 305.537 197.033Z"/><path fill="#CDE4F9" d="M220.65 74.6777H410.335V85.0442H244.896C225.247 85.0442 206.403 92.8446 192.509 106.73C178.615 120.614 170.809 139.446 170.809 159.083V276.912H150.018C149.564 276.912 149.114 276.823 148.694 276.648C148.274 276.474 147.893 276.219 147.572 275.898C147.251 275.576 146.997 275.195 146.824 274.775C146.651 274.355 146.562 273.905 146.564 273.451V148.716C146.564 129.08 154.369 110.248 168.263 96.3631C182.157 82.4782 201.001 74.6777 220.65 74.6777Z"/><path fill="#3778B8" d="M257.134 434.006V276.468H303.316V434.006C303.314 435.065 302.892 436.079 302.143 436.828C301.394 437.576 300.379 437.998 299.32 438H261.131C260.071 438 259.054 437.579 258.305 436.83C257.555 436.081 257.134 435.066 257.134 434.006Z"/><path fill="#3778B8" d="M136.794 273.362V145.263C136.813 124.869 144.927 105.316 159.357 90.8944C173.786 76.4729 193.351 68.3615 213.759 68.3403H409.446V277.799H141.235C140.057 277.799 138.928 277.332 138.095 276.5C137.262 275.667 136.794 274.539 136.794 273.362ZM407.67 70.1154H213.759C193.822 70.1366 174.709 78.061 160.613 92.1496C146.517 106.238 138.589 125.34 138.57 145.263V273.362C138.57 274.068 138.851 274.745 139.351 275.244C139.85 275.744 140.528 276.024 141.235 276.024H407.67V70.1154Z"/><path fill="#3778B8" d="M305.537 183.72C301.297 183.72 297.231 182.037 294.233 179.041C291.235 176.045 289.55 171.982 289.55 167.745V53.2523C289.55 52.5461 289.27 51.8689 288.77 51.3695C288.27 50.8702 287.593 50.5897 286.886 50.5897H224.718C223.54 50.5897 222.411 50.1221 221.578 49.2899C220.745 48.4577 220.277 47.3289 220.277 46.152V4.43769C220.277 3.26074 220.745 2.132 221.578 1.29977C222.411 0.467541 223.54 0 224.718 0L317.082 0C318.26 0 319.389 0.467541 320.222 1.29977C321.055 2.132 321.523 3.26074 321.523 4.43769V167.745C321.523 171.982 319.838 176.045 316.84 179.041C313.843 182.037 309.776 183.72 305.537 183.72Z"/><path fill="#3778B8" d="M416.551 66.5656C429.948 66.5396 442.807 71.832 452.3 81.279C461.793 90.726 467.144 103.554 467.174 116.942V262.774H566.643C570.637 262.774 574.468 264.355 577.297 267.171C580.127 269.987 581.725 273.809 581.741 277.8H365.929V116.942C365.941 110.312 367.261 103.75 369.812 97.6298C372.364 91.5098 376.096 85.9519 380.797 81.2738C385.498 76.5956 391.075 72.8889 397.21 70.3652C403.345 67.8415 409.917 66.5504 416.551 66.5656Z"/><path fill="#fff" d="M404.402 149.612L414.882 192.88L619.93 143.275L609.451 100.008C609.324 99.4779 609.066 98.9884 608.699 98.5849C608.333 98.1814 607.87 97.8772 607.355 97.7004C606.976 97.5667 606.575 97.5065 606.173 97.5229L487.645 36.194C486.95 35.8383 486.151 35.7431 485.392 35.9254C484.633 36.1077 483.964 36.5556 483.507 37.188L426.383 116.791L404.846 146.808C404.808 146.861 404.783 146.922 404.77 146.987C404.758 147.051 404.76 147.117 404.775 147.181C404.555 147.541 404.41 147.942 404.346 148.359C404.282 148.777 404.301 149.203 404.402 149.612Z"/><path fill="#3778B8" d="M404.757 147.181C404.766 147.237 404.786 147.292 404.817 147.341C404.847 147.39 404.887 147.432 404.935 147.465C404.99 147.502 405.053 147.527 405.118 147.54C405.184 147.552 405.251 147.55 405.317 147.536C405.424 147.51 405.518 147.447 405.583 147.358L405.654 147.252L406.782 145.69L427.147 117.288L484.253 37.7028C484.578 37.2517 485.054 36.932 485.595 36.8017C486.136 36.6715 486.706 36.7392 487.201 36.9928L604.806 97.8512L605.863 98.4015H605.996C606.075 98.3928 606.156 98.3928 606.236 98.4015C606.346 98.3667 606.438 98.2903 606.493 98.1885C606.537 98.094 606.548 97.9872 606.524 97.8857C606.5 97.7841 606.442 97.6938 606.36 97.6293L606.218 97.5495L487.645 36.194C486.95 35.8383 486.151 35.7431 485.392 35.9254C484.633 36.1077 483.964 36.5556 483.507 37.188L426.383 116.791L404.846 146.808C404.805 146.86 404.776 146.92 404.761 146.985C404.746 147.049 404.744 147.116 404.757 147.181Z"/><path fill="#CDE4F9" d="M466.357 151.592L470.922 152.097L504.795 155.852L527.246 158.337L528.579 158.479L556.625 136.61L557.7 135.776L564.316 130.61L587.86 112.229L588.003 110.933L596.377 35.3951C596.484 34.3564 596.175 33.3176 595.518 32.5059C594.861 31.6942 593.908 31.1758 592.869 31.0639L481.135 18.6384C480.609 18.5706 480.074 18.6094 479.563 18.7525C479.052 18.8956 478.575 19.1401 478.161 19.4714C477.746 19.8027 477.403 20.2141 477.151 20.6809C476.899 21.1477 476.744 21.6605 476.695 22.1886L470.789 75.4408L467.512 104.987L464.581 131.418L463.222 143.692L462.822 147.243C462.768 147.76 462.817 148.283 462.965 148.782C463.114 149.281 463.359 149.746 463.687 150.15C464.016 150.554 464.42 150.889 464.878 151.136C465.337 151.384 465.839 151.538 466.357 151.592Z"/><path fill="#fff" d="M497.068 85.3813L545.488 90.7065L562.656 92.6058C563.417 92.6968 564.189 92.6361 564.927 92.4273C565.665 92.2185 566.354 91.8658 566.955 91.3893C567.556 90.9129 568.057 90.3223 568.428 89.6515C568.799 88.9808 569.034 88.2432 569.118 87.4814C569.202 86.7196 569.135 85.9486 568.92 85.2129C568.704 84.4773 568.345 83.7915 567.864 83.1952C567.382 82.5989 566.786 82.1039 566.112 81.7388C565.438 81.3737 564.698 81.1456 563.935 81.0678L542.62 78.6981L498.391 73.7989C496.906 73.7147 495.444 74.2026 494.308 75.1623C493.171 76.1221 492.446 77.4806 492.281 78.9585C492.116 80.4364 492.524 81.9213 493.421 83.1077C494.318 84.2942 495.636 85.0919 497.104 85.3369L497.068 85.3813Z"/><path fill="#fff" d="M494.315 106.779L494.688 106.842L550.897 113.054L560.275 114.093C561.037 114.184 561.809 114.123 562.547 113.914C563.285 113.706 563.974 113.353 564.575 112.876C565.176 112.4 565.676 111.809 566.048 111.138C566.419 110.468 566.653 109.73 566.738 108.968C566.822 108.207 566.755 107.436 566.54 106.7C566.324 105.964 565.965 105.278 565.483 104.682C565.001 104.086 564.406 103.591 563.732 103.226C563.057 102.861 562.317 102.633 561.554 102.555L547.984 101.055L503.463 96.1201L495.976 95.2947C494.491 95.1534 493.009 95.5883 491.836 96.5093C490.663 97.4304 489.89 98.767 489.676 100.242C489.463 101.717 489.825 103.218 490.689 104.434C491.553 105.649 492.851 106.486 494.315 106.771V106.779Z"/><path fill="#fff" d="M487.956 125.764C488.416 126.528 489.047 127.176 489.798 127.656C490.55 128.136 491.403 128.437 492.29 128.533L515.319 131.089L556.35 135.625L557.664 135.776L564.281 130.61C564.325 130.218 564.325 129.822 564.281 129.43C564.142 128.112 563.558 126.882 562.624 125.941C561.691 125 560.465 124.406 559.148 124.255L553.446 123.625L530.87 121.122L514.6 119.347L493.569 116.995C492.492 116.874 491.402 117.057 490.423 117.524C489.445 117.991 488.617 118.722 488.034 119.635C487.45 120.548 487.134 121.606 487.122 122.69C487.11 123.773 487.402 124.838 487.965 125.764H487.956Z"/><path fill="#fff" d="M520.31 59.2163L532.353 60.5476L537.682 61.1423L545.675 62.0298C546.436 62.1208 547.208 62.0601 547.946 61.8514C548.684 61.6426 549.374 61.2898 549.975 60.8133C550.575 60.3369 551.076 59.7463 551.447 59.0755C551.818 58.4048 552.053 57.6672 552.137 56.9054C552.222 56.1436 552.154 55.3726 551.939 54.6369C551.724 53.9013 551.365 53.2155 550.883 52.6192C550.401 52.0229 549.806 51.528 549.131 51.1628C548.457 50.7977 547.717 50.5696 546.954 50.4918L521.554 47.6872C520.03 47.5319 518.506 47.9843 517.315 48.9461C516.123 49.908 515.36 51.3012 515.191 52.8227C515.022 54.3441 515.462 55.8706 516.414 57.0697C517.366 58.2688 518.754 59.0435 520.275 59.2252L520.31 59.2163Z"/><path fill="#F79F28" d="M421.8 91.3542L436.49 151.991L461.002 156.641L483.675 160.955L508.01 165.588L515.781 167.061C516.236 167.149 516.704 167.138 517.155 167.029C517.605 166.92 518.027 166.716 518.392 166.431L524.609 161.567L528.561 158.479L556.625 136.61L538.783 63.0595C538.609 62.3256 538.223 61.659 537.673 61.1424C537.196 60.6821 536.611 60.3496 535.971 60.1758C535.331 60.002 534.658 59.9926 534.014 60.1483L424.713 86.5881C423.695 86.8342 422.815 87.4746 422.269 88.3683C421.723 89.2621 421.554 90.3361 421.8 91.3542Z"/><path fill="#fff" d="M455.478 139.592C455.844 141.087 456.787 142.376 458.102 143.178C459.417 143.98 460.996 144.228 462.494 143.87L526.625 128.347C528.121 127.985 529.413 127.044 530.216 125.731C531.018 124.418 531.266 122.84 530.905 121.344C530.89 121.269 530.869 121.195 530.843 121.122C530.433 119.681 529.481 118.454 528.187 117.698C526.893 116.942 525.356 116.716 523.898 117.066L459.758 132.58C458.261 132.944 456.969 133.887 456.167 135.201C455.364 136.516 455.116 138.095 455.478 139.592Z"/><path fill="#fff" d="M461.002 156.642L483.675 160.955L531.758 149.337C532.511 149.169 533.223 148.853 533.852 148.407C534.482 147.961 535.016 147.394 535.424 146.739C535.831 146.084 536.104 145.355 536.227 144.594C536.349 143.833 536.319 143.055 536.137 142.305C535.956 141.556 535.626 140.85 535.169 140.229C534.711 139.608 534.134 139.085 533.472 138.689C532.809 138.294 532.075 138.034 531.311 137.926C530.547 137.817 529.769 137.861 529.023 138.057L464.847 153.544C463.506 153.864 462.324 154.654 461.517 155.772C461.322 156.047 461.15 156.338 461.002 156.642Z"/><path fill="#fff" d="M508.01 165.588L515.781 167.061C516.236 167.149 516.704 167.138 517.155 167.029C517.605 166.92 518.027 166.717 518.392 166.431L524.609 161.567L508.01 165.588Z"/><path fill="#fff" d="M468.4 107.081C468.766 108.576 469.71 109.864 471.025 110.665C472.34 111.465 473.919 111.711 475.416 111.35L500.283 105.342C501.78 104.98 503.071 104.039 503.874 102.726C504.677 101.413 504.925 99.8348 504.564 98.3389C504.371 97.5329 504.004 96.7787 503.489 96.1289C502.802 95.2503 501.877 94.5881 500.823 94.2214C499.769 93.8546 498.632 93.799 497.548 94.061L472.68 100.07C471.183 100.433 469.891 101.376 469.089 102.691C468.286 104.005 468.039 105.584 468.4 107.081Z"/><path fill="#fff" d="M483.675 160.955L508.01 165.588L515.781 167.061C516.236 167.149 516.704 167.138 517.155 167.029C517.605 166.92 518.027 166.717 518.392 166.431L524.609 161.567L522.415 162.091L517.788 165.703C517.528 165.905 517.228 166.048 516.908 166.125C516.588 166.201 516.255 166.209 515.932 166.147L510.203 165.082L485.869 160.458L483.675 160.955ZM556.359 135.634L556.599 136.61L557.673 135.767L556.359 135.634ZM483.675 160.955L508.01 165.588L515.781 167.061C516.236 167.149 516.704 167.138 517.155 167.029C517.605 166.92 518.027 166.717 518.392 166.431L524.609 161.567L522.415 162.091L517.788 165.703C517.528 165.905 517.228 166.048 516.908 166.125C516.588 166.201 516.255 166.209 515.932 166.147L510.203 165.082L485.869 160.458L483.675 160.955ZM483.675 160.955L508.01 165.588L515.781 167.061C516.236 167.149 516.704 167.138 517.155 167.029C517.605 166.92 518.027 166.717 518.392 166.431L524.609 161.567L522.415 162.091L517.788 165.703C517.528 165.905 517.228 166.048 516.908 166.125C516.588 166.201 516.255 166.209 515.932 166.147L510.203 165.082L485.869 160.458L483.675 160.955ZM404.402 149.612L431.854 262.96C432.06 263.797 432.589 264.52 433.326 264.969C434.064 265.418 434.948 265.557 435.788 265.356L634.513 217.278C635.35 217.072 636.071 216.544 636.52 215.81C636.969 215.075 637.109 214.193 636.911 213.355L609.451 100.008C609.324 99.4777 609.066 98.9882 608.699 98.5847C608.333 98.1812 607.87 97.8769 607.355 97.7002C606.976 97.5665 606.575 97.5063 606.173 97.5226C605.702 97.5375 605.241 97.6589 604.824 97.8777C604.633 97.9678 604.454 98.0811 604.291 98.2149L587.976 110.942L564.29 129.43L556.359 135.642L527.255 158.337L522.442 162.091L517.815 165.703C517.554 165.905 517.254 166.048 516.934 166.125C516.614 166.201 516.282 166.209 515.958 166.147L510.203 165.082L485.869 160.458L461.517 155.825L408.168 145.68C407.717 145.578 407.25 145.578 406.8 145.68C406.194 145.814 405.641 146.123 405.21 146.568C405.045 146.744 404.899 146.938 404.775 147.145C404.555 147.506 404.41 147.906 404.346 148.324C404.282 148.741 404.301 149.167 404.402 149.577V149.612ZM483.675 160.955L508.01 165.588L515.781 167.061C516.236 167.149 516.704 167.138 517.155 167.029C517.605 166.92 518.027 166.717 518.392 166.431L524.609 161.567L522.415 162.091L517.788 165.703C517.528 165.905 517.228 166.048 516.908 166.125C516.588 166.201 516.255 166.209 515.932 166.147L510.203 165.082L485.869 160.458L483.675 160.955ZM483.675 160.955L508.01 165.588L515.781 167.061C516.236 167.149 516.704 167.138 517.155 167.029C517.605 166.92 518.027 166.717 518.392 166.431L524.609 161.567L522.415 162.091L517.788 165.703C517.528 165.905 517.228 166.048 516.908 166.125C516.588 166.201 516.255 166.209 515.932 166.147L510.203 165.082L485.869 160.458L483.675 160.955ZM483.675 160.955L508.01 165.588L515.781 167.061C516.236 167.149 516.704 167.138 517.155 167.029C517.605 166.92 518.027 166.717 518.392 166.431L524.609 161.567L522.415 162.091L517.788 165.703C517.528 165.905 517.228 166.048 516.908 166.125C516.588 166.201 516.255 166.209 515.932 166.147L510.203 165.082L485.869 160.458L483.675 160.955Z"/><path fill="#3778B8" d="M483.675 160.955L508.01 165.588L515.781 167.061C516.236 167.149 516.704 167.138 517.155 167.029C517.605 166.92 518.027 166.717 518.392 166.431L524.609 161.567L522.415 162.091L517.788 165.703C517.528 165.905 517.228 166.048 516.908 166.125C516.588 166.201 516.255 166.209 515.932 166.147L510.203 165.082L485.869 160.458L483.675 160.955ZM556.359 135.634L556.599 136.61L557.673 135.767L556.359 135.634ZM483.675 160.955L508.01 165.588L515.781 167.061C516.236 167.149 516.704 167.138 517.155 167.029C517.605 166.92 518.027 166.717 518.392 166.431L524.609 161.567L522.415 162.091L517.788 165.703C517.528 165.905 517.228 166.048 516.908 166.125C516.588 166.201 516.255 166.209 515.932 166.147L510.203 165.082L485.869 160.458L483.675 160.955ZM483.675 160.955L508.01 165.588L515.781 167.061C516.236 167.149 516.704 167.138 517.155 167.029C517.605 166.92 518.027 166.717 518.392 166.431L524.609 161.567L522.415 162.091L517.788 165.703C517.528 165.905 517.228 166.048 516.908 166.125C516.588 166.201 516.255 166.209 515.932 166.147L510.203 165.082L485.869 160.458L483.675 160.955ZM405.645 147.251L405.77 147.34L405.85 147.243C406.119 146.962 406.454 146.753 406.825 146.635C407.196 146.517 407.59 146.494 407.972 146.568L460.975 156.642L483.649 160.955L507.983 165.588L515.754 167.061C516.209 167.149 516.678 167.138 517.128 167.029C517.578 166.92 518 166.717 518.365 166.431L524.582 161.567L522.388 162.091L517.761 165.703C517.501 165.905 517.201 166.048 516.881 166.125C516.561 166.201 516.228 166.209 515.905 166.147L510.203 165.082L485.869 160.458L461.517 155.825L408.168 145.68C407.717 145.578 407.25 145.578 406.8 145.68L405.645 147.251ZM404.375 149.612L431.827 262.96C432.033 263.797 432.563 264.52 433.3 264.969C434.037 265.418 434.922 265.557 435.761 265.356L634.513 217.278C635.35 217.072 636.071 216.544 636.52 215.81C636.969 215.075 637.109 214.193 636.911 213.355L609.451 100.008C609.324 99.4777 609.066 98.9882 608.699 98.5847C608.333 98.1812 607.87 97.8769 607.355 97.7002C606.976 97.5665 606.575 97.5063 606.173 97.5226C605.702 97.5375 605.241 97.6589 604.824 97.8777C604.633 97.9678 604.454 98.0811 604.291 98.2149L587.976 110.942L564.29 129.43L556.359 135.642L527.255 158.337L522.442 162.091L517.815 165.703C517.554 165.905 517.254 166.048 516.934 166.125C516.614 166.201 516.282 166.209 515.958 166.147L510.203 165.082L485.869 160.458L461.517 155.825L408.168 145.68C407.717 145.578 407.25 145.578 406.8 145.68C406.194 145.814 405.641 146.123 405.21 146.568C405.045 146.744 404.899 146.938 404.775 147.145C404.555 147.506 404.41 147.906 404.346 148.324C404.282 148.741 404.301 149.167 404.402 149.577L404.375 149.612ZM405.263 149.39C405.18 149.057 405.174 148.708 405.245 148.372C405.316 148.035 405.462 147.719 405.672 147.447C405.688 147.404 405.716 147.367 405.752 147.34L405.832 147.243C406.101 146.962 406.436 146.753 406.807 146.635C407.178 146.517 407.572 146.494 407.954 146.568L460.957 156.642L483.631 160.955L507.965 165.588L515.736 167.061C516.191 167.149 516.66 167.138 517.11 167.029C517.561 166.92 517.983 166.717 518.347 166.431L524.564 161.567L528.508 158.488L556.625 136.61L557.7 135.767L564.316 130.601L587.869 112.229L604.895 98.9161C605.158 98.7155 605.46 98.5733 605.783 98.4989C605.874 98.4904 605.966 98.4904 606.058 98.4989C606.138 98.4902 606.218 98.4902 606.298 98.4989C606.57 98.4984 606.84 98.5434 607.097 98.6321C607.465 98.7587 607.795 98.9753 608.057 99.2621C608.319 99.5489 608.505 99.8968 608.598 100.274L636.05 213.621C636.123 213.918 636.136 214.226 636.09 214.528C636.044 214.83 635.939 215.12 635.78 215.381C635.622 215.643 635.414 215.87 635.167 216.051C634.921 216.232 634.641 216.362 634.345 216.435L435.566 264.486C434.967 264.631 434.334 264.531 433.808 264.21C433.282 263.889 432.905 263.372 432.76 262.773L405.263 149.39ZM483.631 160.928L507.965 165.561L515.736 167.035C516.191 167.122 516.66 167.111 517.11 167.003C517.561 166.894 517.983 166.69 518.347 166.404L524.564 161.541L522.371 162.064L517.744 165.677C517.483 165.878 517.183 166.022 516.863 166.098C516.543 166.175 516.211 166.182 515.887 166.12L510.203 165.082L485.869 160.458L483.631 160.928ZM483.631 160.928L507.965 165.561L515.736 167.035C516.191 167.122 516.66 167.111 517.11 167.003C517.561 166.894 517.983 166.69 518.347 166.404L524.564 161.541L522.371 162.064L517.744 165.677C517.483 165.878 517.183 166.022 516.863 166.098C516.543 166.175 516.211 166.182 515.887 166.12L510.203 165.082L485.869 160.458L483.631 160.928ZM483.631 160.928L507.965 165.561L515.736 167.035C516.191 167.122 516.66 167.111 517.11 167.003C517.561 166.894 517.983 166.69 518.347 166.404L524.564 161.541L522.371 162.064L517.744 165.677C517.483 165.878 517.183 166.022 516.863 166.098C516.543 166.175 516.211 166.182 515.887 166.12L510.203 165.082L485.869 160.458L483.631 160.928Z"/><path fill="#F79F28" d="M582.718 195.01C582.496 194.089 582.458 193.134 582.605 192.198C582.753 191.262 583.083 190.365 583.578 189.557C584.073 188.749 584.723 188.047 585.489 187.49C586.256 186.933 587.125 186.533 588.047 186.312L613.127 180.241C614.968 179.84 616.893 180.175 618.49 181.174C620.087 182.173 621.23 183.757 621.673 185.587C622.116 187.417 621.825 189.348 620.862 190.966C619.899 192.585 618.341 193.762 616.52 194.247L591.44 200.317C589.579 200.769 587.615 200.464 585.979 199.469C584.343 198.473 583.17 196.869 582.718 195.01Z"/><path fill="#fff" d="M305.537 173.957C308.97 173.957 311.753 171.176 311.753 167.745C311.753 164.313 308.97 161.532 305.537 161.532C302.103 161.532 299.32 164.313 299.32 167.745C299.32 171.176 302.103 173.957 305.537 173.957Z"/><path fill="#F79F28" d="M112.246 427.406C127.313 431.443 136.255 446.928 132.218 461.993C128.181 477.058 112.695 485.998 97.6281 481.961C82.5612 477.924 73.6195 462.438 77.6562 447.373C81.6928 432.308 97.1792 423.369 112.246 427.406Z"/><path fill="#C83898" d="M77.5526 354.84C87.3356 357.462 93.1415 367.516 90.5205 377.298C87.8995 387.08 77.844 392.885 68.061 390.263C58.2779 387.642 52.472 377.587 55.0931 367.806C57.7141 358.024 67.7695 352.219 77.5526 354.84Z"/><path fill="#3778B8" d="M23.8195 390.996C33.5793 393.702 39.2972 403.807 36.5909 413.566C33.8846 423.324 23.7789 429.041 14.0191 426.334C4.25928 423.628 -1.45883 413.523 1.24747 403.764C3.95377 394.006 14.0597 388.289 23.8195 390.996Z"/></svg>