<svg width="218" height="178" viewBox="0 0 218 178" fill="none" xmlns="http://www.w3.org/2000/svg">
<rect y="1" width="218" height="176" rx="16" fill="#D9D9D9"/>
<g clip-path="url(#clip0_694_3108)">
<path d="M67.142 170.811C66.9488 170.82 66.7574 170.769 66.5939 170.665C66.4304 170.561 66.3026 170.408 66.2279 170.228C66.1533 170.048 66.1353 169.849 66.1765 169.658C66.2178 169.468 66.3162 169.294 66.4584 169.162C66.4818 169.067 66.5001 168.999 66.5236 168.898C66.3387 168.425 66.0178 168.017 65.6021 167.728C65.1864 167.44 64.6948 167.283 64.1903 167.278C63.6858 167.273 63.1913 167.421 62.7703 167.701C62.3492 167.982 62.0208 168.383 61.8271 168.854C60.7103 171.488 59.2649 174.228 59.9824 177.136C55.2337 166.973 56.8514 154.328 63.8701 145.635C65.8087 144.558 67.382 142.64 67.7838 140.414C66.8236 140.74 65.626 139.953 66.3488 138.931L67.2907 137.764C63.6378 133.841 59.2962 140.005 63.3117 145.3C61.9978 146.962 60.8609 148.759 59.9198 150.661C60.136 148.642 59.8758 146.6 59.1605 144.702C58.4325 142.932 57.0732 141.444 55.8729 139.913C54.417 138.051 51.4165 138.91 51.2208 141.275C52.5645 141.72 52.7393 143.683 51.2025 143.952C51.6043 148.351 54.4509 152.381 58.3699 154.32C56.9236 158.422 56.3588 162.789 56.7131 167.128C56.0217 162.057 50.6285 160.824 46.8608 158.809C46.6209 158.654 46.3415 158.573 46.0568 158.576C45.772 158.578 45.4941 158.664 45.2569 158.823C45.0197 158.983 44.8335 159.208 44.7208 159.472C44.6081 159.736 44.5738 160.027 44.6222 160.311C45.1425 160.524 45.6406 160.789 46.1094 161.101C46.3326 161.249 46.5045 161.463 46.6012 161.714C46.6978 161.965 46.7144 162.241 46.6486 162.502C46.5828 162.763 46.4379 162.997 46.2341 163.171C46.0303 163.344 45.7778 163.45 45.5119 163.472C47.4114 168.214 52.3245 171.406 57.368 171.388C57.8508 173.514 58.5503 175.584 59.4553 177.565H66.9411C66.9671 177.481 66.9932 177.394 67.0167 177.302C66.3237 177.346 65.628 177.305 64.945 177.178C66.7715 174.986 68.1961 173.867 67.1289 170.808L67.142 170.811Z" fill="#F2F2F2"/>
<path d="M133.887 170.811C134.08 170.82 134.272 170.769 134.435 170.665C134.599 170.561 134.727 170.408 134.801 170.228C134.876 170.048 134.894 169.849 134.853 169.658C134.811 169.468 134.713 169.294 134.571 169.162C134.547 169.067 134.529 168.999 134.506 168.898C134.691 168.425 135.011 168.017 135.427 167.728C135.843 167.44 136.334 167.283 136.839 167.278C137.344 167.273 137.838 167.421 138.259 167.701C138.68 167.982 139.008 168.383 139.202 168.854C140.319 171.488 141.767 174.228 141.047 177.136C145.796 166.973 144.178 154.328 137.162 145.635C135.221 144.558 133.647 142.64 133.248 140.414C134.208 140.74 135.406 139.953 134.686 138.931C134.373 138.541 134.054 138.154 133.744 137.764C137.397 133.841 141.738 140.005 137.723 145.3C139.035 146.964 140.172 148.76 141.115 150.661C140.896 148.642 141.156 146.6 141.874 144.702C142.599 142.932 143.961 141.444 145.159 139.913C146.617 138.051 149.615 138.91 149.814 141.275C148.467 141.72 148.293 143.683 149.832 143.952C149.428 148.351 146.581 152.381 142.662 154.32C144.11 158.422 144.674 162.789 144.319 167.128C145.013 162.057 150.403 160.824 154.171 158.809C154.411 158.653 154.69 158.571 154.976 158.573C155.261 158.575 155.539 158.661 155.777 158.82C156.015 158.98 156.201 159.205 156.313 159.47C156.426 159.735 156.459 160.027 156.41 160.311C155.89 160.523 155.393 160.788 154.925 161.101C154.702 161.248 154.53 161.463 154.433 161.714C154.337 161.964 154.32 162.24 154.385 162.501C154.451 162.762 154.595 162.995 154.799 163.17C155.002 163.344 155.254 163.449 155.52 163.472C153.62 168.214 148.71 171.406 143.664 171.388C143.183 173.515 142.484 175.585 141.577 177.565H134.07C134.044 177.481 134.02 177.394 133.994 177.302C134.687 177.347 135.383 177.305 136.066 177.178C134.24 174.986 132.815 173.867 133.882 170.808L133.887 170.811Z" fill="#F2F2F2"/>
<path d="M136.661 171.933L133.436 172.673L129.073 160.471L133.83 159.378L136.661 171.933Z" fill="#AB636D"/>
<path d="M137.54 175.302L127.625 177.581L127.597 177.455C127.364 176.421 127.548 175.337 128.107 174.44C128.666 173.543 129.555 172.906 130.579 172.671L132.076 170.869L135.766 171.493L136.632 171.293L137.54 175.302Z" fill="#1B1B1B"/>
<path d="M188.667 112.453L190.439 115.272L180.519 123.515L177.902 119.355L188.667 112.453Z" fill="#AB636D"/>
<path d="M191.516 110.488L196.967 119.152L196.857 119.223C195.971 119.791 194.898 119.98 193.874 119.748C192.85 119.517 191.959 118.885 191.396 117.991L189.202 117.171L188.534 113.454L188.059 112.698L191.516 110.488Z" fill="#1B1B1B"/>
<path d="M85.8968 82.3247L85.114 77.6646L97.2206 72.1457L99.8298 67.4725C99.7452 67.0621 99.7747 66.6361 99.9149 66.2416C100.055 65.847 100.301 65.4993 100.624 65.2369C100.948 64.9744 101.337 64.8074 101.749 64.7543C102.161 64.7013 102.579 64.7642 102.958 64.9361C103.337 65.108 103.661 65.3823 103.895 65.7286C104.129 66.0749 104.263 66.4797 104.283 66.8984C104.304 67.3171 104.209 67.7332 104.01 68.1009C103.81 68.4686 103.514 68.7735 103.154 68.9819L98.8461 75.6941L85.8968 82.3247Z" fill="#A0616A"/>
<path d="M82.2205 78.5155L87.671 75.7047L89.1139 81.1761L85.328 84.008L82.2205 78.5155Z" fill="#C83898"/>
<path d="M69.9861 171.509H73.2815L74.8496 158.672H69.9861V171.509Z" fill="#A0616A"/>
<path d="M74.3773 171.809V169.552L73.5111 169.607L69.9835 169.818L69.1668 169.868L68.5432 177.423L68.5093 177.829H70.8575L70.9332 177.428L71.2724 175.598L72.1517 177.428L72.3448 177.829H78.5494C78.9185 177.826 79.2717 177.677 79.5325 177.413C79.7933 177.149 79.9406 176.792 79.9427 176.419C80.1958 175.181 75.0348 172.515 74.3773 171.809Z" fill="#1B1B1B"/>
<path d="M30.8588 120.567L30.0891 123.802L42.0887 128.335L43.2211 123.559L30.8588 120.567Z" fill="#A0616A"/>
<path d="M29.8047 124.808L31.9781 125.335L32.1294 124.471L32.7478 120.959L32.8887 120.145L25.7578 117.774L25.3743 117.648L24.8238 119.943L25.1943 120.111L26.8746 120.87L24.9099 121.304L24.4767 121.399L23.0365 127.5C22.9527 127.865 23.0155 128.248 23.2112 128.566C23.4068 128.884 23.7193 129.111 24.0801 129.197C25.1969 129.734 28.9723 125.29 29.8047 124.808Z" fill="#1B1B1B"/>
<path d="M75.0817 88.431L70.8392 86.4289L62.3776 96.7659L57.2245 98.0831C56.8547 97.8922 56.4398 97.8083 56.0257 97.8406C55.6116 97.873 55.2144 98.0204 54.8781 98.2665C54.5418 98.5125 54.2795 98.8477 54.1201 99.235C53.9607 99.6222 53.9106 100.046 53.9751 100.461C54.0397 100.875 54.2165 101.263 54.4859 101.582C54.7554 101.901 55.107 102.139 55.5019 102.269C55.8968 102.399 56.3196 102.416 56.7236 102.318C57.1275 102.221 57.4968 102.012 57.7907 101.716L65.3364 99.2949L75.0817 88.431Z" fill="#A0616A"/>
<path d="M135.234 50.1598C134.334 50.1598 133.454 49.8904 132.706 49.3856C131.958 48.8808 131.376 48.1634 131.031 47.3241C130.687 46.4848 130.598 45.5613 130.774 44.6705C130.949 43.7797 131.383 42.9615 132.02 42.3196C132.656 41.6777 133.467 41.2408 134.35 41.0642C135.232 40.8876 136.147 40.9793 136.978 41.3276C137.808 41.676 138.518 42.2653 139.017 43.0211C139.517 43.7769 139.782 44.6651 139.781 45.5735C139.781 46.1761 139.663 46.7728 139.434 47.3294C139.206 47.886 138.871 48.3917 138.448 48.8176C138.026 49.2435 137.525 49.5812 136.973 49.8115C136.422 50.0418 135.83 50.1601 135.234 50.1598ZM135.234 41.5061C134.437 41.5061 133.659 41.7444 132.997 42.191C132.335 42.6375 131.819 43.2721 131.514 44.0147C131.21 44.7573 131.13 45.5745 131.285 46.3629C131.44 47.1513 131.823 47.8755 132.386 48.4441C132.949 49.0127 133.666 49.4 134.447 49.5571C135.227 49.7143 136.037 49.6342 136.772 49.3269C137.508 49.0197 138.137 48.4991 138.58 47.831C139.022 47.1629 139.259 46.3773 139.26 45.5735C139.259 44.4954 138.835 43.4617 138.08 42.6991C137.325 41.9366 136.301 41.5075 135.234 41.5061Z" fill="#E6E6E6"/>
<path d="M134.913 47.2989H134.884C134.803 47.2948 134.724 47.2731 134.653 47.2354C134.581 47.1977 134.519 47.1448 134.469 47.0803L133.754 46.1504C133.664 46.0323 133.624 45.8832 133.642 45.7352C133.66 45.5873 133.735 45.4525 133.851 45.3601L133.877 45.339C133.994 45.2487 134.142 45.2083 134.288 45.2265C134.434 45.2447 134.568 45.3201 134.66 45.4365C134.726 45.5226 134.824 45.5785 134.932 45.5918C135.04 45.6051 135.148 45.5749 135.234 45.5076C135.25 45.495 135.264 45.4808 135.278 45.4655L136.734 43.9165C136.836 43.8109 136.974 43.7494 137.12 43.745C137.267 43.7405 137.409 43.7935 137.517 43.8928L137.54 43.9165C137.645 44.0195 137.706 44.1597 137.71 44.3074C137.714 44.455 137.66 44.5983 137.561 44.7068L135.304 47.1119C135.254 47.1677 135.194 47.213 135.127 47.2451C135.06 47.2772 134.987 47.2955 134.913 47.2989Z" fill="#E6E6E6"/>
<path d="M112.534 105.744C111.634 105.744 110.755 105.474 110.007 104.969C109.259 104.465 108.676 103.747 108.332 102.908C107.988 102.069 107.898 101.145 108.074 100.254C108.25 99.3635 108.683 98.5454 109.32 97.9034C109.956 97.2615 110.767 96.8246 111.65 96.648C112.532 96.4715 113.447 96.5632 114.278 96.9115C115.109 97.2598 115.819 97.8492 116.318 98.6049C116.817 99.3607 117.083 100.249 117.082 101.157C117.08 102.374 116.6 103.54 115.747 104.4C114.894 105.26 113.739 105.743 112.534 105.744ZM112.534 97.09C111.738 97.09 110.959 97.3283 110.297 97.7748C109.635 98.2213 109.119 98.856 108.815 99.5986C108.51 100.341 108.43 101.158 108.585 101.947C108.74 102.735 109.123 103.459 109.686 104.028C110.249 104.597 110.966 104.984 111.747 105.141C112.528 105.298 113.337 105.218 114.073 104.911C114.808 104.604 115.437 104.083 115.88 103.415C116.323 102.747 116.559 101.961 116.56 101.157C116.558 100.08 116.134 99.0466 115.379 98.2847C114.624 97.5227 113.601 97.094 112.534 97.0926V97.09Z" fill="#E6E6E6"/>
<path d="M112.213 102.883H112.184C112.104 102.879 112.025 102.857 111.953 102.819C111.882 102.781 111.819 102.729 111.769 102.664L111.054 101.734C110.964 101.616 110.924 101.467 110.942 101.319C110.96 101.171 111.035 101.036 111.151 100.944L111.177 100.923C111.294 100.833 111.442 100.792 111.588 100.81C111.735 100.829 111.868 100.904 111.96 101.02C112.027 101.106 112.125 101.162 112.232 101.176C112.34 101.189 112.448 101.159 112.534 101.091C112.55 101.079 112.565 101.065 112.578 101.049L114.034 99.5003C114.136 99.3947 114.275 99.3332 114.421 99.3288C114.567 99.3244 114.709 99.3774 114.817 99.4766L114.84 99.5003C114.945 99.6033 115.006 99.7436 115.01 99.8912C115.014 100.039 114.961 100.182 114.861 100.291L112.604 102.696C112.555 102.752 112.494 102.797 112.427 102.829C112.36 102.861 112.287 102.879 112.213 102.883Z" fill="#E6E6E6"/>
<path d="M62.6987 43.8375C61.799 43.8375 60.9195 43.568 60.1715 43.0633C59.4235 42.5585 58.8406 41.8411 58.4966 41.0018C58.1525 40.1625 58.0627 39.239 58.2386 38.3482C58.4145 37.4573 58.8482 36.6392 59.4847 35.9973C60.1213 35.3553 60.9321 34.9184 61.8146 34.7419C62.6972 34.5653 63.6117 34.657 64.4427 35.0053C65.2736 35.3536 65.9835 35.943 66.4826 36.6988C66.9817 37.4545 67.2475 38.3428 67.2465 39.2511C67.2461 39.8538 67.1282 40.4504 66.8995 41.0071C66.6708 41.5637 66.3357 42.0694 65.9134 42.4953C65.4911 42.9211 64.9898 43.2589 64.4382 43.4892C63.8867 43.7195 63.2956 43.8378 62.6987 43.8375ZM62.6987 35.1838C61.9025 35.1838 61.1242 35.4221 60.4622 35.8686C59.8002 36.3151 59.2842 36.9498 58.9794 37.6924C58.6746 38.435 58.5948 39.2521 58.7499 40.0405C58.905 40.8289 59.2882 41.5532 59.851 42.1218C60.4137 42.6903 61.1309 43.0777 61.9116 43.2348C62.6924 43.392 63.5018 43.3118 64.2375 43.0046C64.9732 42.6973 65.6022 42.1768 66.0449 41.5087C66.4876 40.8406 66.7241 40.055 66.7246 39.2511C66.7232 38.1735 66.2986 37.1405 65.5439 36.3785C64.7892 35.6165 63.766 35.1878 62.6987 35.1864V35.1838Z" fill="#E6E6E6"/>
<path d="M62.3777 40.9766H62.349C62.2684 40.9725 62.1895 40.9508 62.1179 40.9131C62.0463 40.8753 61.9837 40.8224 61.9342 40.758L61.2193 39.8281C61.1291 39.71 61.0887 39.5608 61.1068 39.4129C61.1248 39.265 61.1999 39.1302 61.3158 39.0378L61.3419 39.0167C61.4591 38.9263 61.6066 38.8859 61.753 38.9042C61.8993 38.9224 62.0327 38.9978 62.1247 39.1142C62.1915 39.2003 62.2895 39.2561 62.3971 39.2695C62.5047 39.2828 62.6131 39.2525 62.6987 39.1853C62.7147 39.1726 62.7295 39.1585 62.743 39.1431L64.1989 37.5942C64.3009 37.4886 64.4395 37.4271 64.5856 37.4226C64.7316 37.4182 64.8736 37.4712 64.9817 37.5705L65.0052 37.5942C65.11 37.6972 65.1709 37.8374 65.1748 37.985C65.1787 38.1327 65.1253 38.276 65.0261 38.3845L62.7691 40.7896C62.7194 40.8454 62.6592 40.8907 62.592 40.9228C62.5248 40.9549 62.452 40.9732 62.3777 40.9766Z" fill="#E6E6E6"/>
<path d="M99.1019 122.814C88.5583 122.814 76.4412 111.002 65.7201 116.613C33.2568 133.609 37.7263 105.169 28.4089 94.5953L28.7168 93.9736C39.0074 103.288 51.855 110.87 65.8715 115.894C78.5364 120.433 91.2979 122.537 102.77 121.981L102.791 122.727C101.568 122.785 100.344 122.814 99.1019 122.814Z" fill="#F2F2F2"/>
<path d="M84.6391 42.9418C85.8567 42.9418 86.8438 41.6055 86.8438 39.9571C86.8438 38.3088 85.8567 36.9725 84.6391 36.9725C83.4214 36.9725 82.4343 38.3088 82.4343 39.9571C82.4343 41.6055 83.4214 42.9418 84.6391 42.9418Z" fill="#E6E6E6"/>
<path d="M110.097 89.49C109.087 90.1696 108.056 88.5548 109.084 87.9094C110.112 87.264 111.122 88.8419 110.097 89.49Z" fill="#E6E6E6"/>
<path d="M104.297 35.1759C105.882 35.1759 107.167 33.8785 107.167 32.2781C107.167 30.6778 105.882 29.3804 104.297 29.3804C102.711 29.3804 101.427 30.6778 101.427 32.2781C101.427 33.8785 102.711 35.1759 104.297 35.1759Z" fill="#FF6584"/>
<path opacity="0.3" d="M114.334 48.1577L130.665 0L112.732 47.5808C112.642 47.6938 112.581 47.8269 112.552 47.969C112.523 48.111 112.529 48.2579 112.568 48.3974C112.607 48.5368 112.679 48.6648 112.777 48.7707C112.875 48.8765 112.996 48.9572 113.132 49.0059C113.267 49.0545 113.412 49.0699 113.554 49.0506C113.696 49.0313 113.832 48.9779 113.95 48.8949C114.067 48.8119 114.164 48.7017 114.231 48.5734C114.297 48.4452 114.333 48.3027 114.334 48.1577Z" fill="#F0F0F0"/>
<path d="M97.8494 106.826C99.3913 106.826 100.641 105.564 100.641 104.008C100.641 102.451 99.3913 101.189 97.8494 101.189C96.3076 101.189 95.0576 102.451 95.0576 104.008C95.0576 105.564 96.3076 106.826 97.8494 106.826Z" fill="#F2F2F2"/>
<path d="M70.8053 105.082C70.8053 105.082 63.8415 109.661 65.6835 112.701C65.7462 112.806 57.3681 123.978 57.3681 123.978L41.5513 122.964L41.0007 128.309L55.0903 132.429C55.0903 132.429 58.537 134.984 61.1984 132.166C63.8597 129.347 72.7231 120.728 72.7231 120.728L73.151 138.135L68.6841 162.257L75.3297 161.833L81.7952 137.635L84.1826 110.222L70.8053 105.082Z" fill="#1B1B1B"/>
<path d="M75.7626 77.6172L72.8325 79.8563L69.4954 87.0453L72.7047 91.4446C72.7047 91.4446 75.4026 96.1679 71.0844 100.741C66.7662 105.314 63.4473 110.198 66.9097 110.024C70.3721 109.851 84.3703 117.042 84.4642 111.149C84.5582 105.256 84.7408 100.741 84.7408 100.741L88.4145 91.3393C88.4145 91.3393 90.601 85.7308 89.0642 84.0501C87.5274 82.3695 85.474 80.2278 85.474 80.2278L81.7298 76.4502H78.3535L75.7626 77.6172Z" fill="#C83898"/>
<path d="M81.2265 63.8002C87.7937 67.5752 82.4032 77.5302 75.7133 73.9845C69.146 70.2121 74.5391 60.2571 81.2265 63.8002Z" fill="#A0616A"/>
<path d="M84.7382 65.8945C84.279 66.4978 83.3188 66.2133 81.435 66.6453C81.4392 66.0012 81.3656 65.3589 81.2158 64.7328C81.0745 65.5078 80.7673 66.2423 80.3156 66.885C78.6823 67.0694 80.6861 72.0825 79.8486 75.7705C78.7684 67.9914 76.501 70.0304 77.6464 71.5714C78.3796 72.5593 77.8917 75.5229 75.6896 74.0398C72.0602 75.7837 66.8862 67.1274 72.6186 63.0679C72.5168 60.8735 74.9355 60.5284 76.4254 61.2028C80.0391 58.4816 84.1668 61.9668 84.7382 65.8945Z" fill="#1B1B1B"/>
<path d="M69.5321 63.0811C69.1395 63.3489 68.6947 63.5286 68.2275 63.6079C67.5435 63.7306 66.8417 63.7067 66.1675 63.5379C65.4932 63.369 64.8617 63.059 64.3137 62.628C64.6477 64.0004 65.9262 64.9699 67.2777 65.336C69.2398 65.8629 74.7843 65.3071 74.2286 62.0484C74.0251 60.8551 72.2848 60.863 71.4811 61.4004C70.6775 61.9378 70.2235 62.6043 69.5321 63.0811Z" fill="#1B1B1B"/>
<path d="M73.8112 61.1159C73.7642 61.137 73.7173 61.1554 73.6729 61.1791C73.6338 61.2002 73.592 61.2186 73.5529 61.2423H73.5398C73.4877 61.1923 73.4355 61.1396 73.3781 61.0895C73.3593 61.1763 73.3593 61.2662 73.3781 61.353V61.3819C73.4276 61.4346 73.4824 61.4873 73.5372 61.54L73.686 61.4241C73.7156 61.3966 73.7469 61.3711 73.7799 61.3477C73.7799 61.2818 73.7799 61.2054 73.7981 61.1212L73.8112 61.1159ZM75.3271 58.2893C74.2052 58.0258 73.8425 59.5116 73.7329 60.2255C73.3259 57.6333 71.6299 58.45 72.217 60.2255C72.4032 60.75 72.6976 61.2285 73.0806 61.6296C73.1328 61.6902 73.1902 61.7507 73.2502 61.8113C73.1824 62.167 73.5242 62.0748 73.9886 61.7481C74.3307 61.5028 74.6472 61.223 74.9331 60.913C75.8568 59.9331 76.5769 58.6238 75.3271 58.2972V58.2893ZM75.3637 59.7487C75.0164 60.1993 74.6277 60.6156 74.2026 60.9921C74.0695 61.1132 73.9417 61.2292 73.7955 61.3424C73.7955 61.3635 73.7955 61.3846 73.7955 61.403C73.7955 61.4215 73.7721 61.4504 73.759 61.4741C73.6181 61.7376 73.459 61.5901 73.3989 61.3767L73.3807 61.353C73.1784 61.1443 73.0031 60.9106 72.8588 60.6575C71.8152 58.8372 73.4929 57.5991 73.4094 60.9973C73.3939 61.0289 73.3833 61.0626 73.3781 61.0974C73.3593 61.1842 73.3593 61.2741 73.3781 61.3609V61.3898C73.4276 61.4425 73.4824 61.4952 73.5372 61.5479L73.686 61.432C73.7156 61.4045 73.7469 61.379 73.7799 61.3556C73.7799 61.2897 73.7799 61.2134 73.7981 61.1291C73.8634 60.4468 74.0434 59.2218 74.3722 58.8899C75.0975 58.3288 76.0368 58.9347 75.348 59.7645L75.3637 59.7487ZM73.8112 61.1159C73.7642 61.137 73.7173 61.1554 73.6729 61.1791C73.6338 61.2002 73.592 61.2186 73.5529 61.2423H73.5398C73.4877 61.1923 73.4355 61.1396 73.3781 61.0895C73.3593 61.1763 73.3593 61.2662 73.3781 61.353V61.3819C73.4276 61.4346 73.4824 61.4873 73.5372 61.54L73.686 61.4241C73.7156 61.3966 73.7469 61.3711 73.7799 61.3477C73.7799 61.2818 73.7799 61.2054 73.7981 61.1212L73.8112 61.1159Z" fill="#1B1B1B"/>
<path d="M134.514 111.147L132.087 117.532L120.708 140.187L130.707 166.549L135.868 165.171L131.615 140.185L143.815 125.216L158.307 135.14C158.307 135.14 164.733 140.206 167.178 135.403C169.623 130.601 185.442 120.388 185.442 120.388L181.528 116.173L163.311 124.787L150.737 106.919L134.514 111.147Z" fill="#1B1B1B"/>
<path d="M146.751 81.0207L142.759 76.6899L135.909 75.7389L127.518 81.6635L127.602 88.2281L131.75 103.699C131.75 103.699 130.169 114.814 134.584 114.703C138.999 114.592 141.404 112.369 143.194 112.822C144.984 113.275 152.632 115.193 153.109 113.183C153.587 111.173 156.167 112.611 156.055 110.704C155.943 108.797 149.086 95.0484 149.086 95.0484L150.79 81.2999L146.751 81.0207Z" fill="#F9A826"/>
<path d="M172.031 61.0843C172.063 61.4071 172.033 61.7332 171.94 62.0439C171.848 62.3547 171.695 62.6439 171.492 62.8952C171.289 63.1465 171.038 63.3548 170.755 63.5083C170.472 63.6618 170.162 63.7574 169.842 63.7897C169.699 63.8016 169.555 63.8016 169.411 63.7897L160.24 81.4237L157.774 77.604L167.167 60.9631C167.251 60.3602 167.552 59.8094 168.012 59.4156C168.472 59.0218 169.059 58.8125 169.662 58.8275C170.265 58.8424 170.841 59.0806 171.281 59.4968C171.721 59.9129 171.995 60.4779 172.049 61.0843H172.031Z" fill="#AB636D"/>
<path d="M143.126 84.2978C143.126 84.2978 142.761 87.4326 146.257 88.2097C149.754 88.9868 159.457 83.3995 161.023 82.546C161.518 82.2825 162.194 80.9654 162.886 79.2952C163.196 78.5444 163.512 77.7146 163.815 76.8822C163.989 76.3975 164.832 76.2658 164.996 75.7863C165.161 75.3069 164.652 74.4823 164.801 74.0319C165.508 71.8981 166.009 70.2016 166.009 70.2016L163.692 65.8076C160.449 67.5383 158.787 71.3396 157.563 75.7389L143.126 84.2978Z" fill="#F9A826"/>
<path d="M102.288 65.1332C102.336 65.4538 102.447 65.7615 102.614 66.0388C102.78 66.3161 102.999 66.5576 103.258 66.7494C103.517 66.9412 103.811 67.0796 104.123 67.1567C104.435 67.2337 104.759 67.2479 105.077 67.1985C105.219 67.1752 105.36 67.1399 105.497 67.0931L118.757 81.8452L120.194 77.525L106.984 63.7871C106.753 63.2249 106.326 62.7679 105.783 62.503C105.241 62.2381 104.621 62.1837 104.041 62.3502C103.461 62.5167 102.962 62.8924 102.639 63.406C102.316 63.9196 102.191 64.5352 102.288 65.1358V65.1332Z" fill="#AB636D"/>
<path d="M136.027 80.3068C136.027 80.3068 137.157 83.2493 133.966 84.8852C130.775 86.5211 120.006 83.5681 118.256 83.1334C117.708 82.9991 116.732 81.9006 115.647 80.457C115.159 79.8063 114.65 79.0871 114.149 78.3495C113.859 77.9254 113.011 78.0097 112.732 77.5856C112.453 77.1614 112.745 76.2368 112.489 75.839C111.274 73.9502 110.368 72.4355 110.368 72.4355L111.524 67.5963C115.091 68.4524 117.645 71.7216 119.918 75.6625L136.027 80.3068Z" fill="#F9A826"/>
<path d="M139.471 74.6378C143.071 74.6378 145.989 71.6916 145.989 68.0573C145.989 64.423 143.071 61.4768 139.471 61.4768C135.871 61.4768 132.953 64.423 132.953 68.0573C132.953 71.6916 135.871 74.6378 139.471 74.6378Z" fill="#AB636D"/>
<path d="M146.192 64.5036C146.132 63.796 145.955 63.1035 145.67 62.4541C145.431 61.9124 145.085 61.4254 144.654 61.0228C144.222 60.6202 143.714 60.3104 143.16 60.1122C141.159 59.3799 138.949 59.4668 136.932 60.0859C135.867 60.4104 134.849 60.8735 133.903 61.4636C132.953 62.0616 132.69 62.8282 132.567 63.9056L132.544 64.1005C132.403 65.286 132.7 66.2449 133.005 67.3592C132.851 66.8007 133.407 66.2739 133.968 66.15C134.879 65.9954 135.803 65.9327 136.726 65.963C137.538 65.963 138.307 65.7575 139.108 65.6785C139.984 65.5504 140.852 65.3656 141.704 65.1253C141.509 65.1674 141.704 66.1395 141.757 66.2607C142.195 67.5093 143.776 67.541 143.951 69.0135C143.957 69.2083 143.984 69.4017 144.032 69.5904C144.194 70.0699 144.846 69.9988 144.976 70.4887C145.021 70.6554 145.026 70.8306 144.991 70.9996C144.955 71.1686 144.881 71.3267 144.773 71.4608C144.553 71.7251 144.293 71.9527 144.003 72.1352C144.003 72.1352 144.131 72.2432 144.149 72.2564C144.308 72.3723 144.274 72.3775 144.47 72.3486C144.791 72.2959 145.135 71.8691 145.305 71.6189C145.541 71.2357 145.717 70.8181 145.827 70.3807C146.144 69.1867 146.287 67.9521 146.25 66.7164C146.265 65.9841 146.268 65.2359 146.192 64.5036Z" fill="#1B1B1B"/>
<path d="M195.12 90.2408C186.715 96.6685 169.991 94.6374 164.798 105.649C149.086 138.983 135.641 113.589 121.885 110.844L121.757 110.161C135.531 111.315 150.307 109.527 164.483 104.988C177.296 100.886 188.727 94.7823 197.538 87.3378L198 87.9173C197.069 88.7129 196.109 89.4873 195.12 90.2408Z" fill="#F2F2F2"/>
<path d="M159.583 177.552C159.382 178.15 45.0789 178.15 44.865 177.552C45.0633 176.952 159.366 176.952 159.583 177.552Z" fill="#CCCCCC"/>
</g>
<defs>
<clipPath id="clip0_694_3108">
<rect width="175" height="178" fill="white" transform="translate(23)"/>
</clipPath>
</defs>
</svg>
