<svg width="271" height="202" viewBox="0 0 271 202" fill="none" xmlns="http://www.w3.org/2000/svg">
<g clip-path="url(#clip0_118_664)">
<path d="M27.6826 193.585C27.4454 193.595 27.2107 193.533 27.0103 193.405C26.8098 193.278 26.6533 193.093 26.5617 192.874C26.4702 192.655 26.4481 192.413 26.4984 192.181C26.5487 191.949 26.669 191.739 26.843 191.577L26.9199 191.257C26.694 190.68 26.3004 190.183 25.7896 189.831C25.2789 189.479 24.6744 189.288 24.054 189.282C23.4336 189.276 22.8257 189.456 22.3084 189.798C21.7911 190.14 21.3881 190.63 21.1514 191.203C19.7765 194.405 18.0011 197.735 18.8856 201.27C13.053 188.923 15.0367 173.553 23.6607 162.986C26.045 161.673 27.9775 159.342 28.4678 156.636C27.2885 157.036 25.8175 156.079 26.7052 154.837L27.8621 153.418C23.3755 148.65 18.0428 156.143 22.9749 162.579C21.3634 164.601 19.9671 166.785 18.8087 169.095C19.0775 166.64 18.7578 164.156 17.8761 161.849C16.9852 159.701 15.3123 157.888 13.8413 156.031C12.0499 153.764 8.36441 154.811 8.12406 157.683C9.77771 158.228 9.99242 160.61 8.10162 160.937C8.59836 166.284 12.0915 171.183 16.9083 173.543C15.1294 178.528 14.4346 183.834 14.8701 189.108C14.0272 182.944 7.39337 181.449 2.77533 178.996C2.48061 178.808 2.13749 178.71 1.78773 178.713C1.43798 178.716 1.09666 178.82 0.805321 179.014C0.513981 179.207 0.285179 179.481 0.146757 179.802C0.00833491 180.123 -0.0337389 180.477 0.0256551 180.821C0.665399 181.079 1.27741 181.401 1.85236 181.782C2.12636 181.961 2.33751 182.222 2.45637 182.527C2.57524 182.832 2.59589 183.166 2.51546 183.483C2.43502 183.801 2.2575 184.085 2.00765 184.296C1.7578 184.508 1.44808 184.637 1.12168 184.664C3.45474 190.428 9.48607 194.309 15.6809 194.286C16.2734 196.87 17.1326 199.385 18.2447 201.792H27.4423C27.4743 201.693 27.5032 201.587 27.532 201.472C26.6807 201.525 25.8262 201.473 24.9874 201.318C27.2308 198.657 28.9838 197.296 27.673 193.579L27.6826 193.585Z" fill="#E1EBF4"/>
<path d="M76.4237 194.635H80.2149L82.016 180.024H76.4205L76.4237 194.635Z" fill="#AB6D64"/>
<path d="M81.4744 194.975V192.413L80.4777 192.474L76.4205 192.714L75.4815 192.772L74.7636 201.372L74.7252 201.833H77.4171L77.5037 201.376L77.8947 199.294L78.9042 201.376L79.1253 201.833H86.2623C86.6872 201.833 87.0948 201.665 87.3953 201.365C87.6958 201.064 87.8646 200.657 87.8646 200.232C88.1531 198.817 82.2307 195.782 81.4744 194.975Z" fill="#4D4E4E"/>
<path d="M32.0059 190.511L35.3035 192.381L44.0878 180.562L39.223 177.802L32.0059 190.511Z" fill="#AB6D64"/>
<path d="M36.2361 193.3L37.518 191.058L36.6271 190.62L32.9769 188.83L32.1308 188.414L27.9647 194.498L27.0032 195.926L28.1089 196.566L29.3427 197.267L31.0156 195.295L30.8297 198.109L36.6335 201.411L37.0085 201.622C37.1917 201.726 37.3936 201.793 37.6027 201.818C37.8118 201.844 38.0239 201.829 38.2269 201.772C38.4299 201.716 38.6198 201.621 38.7858 201.491C38.9517 201.361 39.0905 201.2 39.1941 201.017C40.1523 199.938 36.4925 194.366 36.2361 193.3Z" fill="#4D4E4E"/>
<path d="M90.4381 73.4557C89.5528 73.5907 88.7574 74.0711 88.2262 74.7915C87.6951 75.5119 87.4717 76.4134 87.6051 77.2981C87.6338 77.4771 87.6756 77.6536 87.73 77.8265L81.9294 82.8409L84.1215 87.1093L92.2135 79.9078C92.9801 79.5978 93.606 79.0172 93.9724 78.2764C94.3389 77.5357 94.4203 76.6862 94.2013 75.8894C93.9822 75.0926 93.478 74.4039 92.7842 73.954C92.0905 73.5042 91.2556 73.3246 90.4381 73.4492V73.4557Z" fill="#AB6D64"/>
<path d="M84.3266 86.9301L82.1474 82.6617L81.923 82.223C79.59 83.0428 75.0072 85.7197 72.9177 87.087C72.1517 86.0207 67.8926 81.3809 64.2104 79.6005C63.9583 79.4789 63.7083 79.3721 63.4605 79.2803C62.8904 79.0502 62.2836 78.9244 61.669 78.9089C61.3965 78.9056 61.1252 78.9445 60.8646 79.0242C60.5905 79.1051 60.334 79.2365 60.1083 79.4116C59.509 79.8727 59.0539 80.6924 58.7975 81.9156C58.7683 82.5052 58.8454 83.0952 59.0251 83.6576C60.0506 87.055 64.1014 90.8494 65.5339 93.299C65.6749 93.6737 67.0818 97.3945 69.3027 98.717C69.4213 98.7874 69.5431 98.8514 69.6649 98.9091C69.7866 98.9667 69.9405 98.9443 70.0847 98.9507C70.3099 98.9635 70.5357 98.9635 70.7609 98.9507C70.8762 98.9507 70.9948 98.9507 71.1134 98.9283H71.1871C71.9267 98.8447 72.6558 98.6859 73.3631 98.4544L73.6035 98.3743C74.2106 98.1666 74.8065 97.9272 75.3885 97.6571C75.725 97.5034 76.0583 97.3369 76.3916 97.1639C76.7954 96.9526 77.1992 96.7285 77.5934 96.4947C77.9331 96.2994 78.2664 96.0944 78.5933 95.8831C78.6702 95.8351 78.7471 95.787 78.824 95.7326C81.7468 93.8338 84.1311 91.6243 84.5926 90.7118C84.9355 90.2041 85.2133 89.6555 85.4194 89.0787L84.3266 86.9301Z" fill="#4D4E4E"/>
<path d="M71.0653 101.945C71.0653 101.945 79.0996 110.978 77.0774 112.995C75.0552 115.012 71.9178 115.557 71.9178 115.557L68.0721 115.259L71.0653 101.945Z" fill="#4D4E4E"/>
<path opacity="0.2" d="M71.0653 101.945C71.0653 101.945 79.0996 110.978 77.0774 112.995C75.0552 115.012 71.9178 115.557 71.9178 115.557L68.0721 115.259L71.0653 101.945Z" fill="black"/>
<path opacity="0.2" d="M61.2075 77.7145C71.5717 83.7728 75.0552 89.5622 70.2609 101.205L61.2075 77.7145Z" fill="black"/>
<path d="M51.9169 126.143C51.0773 125.752 48.9878 157.273 48.8179 158.064L36.845 180.363L53.8878 187.997L65.1045 149.118L66.9728 163.424L64.4827 186.13L75.4974 188.791L83.1183 188.25L77.8177 123.6L67.774 105.406L51.9169 126.143Z" fill="#4D4E4E"/>
<path d="M60.3134 78.6046C74.3854 89.0722 70.9499 89.2611 71.0653 105.416L77.7696 123.318C77.7696 123.318 54.1314 132.464 51.7086 126.412C49.2858 120.36 60.3134 78.6046 60.3134 78.6046Z" fill="#C83898"/>
<path d="M71.2448 100.494C71.2159 100.392 71.1807 100.273 71.1422 100.148C71.0813 99.9465 71.0108 99.7255 70.9275 99.4694C70.8762 99.3093 70.8217 99.1491 70.7609 98.9538C70.7224 98.8417 70.6839 98.7201 70.6423 98.5952C69.5142 95.1914 67.2388 88.8448 64.4763 81.8323C64.1559 80.9869 63.8033 80.1384 63.4572 79.2706C63.4252 79.1938 63.3963 79.1137 63.3643 79.0337L62.9445 77.9994L58.8969 73.968L56.7144 72.5463L51.9073 76.9811V77.2085C51.9746 78.5726 52.3047 85.9566 52.3464 94.6854C52.3464 96.8853 52.3464 99.1684 52.3111 101.467V101.528C52.3111 102.13 52.3111 102.598 52.34 102.976C52.3547 103.244 52.3858 103.511 52.4329 103.776C52.6124 104.762 52.9424 104.993 53.1187 107.045C53.1187 107.045 49.3371 111.916 51.5163 116.085C51.69 116.113 51.8661 116.124 52.0419 116.117C52.8175 116.117 54.6249 116.085 59.5955 116.079H62.4798C69.4309 116.079 65.6845 112.06 69.3988 108.394C69.479 108.313 69.5591 108.237 69.6456 108.16C69.9103 107.923 70.1885 107.702 70.4788 107.497L71.1006 105.576L71.2993 104.958V104.878L71.3185 104.023L71.3601 102.319L71.389 101.186C71.3623 100.951 71.314 100.72 71.2448 100.494Z" fill="#4D4E4E"/>
<path opacity="0.2" d="M53.9455 87.7914L52.8399 94.6759L60.3134 97.7563L53.9455 87.7914Z" fill="black"/>
<path d="M64.9827 57.5221C73.3439 62.2772 66.4793 74.8134 57.9643 70.3529C49.6031 65.5978 56.4677 53.0584 64.9827 57.5221Z" fill="#AB6D64"/>
<path opacity="0.2" d="M49.2153 101.029C53.6475 106.248 61.2011 107.004 66.9376 103.501L49.2153 101.029Z" fill="black"/>
<path d="M68.4086 59.7252C68.3836 59.9207 68.3125 60.1074 68.201 60.27C68.0896 60.4326 67.941 60.5663 67.7676 60.6602C66.5979 61.4031 64.9122 60.4713 63.6848 61.3935C62.7234 62.1204 62.9317 63.1899 63.0214 64.2754C63.249 67.0292 63.845 69.8438 63.2137 72.6008C61.8421 62.8024 58.9546 65.3705 60.4128 67.3142C61.3517 68.5662 60.7108 71.4288 58.7623 70.8364C58.1566 70.6571 57.8714 70.196 57.3779 69.847C56.7914 69.4435 56.096 69.1906 55.455 68.8287C53.3335 67.5113 51.8188 65.4098 51.2408 62.9817C50.9716 61.909 50.7376 60.6378 51.2408 59.6292C51.9039 58.406 52.8568 57.3638 54.0161 56.5936C53.9167 54.4802 55.9005 53.6285 57.7368 53.9134C58.8745 54.0896 59.8263 53.8366 60.9928 53.9391C62.3054 54.0499 63.5767 54.4525 64.7135 55.1174C65.7422 55.7162 68.6041 58.1178 68.4086 59.7252Z" fill="#4D4E4E"/>
<path d="M74.1739 95.8414C76.5519 95.7934 89.3132 95.4283 91.4059 95.5212C91.5245 95.1049 95.4919 100.187 95.5881 100.219C95.6405 100.274 95.6815 100.339 95.7088 100.41C95.736 100.481 95.749 100.557 95.7469 100.633C95.7448 100.709 95.7277 100.784 95.6966 100.854C95.6655 100.923 95.621 100.986 95.5656 101.038C95.5154 101.085 95.458 101.122 95.3958 101.15C95.1618 101.291 74.5874 100.91 74.3374 100.962C74.2308 100.96 74.1266 100.929 74.0362 100.873C73.9458 100.817 73.8726 100.736 73.8246 100.641L73.69 100.321C73.674 99.7928 73.5009 97.103 73.658 96.6419C73.6277 96.5736 73.6111 96.5 73.6094 96.4253C73.6077 96.3506 73.6207 96.2763 73.6478 96.2067C73.6749 96.137 73.7155 96.0734 73.7673 96.0195C73.8191 95.9656 73.8811 95.9225 73.9496 95.8926C74.0199 95.8597 74.0964 95.8422 74.1739 95.8414Z" fill="#4D4E4E"/>
<path opacity="0.17" d="M73.69 100.315C73.8086 100.606 73.9624 100.971 74.331 100.955L95.1618 101.189C95.3143 101.186 95.4595 101.124 95.5658 101.014C95.6721 100.905 95.7308 100.758 95.7291 100.606C95.7284 100.515 95.7064 100.425 95.665 100.344L73.69 100.315Z" fill="black"/>
<path d="M91.3097 95.454C91.534 95.0665 97.1039 67.519 97.5718 67.2757L101.376 62.6231L101.716 62.3701C102.187 62.1107 103.318 62.2836 103.219 63.0105C102.324 67.2917 96.5783 91.6755 96.4501 95.4764L95.7579 100.318C95.7349 100.474 95.6508 100.615 95.524 100.709C95.3972 100.803 95.2381 100.844 95.0817 100.821H95.0208C94.8225 100.8 94.6332 100.727 94.4718 100.611C94.3104 100.494 94.1825 100.336 94.101 100.155C94.0498 99.9849 91.0373 95.5532 91.3097 95.454Z" fill="#4D4E4E"/>
<path opacity="0.17" d="M101.376 62.6391L94.1011 100.158C94.3414 100.773 95.4823 101.202 95.7451 100.395C95.7451 100.395 103.212 63.0458 103.219 63.0233C103.299 62.1204 101.812 62.0947 101.376 62.6391Z" fill="black"/>
<path d="M101.155 64.176L97.4596 69.3218L93.3127 89.0018L95.2419 90.6828L101.155 64.176Z" fill="#3778B8"/>
<path d="M76.3916 97.1608C76.3147 96.5652 76.1673 96.0176 75.7347 96.0592C75.0937 96.0592 75.2347 96.9238 75.3885 97.6603C75.4715 97.9482 75.521 98.2448 75.536 98.5441L76.5583 98.5024C76.469 98.06 76.4133 97.6115 76.3916 97.1608Z" fill="#2F2E41"/>
<path d="M82.4165 97.023C82.4165 96.8533 82.4165 96.6356 82.3973 96.4307C82.3621 96.0912 82.2467 95.7902 81.8589 95.8191C81.7872 95.817 81.716 95.8312 81.6506 95.8607C81.2372 96.0432 81.407 96.7989 81.4006 97.1639H81.7211L82.4101 97.1383C82.4197 97.0903 82.4165 97.0551 82.4165 97.023Z" fill="#2F2E41"/>
<path d="M84.4579 96.9365C84.4419 96.4882 84.522 95.6973 83.9003 95.7293C83.2273 95.7453 83.4484 96.6579 83.442 97.0774H83.7625L84.4547 97.0486C84.4535 97.0112 84.4546 96.9738 84.4579 96.9365Z" fill="#2F2E41"/>
<path d="M86.4994 96.8565C86.4994 96.405 86.5635 95.6141 85.9417 95.6493C85.2687 95.6653 85.4899 96.5779 85.4835 96.9974H85.8039L86.493 96.9718C86.5026 96.927 86.4994 96.8917 86.4994 96.8565Z" fill="#2F2E41"/>
<path d="M88.5408 96.7732C88.5408 96.3249 88.6049 95.534 87.9832 95.5693C87.3102 95.5853 87.5313 96.4979 87.5249 96.9173L87.8454 96.9013L88.5376 96.8757C88.544 96.8437 88.5408 96.8085 88.5408 96.7732Z" fill="#2F2E41"/>
<path d="M90.5822 96.7028C90.5822 96.2993 90.6303 95.6269 90.2009 95.5148C90.1448 95.4981 90.086 95.4926 90.0278 95.4988C89.98 95.4959 89.9321 95.5024 89.8868 95.518C89.3933 95.6557 89.5663 96.4594 89.5663 96.8437H89.8868L90.5758 96.818C90.5854 96.7636 90.5822 96.7284 90.5822 96.7028Z" fill="#2F2E41"/>
<path d="M78.5933 95.8799C78.5897 95.8321 78.5811 95.7849 78.5677 95.739C78.5164 95.4636 78.385 95.2523 78.0549 95.2715C77.7248 95.2907 77.6159 95.4892 77.5806 95.7582C77.5613 96.0022 77.5613 96.2474 77.5806 96.4915C77.5806 96.5395 77.5806 96.5811 77.5806 96.6195L78.6029 96.5779C78.6029 96.3986 78.6189 96.1296 78.5933 95.8799Z" fill="#2F2E41"/>
<path d="M80.6186 95.6846C80.5674 95.3996 80.436 95.169 80.0963 95.1914C79.7566 95.2139 79.6476 95.4284 79.6188 95.7102C79.5899 95.992 79.6188 96.2609 79.638 96.5363L80.6603 96.4947C80.6411 96.2898 80.6667 95.96 80.6186 95.6846Z" fill="#2F2E41"/>
<path d="M82.6633 95.6365C82.6184 95.3355 82.4934 95.0889 82.1377 95.1081C81.782 95.1273 81.6826 95.3611 81.657 95.6589C81.657 95.7229 81.657 95.7901 81.657 95.8574C81.657 96.0783 81.689 96.3025 81.6858 96.4562L82.4037 96.4274H82.7081C82.6825 96.216 82.7049 95.9054 82.6633 95.6365Z" fill="#2F2E41"/>
<path d="M78.0356 97.1095C77.3626 97.1095 77.5805 98.0381 77.5773 98.4544L78.5996 98.416C78.5612 97.9837 78.7086 97.0679 78.0356 97.1095Z" fill="#2F2E41"/>
<path d="M80.077 97.0231C79.4041 97.0231 79.622 97.9485 79.6188 98.3679L80.6411 98.3263C80.6026 97.9165 80.75 96.9878 80.077 97.0231Z" fill="#2F2E41"/>
<path d="M82.4165 97.0231C82.3298 96.9624 82.2235 96.9361 82.1185 96.9494C82.0421 96.9452 81.966 96.9617 81.8983 96.9972C81.8306 97.0327 81.7738 97.0859 81.7339 97.1512C81.5512 97.4457 81.6634 97.9965 81.6602 98.2943L82.6825 98.2559C82.6505 97.9133 82.7434 97.2344 82.4165 97.0231Z" fill="#2F2E41"/>
<path d="M84.458 96.9365C84.3709 96.8763 84.2653 96.8491 84.1599 96.8597C84.0829 96.8562 84.0063 96.8733 83.9381 96.9094C83.8699 96.9454 83.8126 96.999 83.7722 97.0646C83.5959 97.3624 83.7049 97.9099 83.7017 98.2077L84.724 98.1661C84.6919 97.8331 84.7849 97.1575 84.458 96.9365Z" fill="#2F2E41"/>
<path d="M86.4994 96.8566C86.4123 96.7964 86.3067 96.7691 86.2014 96.7797C86.1248 96.7768 86.0489 96.7942 85.9814 96.8302C85.9138 96.8663 85.857 96.9195 85.8168 96.9846C85.6341 97.2792 85.7463 97.83 85.7431 98.1278L86.7654 98.0893C86.7333 97.7499 86.8263 97.0711 86.4994 96.8566Z" fill="#2F2E41"/>
<path d="M88.5408 96.7732C88.4541 96.7125 88.3478 96.6862 88.2428 96.6995C88.1654 96.6939 88.088 96.7101 88.0194 96.7464C87.9508 96.7826 87.8939 96.8374 87.855 96.9045C87.6787 97.2023 87.7877 97.7498 87.7845 98.0476L88.8068 98.006C88.7747 97.6634 88.8677 96.9941 88.5408 96.7732Z" fill="#2F2E41"/>
<path d="M90.5823 96.7028C90.4955 96.6421 90.3893 96.6158 90.2842 96.6291C90.2079 96.6249 90.1318 96.6414 90.064 96.6769C89.9963 96.7124 89.9395 96.7656 89.8997 96.8308C89.7202 97.1286 89.8291 97.6762 89.8259 97.974L90.8483 97.9356C90.8162 97.5865 90.9091 96.9109 90.5823 96.7028Z" fill="#2F2E41"/>
<path d="M50.0165 54.0159C48.584 55.1719 47.8309 56.9202 47.6065 58.7134C47.4943 59.6371 47.504 60.5716 47.6354 61.4928C47.7475 62.2965 48.1834 63.0202 48.1898 63.8431C48.3436 61.6369 47.9174 58.0794 50.2985 56.8498C51.8016 56.0813 52.8175 57.8104 54.3525 57.5254C55.2402 57.3653 56.1312 55.9628 55.7947 55.1527C55.2691 53.8718 53.077 53.0361 51.8112 53.2058C51.15 53.3065 50.5291 53.5867 50.0165 54.0159Z" fill="#4D4E4E"/>
<path d="M103.872 81.6947C103.405 81.6947 102.957 81.8802 102.626 82.2105C102.295 82.5408 102.11 82.9888 102.11 83.4558V100.494H68.2996C67.8321 100.494 67.3838 100.68 67.0532 101.01C66.7227 101.34 66.537 101.788 66.537 102.255C66.537 102.722 66.7227 103.17 67.0532 103.501C67.3838 103.831 67.8321 104.016 68.2996 104.016H102.11V202H105.635V83.4558C105.635 82.9888 105.449 82.5408 105.119 82.2105C104.788 81.8802 104.34 81.6947 103.872 81.6947Z" fill="#E1EBF4"/>
<path d="M74.6738 99.3477C74.0725 98.6833 73.2316 98.2847 72.3361 98.2396C71.4406 98.1946 70.5639 98.5068 69.8988 99.1076C69.7643 99.2285 69.64 99.3602 69.527 99.5014L62.1561 97.4297L59.8006 101.608L70.2577 104.388C70.9391 104.857 71.7694 105.06 72.5907 104.958C73.412 104.855 74.1671 104.455 74.7123 103.833C75.2575 103.211 75.5548 102.41 75.5477 101.583C75.5406 100.756 75.2296 99.9605 74.6738 99.3477Z" fill="#AB6D64"/>
<path d="M58.1918 94.439C57.6567 94.1604 57.1215 93.8882 56.5895 93.6353C55.455 93.0749 54.4006 92.585 53.6251 92.252C54.007 91.1 54.309 89.9231 54.5288 88.7297C55.439 84.1443 56.0575 76.9973 51.9073 77.2022C51.3067 77.2447 50.7174 77.3876 50.164 77.6249C46.9304 79.418 45.8215 86.5651 44.373 89.5142C44.1198 89.8568 41.5496 93.4175 41.963 96.0528C43.1359 98.6145 46.8663 100.805 50.3627 102.23C51.0356 102.505 51.7022 102.752 52.3368 102.969C53.0611 103.216 53.7501 103.421 54.3686 103.581C55.6024 103.901 56.567 104.045 57.0317 103.981C57.6459 103.985 58.2582 103.914 58.8552 103.77L59.5891 102.489L60.041 101.688L62.4029 97.5258L62.6465 97.0967C61.2299 96.1011 59.7409 95.2127 58.1918 94.439Z" fill="#4D4E4E"/>
<path d="M193.836 122.927C187.805 123.817 181.726 124.332 175.631 124.471L175.63 124.471C170.429 124.601 164.958 124.491 159.215 124.139V7.38479C159.217 6.93054 159.398 6.49526 159.72 6.17415C160.042 5.85294 160.478 5.67213 160.933 5.67139H161.817H165.365H165.425H165.426L260.663 5.90834H260.665H261.097H264.17C264.62 7.37728 265.041 8.88766 265.432 10.4395C269.698 27.3914 270.252 48.8748 263.612 68.608C256.978 88.3262 243.162 106.3 218.66 116.291L218.659 116.292C211.387 119.278 203.133 121.529 193.836 122.927ZM193.836 122.927C193.836 122.926 193.836 122.926 193.837 122.926L193.91 123.421M193.836 122.927C193.836 122.927 193.836 122.927 193.835 122.927L193.91 123.421M193.91 123.421C203.242 122.018 211.536 119.758 218.849 116.754L158.715 124.609C164.642 124.985 170.284 125.105 175.643 124.971C181.758 124.832 187.859 124.314 193.91 123.421Z" stroke="#E1EBF4"/>
<path d="M179.953 54.5058C180.011 58.3835 173.912 58.3835 173.97 54.5058C173.912 50.6281 180.011 50.6281 179.953 54.5058Z" fill="#3778B8"/>
<path d="M232.607 59.3473H174.861C174.739 59.34 174.618 59.3576 174.504 59.399C174.389 59.4403 174.285 59.5046 174.197 59.5878C174.108 59.6711 174.038 59.7715 173.989 59.8829C173.941 59.9944 173.916 60.1145 173.916 60.2359C173.916 60.3573 173.941 60.4774 173.989 60.5888C174.038 60.7003 174.108 60.8007 174.197 60.8839C174.285 60.9672 174.389 61.0314 174.504 61.0728C174.618 61.1142 174.739 61.1317 174.861 61.1245H232.61C233.777 61.1597 233.748 59.3281 232.607 59.3473Z" fill="#E1EBF4"/>
<path d="M212.078 62.8633H174.861C174.624 62.8633 174.398 62.957 174.231 63.124C174.064 63.2909 173.97 63.5174 173.97 63.7534C173.97 63.9895 174.064 64.2159 174.231 64.3829C174.398 64.5498 174.624 64.6436 174.861 64.6436H212.078C213.241 64.6596 213.222 62.8473 212.078 62.8633Z" fill="#E1EBF4"/>
<path d="M232.607 32.9302H174.861C174.624 32.9302 174.398 33.0239 174.231 33.1909C174.064 33.3578 173.97 33.5842 173.97 33.8203C173.97 34.0564 174.064 34.2828 174.231 34.4498C174.398 34.6167 174.624 34.7105 174.861 34.7105H232.607C233.777 34.7265 233.748 32.9141 232.607 32.9302Z" fill="#E1EBF4"/>
<path d="M212.078 36.4493H174.861C174.624 36.4493 174.398 36.5431 174.231 36.7101C174.064 36.877 173.97 37.1034 173.97 37.3395C173.97 37.5756 174.064 37.802 174.231 37.969C174.398 38.1359 174.624 38.2297 174.861 38.2297H212.078C213.241 38.2457 213.222 36.4333 212.078 36.4493Z" fill="#E1EBF4"/>
<path d="M212.078 40.1349H174.861C174.624 40.1349 174.398 40.2287 174.231 40.3956C174.064 40.5625 173.97 40.789 173.97 41.025C173.97 41.2611 174.064 41.4876 174.231 41.6545C174.398 41.8214 174.624 41.9152 174.861 41.9152H212.078C213.241 41.9472 213.222 40.1189 212.078 40.1349Z" fill="#E1EBF4"/>
<path d="M179.953 77.5416C180.011 81.4193 173.912 81.4193 173.97 77.5416C173.912 73.6639 180.011 73.6639 179.953 77.5416Z" fill="#3778B8"/>
<path d="M232.607 82.3799H174.861C174.624 82.3799 174.398 82.4737 174.231 82.6406C174.064 82.8075 173.97 83.034 173.97 83.27C173.97 83.5061 174.064 83.7326 174.231 83.8995C174.398 84.0664 174.624 84.1602 174.861 84.1602H232.607C233.777 84.1762 233.748 82.3639 232.607 82.3799Z" fill="#E1EBF4"/>
<path d="M212.078 85.899H174.861C174.624 85.899 174.398 85.9928 174.231 86.1598C174.064 86.3267 173.97 86.5531 173.97 86.7892C173.97 87.0253 174.064 87.2517 174.231 87.4187C174.398 87.5856 174.624 87.6794 174.861 87.6794H212.078C213.241 87.6954 213.222 85.883 212.078 85.899Z" fill="#E1EBF4"/>
<path d="M179.001 28.1142C179.059 31.9567 173.008 31.9567 173.063 28.1142C173.008 24.2653 179.059 24.2653 179.001 28.1142Z" fill="#3778B8"/>
<path d="M262.171 5.85019C261.709 5.38909 161.394 6.73717 161.507 5.38269C161.019 4.87356 264.927 3.708 262.171 5.85019Z" fill="#E1EBF4"/>
<path d="M161.72 6.14966C162.26 3.34513 160.423 0.633803 157.616 0.093735C154.809 -0.446333 152.095 1.38937 151.555 4.1939C151.014 6.99844 152.852 9.70978 155.659 10.2499C158.465 10.7899 161.179 8.9542 161.72 6.14966Z" fill="#E1EBF4"/>
<path d="M265.828 10.3427C268.686 10.3427 271.003 8.02742 271.003 5.17136C271.003 2.3153 268.686 0 265.828 0C262.969 0 260.652 2.3153 260.652 5.17136C260.652 8.02742 262.969 10.3427 265.828 10.3427Z" fill="#E1EBF4"/>
<path d="M218.849 116.754C211.536 119.758 203.242 122.018 193.91 123.421C187.859 124.314 181.758 124.832 175.643 124.971C170.131 124.907 164.488 124.786 158.715 124.609V120.523C166.48 113.994 199.778 112.966 218.849 116.754Z" fill="#E1EBF4"/>
</g>
<defs>
<clipPath id="clip0_118_664">
<rect width="271" height="202" fill="white"/>
</clipPath>
</defs>
</svg>
