<svg xmlns="http://www.w3.org/2000/svg" width="280" height="258" fill="none" viewBox="0 0 280 258"><g clip-path="url(#clip0_117_562)"><path fill="#F2F2F2" d="M240.405 112.595C240.405 112.595 239.066 126.835 238.327 137.376C238.269 138.224 238.211 139.046 238.164 139.836L237.768 139.873L236.961 139.957C232.647 140.418 228.38 141.182 224.092 141.844L222.852 142.03C218.577 142.735 214.252 143.089 209.92 143.09H209.851C209.888 142.56 209.941 141.839 210.004 141.023C210.368 136.417 211.101 128.425 211.101 128.425L211.781 123.798L214.002 108.646V108.53V108.397H214.113L218.802 107.173L221.328 106.516L222.794 104.486L224.746 101.778L232.863 102.785L233.459 105.01L234.556 109.113L234.593 109.245L238.855 111.731L240.405 112.595Z"/><path fill="#E1EBF4" d="M107.465 205.325C107.483 207.503 108.36 209.584 109.904 211.112C111.448 212.64 113.531 213.49 115.698 213.476L255.996 212.469C257.07 212.461 258.131 212.241 259.12 211.821C260.109 211.4 261.006 210.789 261.759 210.02C262.513 209.252 263.108 208.342 263.512 207.342C263.915 206.342 264.119 205.272 264.111 204.194C264.103 203.115 263.884 202.048 263.465 201.055C263.047 200.061 262.438 199.16 261.674 198.403C260.909 197.646 260.003 197.047 259.008 196.642C258.013 196.236 256.949 196.032 255.875 196.04L115.577 197.052C113.41 197.07 111.339 197.952 109.818 199.503C108.297 201.054 107.451 203.148 107.465 205.325Z"/><path fill="#3778B8" d="M124.296 203.359C124.296 203.218 124.351 203.084 124.45 202.984C124.549 202.885 124.683 202.829 124.823 202.829L161.058 202.702C161.198 202.702 161.332 202.758 161.431 202.857C161.53 202.956 161.585 203.091 161.585 203.232C161.585 203.372 161.53 203.507 161.431 203.607C161.332 203.706 161.198 203.762 161.058 203.762L124.823 203.894C124.753 203.894 124.684 203.88 124.62 203.853C124.556 203.826 124.497 203.787 124.448 203.737C124.399 203.687 124.36 203.628 124.334 203.563C124.308 203.498 124.295 203.429 124.296 203.359Z" opacity=".7"/><path fill="#3778B8" d="M124.338 208.139C124.338 207.999 124.393 207.864 124.492 207.765C124.591 207.665 124.725 207.609 124.865 207.609L218.163 207.053C218.303 207.053 218.437 207.109 218.536 207.208C218.635 207.308 218.691 207.442 218.691 207.583C218.691 207.724 218.635 207.858 218.536 207.958C218.437 208.057 218.303 208.113 218.163 208.113L124.865 208.643C124.73 208.643 124.599 208.591 124.501 208.497C124.403 208.403 124.345 208.275 124.338 208.139Z" opacity=".7"/><path fill="#E1EBF4" d="M107.465 174.056C107.483 176.234 108.36 178.315 109.904 179.843C111.448 181.371 113.531 182.222 115.698 182.207L255.996 181.201C257.07 181.193 258.131 180.972 259.12 180.552C260.109 180.132 261.006 179.52 261.759 178.751C262.513 177.983 263.108 177.073 263.512 176.073C263.915 175.073 264.119 174.004 264.111 172.925C264.103 171.846 263.884 170.779 263.465 169.786C263.047 168.792 262.438 167.891 261.674 167.134C260.909 166.377 260.003 165.779 259.008 165.373C258.013 164.968 256.949 164.763 255.875 164.771L115.577 165.783C113.41 165.802 111.339 166.683 109.818 168.234C108.297 169.785 107.451 171.879 107.465 174.056Z"/><path fill="#3778B8" d="M122.755 176.871C122.755 176.73 122.811 176.595 122.91 176.496C123.009 176.396 123.143 176.341 123.283 176.341L216.581 175.784C216.721 175.784 216.855 175.84 216.954 175.939C217.053 176.039 217.109 176.173 217.109 176.314C217.109 176.455 217.053 176.589 216.954 176.689C216.855 176.788 216.721 176.844 216.581 176.844L123.283 177.374C123.147 177.374 123.017 177.322 122.919 177.228C122.821 177.135 122.762 177.006 122.755 176.871Z" opacity=".7"/><path fill="#3778B8" d="M122.755 171.571C122.755 171.43 122.811 171.295 122.91 171.196C123.009 171.097 123.143 171.041 123.283 171.041L216.581 170.484C216.721 170.484 216.855 170.54 216.954 170.639C217.053 170.739 217.109 170.874 217.109 171.014C217.109 171.155 217.053 171.29 216.954 171.389C216.855 171.488 216.721 171.544 216.581 171.544L123.283 172.074C123.147 172.074 123.017 172.022 122.919 171.928C122.821 171.835 122.762 171.707 122.755 171.571Z" opacity=".7"/><path fill="#E1EBF4" d="M148.526 241.571L8.22799 240.558C7.1544 240.55 6.08976 240.755 5.09484 241.16C4.09992 241.566 3.19422 242.164 2.42944 242.921C0.88491 244.45 0.00816387 246.533 -0.00792288 248.712C-0.0240096 250.891 0.821882 252.987 2.34367 254.539C3.86545 256.091 5.93847 256.972 8.10668 256.988L148.405 257.995C149.478 258.002 150.543 257.797 151.538 257.392C152.532 256.986 153.438 256.387 154.202 255.63C154.967 254.873 155.576 253.971 155.993 252.977C156.411 251.984 156.63 250.917 156.638 249.838C156.646 248.76 156.442 247.69 156.038 246.69C155.634 245.691 155.038 244.781 154.285 244.013C153.531 243.244 152.634 242.633 151.645 242.213C150.656 241.793 149.594 241.573 148.521 241.565L148.526 241.571Z"/><path fill="#3778B8" d="M52.2636 248.397L16.0288 248.264C15.8889 248.264 15.7547 248.208 15.6558 248.109C15.5569 248.01 15.5013 247.875 15.5013 247.734C15.5013 247.594 15.5569 247.459 15.6558 247.36C15.7547 247.26 15.8889 247.204 16.0288 247.204L52.2636 247.332C52.4035 247.332 52.5377 247.387 52.6366 247.487C52.7355 247.586 52.7911 247.721 52.7911 247.862C52.7911 248.002 52.7355 248.137 52.6366 248.236C52.5377 248.336 52.4035 248.391 52.2636 248.391V248.397Z" opacity=".7"/><path fill="#3778B8" d="M109.712 253.177L16.4191 252.647C16.2792 252.647 16.1451 252.591 16.0461 252.492C15.9472 252.393 15.8917 252.258 15.8917 252.117C15.8917 251.977 15.9472 251.842 16.0461 251.742C16.1451 251.643 16.2792 251.587 16.4191 251.587L109.717 252.144C109.857 252.144 109.991 252.199 110.09 252.299C110.189 252.398 110.245 252.533 110.245 252.674C110.245 252.814 110.189 252.949 110.09 253.048C109.991 253.148 109.857 253.204 109.717 253.204L109.712 253.177Z" opacity=".7"/><path fill="#F2F2F2" d="M276.308 177.098C278.347 177.098 280 175.437 280 173.389C280 171.34 278.347 169.679 276.308 169.679C274.269 169.679 272.616 171.34 272.616 173.389C272.616 175.437 274.269 177.098 276.308 177.098Z"/><path fill="#F2F2F2" d="M276.308 208.367C278.347 208.367 280 206.706 280 204.657C280 202.608 278.347 200.948 276.308 200.948C274.269 200.948 272.616 202.608 272.616 204.657C272.616 206.706 274.269 208.367 276.308 208.367Z"/><path fill="#3778B8" d="M110.551 228.146L9.04553 243.426C7.38552 243.657 5.70159 243.222 4.35911 242.214C3.01663 241.205 2.12391 239.706 1.87466 238.041C1.62541 236.376 2.03973 234.679 3.02772 233.318C4.01571 231.958 5.49767 231.044 7.15204 230.775L108.652 215.501C109.479 215.374 110.324 215.412 111.137 215.613C111.95 215.814 112.715 216.174 113.389 216.673C114.063 217.172 114.633 217.799 115.065 218.519C115.498 219.239 115.785 220.038 115.91 220.87C116.035 221.702 115.995 222.55 115.793 223.367C115.591 224.183 115.231 224.951 114.733 225.628C114.235 226.304 113.61 226.875 112.892 227.308C112.174 227.741 111.379 228.028 110.551 228.151V228.146Z"/><path fill="#fff" d="M39.9269 231.798L13.7239 235.842C13.6278 235.85 13.5321 235.822 13.4562 235.762C13.3803 235.702 13.3298 235.616 13.315 235.52C13.3003 235.424 13.3223 235.326 13.3767 235.246C13.4311 235.166 13.5137 235.11 13.6078 235.089L39.8109 231.045C39.8604 231.038 39.9109 231.04 39.9596 231.052C40.0083 231.064 40.0541 231.085 40.0945 231.115C40.1349 231.145 40.1691 231.182 40.1951 231.225C40.2211 231.268 40.2384 231.316 40.246 231.366C40.2536 231.416 40.2514 231.466 40.2395 231.515C40.2276 231.564 40.2062 231.61 40.1766 231.651C40.1469 231.691 40.1096 231.726 40.0668 231.752C40.024 231.778 39.9764 231.795 39.9269 231.803V231.798Z"/><path fill="#fff" d="M81.9847 228.692L14.4728 238.937C14.4221 238.948 14.3696 238.949 14.3186 238.939C14.2676 238.929 14.2191 238.909 14.1762 238.879C14.1333 238.85 14.0969 238.812 14.0692 238.768C14.0415 238.724 14.0231 238.674 14.0151 238.623C14.0071 238.571 14.0098 238.518 14.0229 238.468C14.036 238.417 14.0593 238.37 14.0914 238.329C14.1234 238.288 14.1635 238.254 14.2091 238.229C14.2548 238.204 14.3051 238.189 14.3568 238.184L81.8686 227.94C81.9193 227.928 81.9718 227.927 82.0228 227.937C82.0739 227.947 82.1223 227.967 82.1652 227.997C82.2081 228.026 82.2446 228.064 82.2723 228.108C82.3 228.153 82.3184 228.202 82.3264 228.254C82.3343 228.305 82.3316 228.358 82.3185 228.408C82.3054 228.459 82.2821 228.506 82.2501 228.547C82.2181 228.588 82.178 228.622 82.1323 228.647C82.0867 228.672 82.0364 228.687 81.9847 228.692Z"/><path fill="#AB6D64" d="M86.9584 220.472C86.238 220.43 85.5639 220.102 85.0842 219.56C84.6045 219.018 84.3585 218.308 84.4003 217.584C84.4063 217.437 84.4257 217.292 84.4583 217.149L73.4244 209.199L74.8643 205.59L87.8972 215.13C88.5381 215.319 89.0869 215.74 89.4388 216.31C89.7907 216.881 89.9211 217.562 89.8049 218.223C89.6887 218.884 89.3342 219.479 88.8091 219.894C88.284 220.309 87.6251 220.514 86.9584 220.472Z"/><path fill="#F79F28" d="M57.3323 176.065L50.7024 178.503C50.1141 178.72 49.6356 179.163 49.3716 179.734C49.1076 180.305 49.0798 180.958 49.2942 181.55C49.2942 181.619 49.3522 181.693 49.3838 181.762L58.4241 200.704L80.2019 216.476L83.5406 211.134L67.0424 196.04L57.3323 176.065Z"/><path fill="#A0616A" d="M54.6054 215.252C47.0526 214.542 39.6526 212.793 32.0839 212.204L35.122 204.435L50.6391 206.761L54.6054 215.252Z"/><path fill="#2F2E41" d="M28.9721 217.075L28.9088 217.658L28.3814 222.327L27.7537 222.369L27.7168 228.199C27.9148 228.777 27.9132 229.405 27.7122 229.982C27.5113 230.559 27.1227 231.051 26.6092 231.379C26.5231 231.435 26.4332 231.484 26.3402 231.527C25.9597 228.49 26.0773 225.411 26.6883 222.412C26.9252 221.296 27.2788 220.209 27.7432 219.168C27.9836 218.656 28.2548 218.158 28.5554 217.679C28.6873 217.488 28.8297 217.292 28.9721 217.075Z"/><path fill="#6C63FF" d="M29.0934 216.068L28.9721 217.07L28.9088 217.653L28.5607 217.7H28.5185L29.0934 216.068Z"/><path fill="#4D4E4E" d="M247.03 94.1829C247.099 97.1932 245.975 100.113 244.366 102.663C243.83 101.175 243.079 99.7746 242.135 98.5075C242.584 101.316 242.103 104.195 240.764 106.701L240.616 106.796C239.972 107.214 239.241 107.478 238.48 107.57C237.719 107.662 236.947 107.578 236.223 107.326C237.656 105.696 238.514 103.637 238.667 101.468C238.819 99.2984 238.257 97.1388 237.067 95.3223C236.371 94.3101 235.484 93.4144 235.041 92.2643C234.361 90.4306 235.015 88.4061 235.426 86.4928C235.811 84.7121 235.88 82.5922 234.688 81.2884C234.815 81.1049 234.989 80.9589 235.191 80.8657C235.393 80.7725 235.616 80.7355 235.838 80.7585C236.192 80.8521 236.52 81.0279 236.795 81.2718C237.07 81.5157 237.284 81.8209 237.42 82.1629C237.7 82.8532 238.053 83.5107 238.475 84.1238C239.356 85.1838 240.848 85.4382 242.109 86C245.189 87.3885 246.956 90.8281 247.03 94.1829Z"/><path fill="#4D4E4E" d="M221.354 92.4604C221.534 91.8456 220.331 95.5926 220.911 95.6403C223.549 95.9424 227.172 97.527 229.013 98.2637C229.096 98.2583 229.179 98.2477 229.261 98.2319C229.456 98.2319 229.651 98.1789 229.841 98.1471C234.118 97.3309 235.769 90.7274 235.769 90.6638C235.769 90.367 235.057 82.1841 233.939 82.0834C233.645 82.0517 233.349 82.0357 233.053 82.0357H230.279C229.704 81.9136 229.123 81.8286 228.538 81.7813C222.958 81.352 218.554 84.7757 218.965 88.936C219.081 89.1162 219.187 89.2805 219.282 89.466C219.377 89.6515 219.445 89.7628 219.508 89.9006C220.036 90.9606 218.712 92.3014 219.577 92.5505C220.732 92.8844 216.544 103.797 221.112 103.797C218.897 104.443 220.874 94.1511 221.354 92.4604Z"/><path fill="#A0616A" d="M226.344 98.8573C229.971 98.8573 232.91 95.9031 232.91 92.259C232.91 88.6149 229.971 85.6608 226.344 85.6608C222.717 85.6608 219.777 88.6149 219.777 92.259C219.777 95.9031 222.717 98.8573 226.344 98.8573Z"/><path fill="#4D4E4E" d="M233.322 87.2084C235.711 87.2084 237.647 85.2627 237.647 82.8626C237.647 80.4624 235.711 78.5167 233.322 78.5167C230.933 78.5167 228.997 80.4624 228.997 82.8626C228.997 85.2627 230.933 87.2084 233.322 87.2084Z"/><path fill="#F79F28" d="M56.5675 196.814L55.2595 204.435C55.2595 204.435 58.4241 211.611 56.251 213.397C55.9841 213.637 55.7786 213.938 55.6519 214.275C55.5252 214.611 55.481 214.974 55.5232 215.331L54.6054 215.252C47.0526 214.542 39.6526 212.793 32.0839 212.204C31.5565 212.162 31.0291 212.12 30.5016 212.093L32.8329 205.431L31.2506 199.511L29.6208 193.369L29.2674 183.262C29.2568 183.07 29.2568 182.877 29.2674 182.684C29.2622 182.586 29.2622 182.486 29.2674 182.388C29.354 181.112 29.7234 179.873 30.3485 178.759C30.9736 177.646 31.8387 176.687 32.8804 175.954C33.2358 175.705 33.6096 175.483 33.9985 175.291C34.4172 175.078 34.853 174.901 35.3013 174.761L35.7496 174.629L38.1705 170.686L40.9818 170.394L42.0366 170.283L48.8142 169.594L50.2752 171.502L50.5442 171.852L51.5991 173.192L54.7848 174.894C55.9522 175.519 56.9481 176.424 57.6841 177.529C58.4201 178.634 58.8736 179.904 59.0043 181.227C59.0412 181.655 59.0412 182.086 59.0043 182.515L56.5675 196.814Z"/><path fill="#AB6D64" d="M26.5933 231.406C26.5072 231.461 26.4173 231.511 26.3243 231.554C25.6791 231.865 24.9376 231.908 24.2609 231.674C23.5843 231.439 23.0273 230.945 22.7111 230.3C22.3949 229.654 22.3449 228.91 22.5721 228.227C22.7994 227.545 23.2854 226.981 23.9245 226.657L24.0669 226.588V222.603V217.907V212.957L27.817 212.024L27.7748 219.195V222.375L27.7379 228.204C27.9378 228.789 27.9334 229.425 27.7253 230.007C27.5172 230.589 27.118 231.082 26.5933 231.406Z"/><path fill="#F79F28" d="M41.4196 180.485L41.0293 181.216L31.2348 199.511L30.9394 200.041L29.5575 212.035L29.0934 216.052L28.9721 217.054L28.9088 217.637L28.3813 222.306L27.7537 222.348L26.6988 222.417L24.0616 222.581L22.1049 222.703V219.561L22.1418 195.711L29.2569 182.684L29.4309 182.366L32.1789 177.321C32.3278 177.047 32.5291 176.805 32.7713 176.609C33.0135 176.413 33.2917 176.267 33.5901 176.18C33.8885 176.092 34.2012 176.064 34.5102 176.098C34.8192 176.132 35.1185 176.227 35.391 176.378L35.5808 176.494L41.4196 180.485Z"/><path fill="#AB6D64" d="M45.465 166.886C50.216 166.886 54.0675 163.016 54.0675 158.242C54.0675 153.468 50.216 149.598 45.465 149.598C40.714 149.598 36.8625 153.468 36.8625 158.242C36.8625 163.016 40.714 166.886 45.465 166.886Z"/><path fill="#4D4E4E" d="M54.4789 153.011C53.7194 153.626 53.8934 156.609 53.0548 156.122C52.2162 155.634 52.0368 154.754 51.0927 154.754C50.2955 154.796 49.5427 155.136 48.983 155.708C48.8775 155.799 48.7826 155.899 48.6876 155.995C48.6012 155.963 48.5132 155.937 48.4239 155.915C47.7429 155.748 47.0242 155.849 46.4144 156.196C46.976 156.238 47.5106 156.455 47.9439 156.816C47.7593 157.023 47.5695 157.235 47.3743 157.426C45.7234 159.053 42.3478 157.325 40.0746 156.933C41.9681 159.01 41.5936 160.166 41.1295 162.943V163.091C41.0293 162.455 39.0197 162.487 39.3256 163.335C39.7532 164.173 40.2849 164.953 40.9079 165.656C38.1336 163.722 35.8868 161.056 35.391 157.834C35.2073 157.177 35.166 156.489 35.2697 155.814C35.3502 155.48 35.5389 155.182 35.8062 154.967C36.0735 154.753 36.4042 154.633 36.7465 154.627C36.4382 153.64 36.4019 152.586 36.6412 151.579C36.8806 150.573 37.3867 149.649 38.106 148.908C38.8252 148.167 39.7307 147.635 40.7264 147.37C41.7221 147.104 42.7709 147.114 43.7614 147.398C44.6647 147.721 45.5457 148.103 46.3986 148.543C47.2608 148.983 48.2361 149.147 49.194 149.015C49.7952 148.893 50.3965 148.586 50.982 148.76C51.6624 148.962 51.9525 149.683 52.2215 150.377C51.7126 150.566 51.2704 150.901 50.9503 151.341C51.4783 151.147 52.0536 151.123 52.5959 151.273C53.2341 152.38 53.2658 152.635 54.4789 153.011Z"/><path fill="#C83898" d="M224.092 141.855L222.852 142.04C218.577 142.745 214.252 143.1 209.92 143.1C209.951 142.417 209.967 141.728 209.988 141.033C210.014 140.069 210.036 139.099 210.051 138.129L210.32 124.959C210.32 124.747 210.32 124.535 210.32 124.323C210.41 119.887 210.531 115.313 212.362 111.254C212.786 110.331 213.318 109.461 213.944 108.662C213.976 108.62 214.002 108.577 214.034 108.54L214.16 108.381C214.652 107.764 215.199 107.195 215.795 106.68C216.717 105.828 217.797 105.17 218.974 104.742C220.152 104.314 221.402 104.126 222.652 104.189L222.836 104.47L223.084 104.851C222.921 106.065 222.752 107.284 222.599 108.503C221.935 113.803 221.455 119.103 221.993 124.365C222.446 128.807 223.617 133.152 223.986 137.615C223.986 137.763 224.013 137.917 224.023 138.065C224.092 139.306 224.129 140.583 224.092 141.855Z"/><path fill="#C83898" d="M237.768 139.878C237.958 139.051 238.137 138.219 238.327 137.382C239.059 134.075 239.794 130.768 240.532 127.46C241.497 123.125 242.462 118.642 241.634 114.28C241.55 113.831 241.443 113.387 241.313 112.95C241.27 112.806 241.223 112.663 241.175 112.52C240.842 111.516 240.39 110.555 239.83 109.658C238.364 107.305 236.17 105.477 233.501 104.995C233.452 104.978 233.4 104.968 233.348 104.963L232.763 105.493C232.642 106.622 232.525 107.761 232.399 108.895C231.798 114.264 231.012 119.627 229.234 124.705C227.694 129.05 225.437 133.115 224.028 137.504C224.028 137.504 224.028 137.557 224.028 137.578C223.565 139.038 223.19 140.524 222.905 142.03L224.145 141.844C228.433 141.182 232.7 140.418 237.014 139.957L237.768 139.878Z"/><path fill="#AB6D64" d="M246.149 90.4201L245.901 88.0352L245.843 87.5052L245.754 86.6201L243.849 68.2457C244.007 67.716 243.985 67.149 243.787 66.6331C243.59 66.1173 243.228 65.6817 242.758 65.3944C242.489 65.2329 242.191 65.1261 241.881 65.0803C241.572 65.0344 241.256 65.0503 240.952 65.1271C240.649 65.2039 240.363 65.34 240.112 65.5277C239.86 65.7155 239.648 65.9511 239.488 66.2212C239.475 66.2394 239.464 66.259 239.456 66.2795C239.269 66.5871 239.152 66.9324 239.114 67.2907C239.075 67.649 239.116 68.0114 239.233 68.3521C239.35 68.6928 239.54 69.0033 239.79 69.2616C240.04 69.5199 240.344 69.7195 240.68 69.8462V70.3762L240.632 71.9927L240.595 73.2169L240.521 75.6495L240.495 76.5876L240.405 79.6456L240.321 82.5923L240.221 86.1643L240.136 88.9096L241.123 89.1587L246.149 90.4201Z"/><path fill="#C83898" d="M248.053 94.3367C248.015 94.0177 247.939 93.7045 247.826 93.4039C247.331 92.5347 247.025 93.7484 247.299 91.4218C247.52 89.5297 246.197 89.7682 246.671 89.3654C247.457 88.6977 246.376 88.4062 245.901 88.0458C245.69 87.8868 245.601 87.7119 245.843 87.5158C245.958 87.4153 246.085 87.3315 246.223 87.2667C246.75 86.9964 246.445 86.7897 245.754 86.6307C244.209 86.3704 242.647 86.2233 241.08 86.1909L240.205 86.1591H239.978C239.709 86.4142 239.54 86.7587 239.503 87.1289C239.391 87.9188 239.452 88.7238 239.683 89.4873C239.842 90.0154 240.052 90.5266 240.31 91.0137C240.411 91.1943 240.457 91.4007 240.442 91.6073C240.416 91.7298 240.362 91.8448 240.285 91.9438C240.209 92.0428 240.111 92.1234 239.999 92.1796C239.472 92.5294 239.767 93.2661 240.173 93.9551C240.519 94.4168 240.811 94.9164 241.044 95.4443C241.044 95.9213 237.831 106.044 237.831 106.044L239.013 121.344C239.889 122.022 240.994 122.33 242.093 122.203C243.009 122.049 243.856 121.616 244.519 120.963C245.452 120.048 246.212 118.971 246.761 117.783C249.878 111.466 248.718 98.0465 248.053 94.3367Z"/><path fill="#AB6D64" d="M189.513 69.0937C190.098 69.3803 190.549 69.8851 190.77 70.5008C190.991 71.1164 190.964 71.7943 190.695 72.3901C190.637 72.5103 190.57 72.6255 190.494 72.7346L201.597 88.1783L197.467 92.858L186.976 73.201C186.548 72.852 186.248 72.3702 186.122 71.8312C185.996 71.2922 186.052 70.7264 186.28 70.2225C186.549 69.6492 187.032 69.206 187.625 68.9895C188.218 68.7731 188.872 68.801 189.445 69.0672L189.513 69.0937Z"/><path fill="#C83898" d="M220.632 114.375C220.632 114.375 219.15 119.707 212.224 115.79C205.299 111.874 197.804 97.2409 197.731 96.2339C197.657 95.2269 198.585 96.0643 197.061 94.2942C195.821 92.8579 197.061 92.3067 196.428 92.2431C194.803 92.0629 197.625 89.9907 195.615 90.2292C193.606 90.4677 200.162 85.788 200.162 85.788C200.162 85.788 201.354 85.788 202.272 88.3743C202.799 89.8105 202.298 90.7963 203.522 90.791C204.745 90.7857 204.218 93.6953 204.476 94.0769C204.735 94.4585 213.063 101.046 213.063 101.046L220.632 114.375Z"/><path fill="#F79F28" d="M211.423 80.6419C233.584 80.6419 251.55 62.5896 251.55 40.3209C251.55 18.0523 233.584 0 211.423 0C189.261 0 171.295 18.0523 171.295 40.3209C171.295 62.5896 189.261 80.6419 211.423 80.6419Z"/><path fill="#fff" d="M191.027 31.3484C191.444 32.1473 191.763 32.9945 191.976 33.8711C192.504 36.1765 192.14 38.2646 190.89 39.2451C190.763 39.3462 190.627 39.4349 190.484 39.5101C188.901 40.3315 186.76 39.4677 185.025 37.5226C184.433 36.8454 183.923 36.1 183.506 35.302C183.093 34.5113 182.778 33.6731 182.567 32.8058C181.955 30.2619 182.477 27.9671 184.049 27.1403C186.116 26.0485 189.249 27.9353 191.027 31.3484Z"/><path fill="#3F3D56" d="M190.362 35.2862C191 36.5012 191.187 37.9044 190.89 39.2451C190.763 39.3462 190.627 39.4349 190.484 39.5101C188.901 40.3316 186.76 39.4677 185.025 37.5227C184.433 36.8454 183.923 36.1 183.506 35.3021C183.093 34.5113 182.778 33.6731 182.567 32.8058C183.929 32.1014 185.513 31.9669 186.973 32.4315C188.434 32.8962 189.652 33.9224 190.362 35.2862Z"/><path fill="#fff" d="M206.607 23.1601C208.311 26.4407 208.158 29.9386 206.301 31.1787C206.228 31.2317 206.143 31.2794 206.064 31.3271C203.986 32.3871 200.863 30.5269 199.086 27.0873C198.671 26.2994 198.356 25.4627 198.147 24.5964C197.535 22.0472 198.052 19.7523 199.624 18.9256C201.702 17.8603 204.83 19.7471 206.607 23.1601Z"/><path fill="#3F3D56" d="M205.784 27.1827C206.432 28.4079 206.619 29.8263 206.312 31.1788C206.238 31.2318 206.154 31.2795 206.075 31.3272C203.996 32.3871 200.874 30.5269 199.097 27.0873C198.682 26.2995 198.366 25.4627 198.158 24.5964C199.515 23.9525 201.068 23.8621 202.49 24.3444C203.912 24.8267 205.093 25.844 205.784 27.1827Z"/><path fill="#fff" d="M189.059 54.5139C193.806 63.5924 202.952 68.145 209.535 64.6842C216.117 61.2234 217.62 51.0637 212.894 41.9851C207.704 49.5903 199.83 53.8726 189.059 54.5139Z"/><path fill="#000" d="M247.025 21.6974C243.208 14.3658 237.24 8.39072 229.93 4.58242C222.62 0.774126 214.321 -0.683187 206.159 0.408073C215.803 1.68257 224.658 6.43303 231.077 13.776C237.496 21.119 241.043 30.5547 241.058 40.3285C241.073 50.1023 237.555 59.5488 231.158 66.9115C224.761 74.2741 215.92 79.0516 206.28 80.3557C213.563 81.3175 220.969 80.2515 227.691 77.274C234.412 74.2964 240.191 69.5216 244.397 63.4702C248.603 57.4188 251.075 50.3232 251.543 42.9571C252.011 35.5909 250.457 28.2371 247.051 21.6974H247.025Z" opacity=".2"/></g><defs><clipPath id="clip0_117_562"><rect width="280" height="258" fill="#fff"/></clipPath></defs></svg>